<svg xmlns="http://www.w3.org/2000/svg" width="169" height="45" viewBox="0 0 169 45">
    <path fill="#D62F2E" fill-rule="evenodd" d="M94.396 10.884c-1.444 2.606-2.293 5.416-2.302 8.581.01 10.658 7.474 19.356 22.605 19.256 5.018.1 9.395-1.367 12.767-3.768v-9.418c-4.351 2.8-9.802 3.89-12.767 3.977-3.14-.087-8.59-.305-11.512-6.07h31.605c.225-1.258.366-2.634.419-3.977C135.158 7.404 127.042-.03 114.699 0c-7.9-.03-14.802 3.498-18.837 8.79V1.466h-9.63c-4.76.053-10.647 3.105-10.673 10.047v26.581h10.674V16.116c.035-2.825.471-5.005 5.86-5.232h2.303m32.861 27.21l15.279-19.257-14.442-17.372h14.233l6.697 9.42 6.908-9.42h12.348l-13.395 17.372 13.395 19.256h-13.186l-6.698-11.512-8.79 11.512h-12.349M35.163 1.465h14.024L57.56 14.86l7.744-13.395h13.604L56.303 38.093H43.117l8.581-13.395L35.163 1.465m67.815 14.233h21.558c-.659-4.697-5.782-6.768-9.837-6.698-3.358-.07-9.572 1.457-11.721 6.698M13.396 25.953c1.846 1.962 4.61 3.13 7.744 3.14 5.729-.01 10.422-4.153 10.465-9.209-.043-5.161-4.736-9.303-10.465-9.21-5.851-.093-10.545 4.703-10.465 9.838V45H0V20.512C.021 9.758 9.33.407 21.14.419 32.83.407 42.354 9.104 42.28 19.884c.074 10.675-9.45 19.373-21.14 19.465-2.802-.092-5.423-.565-7.744-1.465v-11.93m146.093-6.489c.025-2.013 1.683-3.52 3.559-3.558 2.024.038 3.681 1.545 3.768 3.558-.087 2.093-1.744 3.6-3.768 3.559-1.876.04-3.534-1.466-3.559-3.559m3.559 2.93c1.693.076 2.965-1.185 2.93-2.93.035-1.656-1.237-2.927-2.93-2.93-1.546.003-2.817 1.274-2.721 2.93-.096 1.745 1.175 3.006 2.72 2.93m-.627-.836h-.628v-4.187h1.465c1.033.08 1.514.437 1.465 1.256.049.726-.413 1.046-1.046 1.047l1.256 1.884h-.838l-1.046-1.884h-.628v1.884m.628-2.303c.602-.005 1.072-.044 1.046-.628.026-.555-.435-.648-.837-.628h-.837v1.256h.628"/>
</svg>
