<svg xmlns="http://www.w3.org/2000/svg" width="177" height="35" viewBox="0 0 177 35">
    <path fill="#1A1919" fill-rule="evenodd" d="M54.883 34.199h7.327V0h-7.327v34.199zm49.237-.02h7.513v-8.665l.007-.757.024-.765.041-.758.063-.74.087-.704.111-.663.142-.603.174-.534.206-.45.243-.357.228-.247.256-.244.283-.232.309-.22.335-.204.363-.174.389-.148.415-.11.44-.071.463-.024.375.007.376.024.373.044.36.065.347.093.33.123.303.154.278.189.244.23.206.273.14.272.117.334.102.387.083.43.067.463.054.491.035.506.027.515.015.513.004.501V34.18h7.457V22.366l-.005-.578-.01-.55-.02-.52-.026-.49-.03-.461-.042-.431-.048-.402-.053-.373-.063-.343-.068-.313-.077-.295-.089-.285-.097-.277-.108-.268-.116-.258-.129-.25-.14-.242-.147-.23-.16-.223-.168-.212-.21-.238-.225-.225-.237-.212-.25-.201-.262-.191-.276-.18-.287-.166-.3-.157-.313-.146-.324-.133-.334-.121-.345-.112-.353-.096-.362-.083-.372-.07-.382-.058-.388-.045-.401-.032-.409-.02-.418-.007-.548.002-.53.013-.506.024-.493.04-.476.057-.466.077-.457.102-.447.128-.444.157-.442.191-.41.206-.395.222-.381.24-.365.265-.354.287-.346.322-.333.353-.325.395-.318.433-.309.482v-3.294h-6.996V34.18zM7.833 15.952V9.394H9.76l.645.008.599.022.558.038.511.052.472.067.428.083.38.096.342.112.294.128.254.142.217.16.196.18.174.203.15.225.128.25.104.268.082.292.058.312.034.337.012.358-.012.346-.04.324-.06.303-.086.283-.111.262-.136.239-.161.218-.185.198-.21.174-.234.155-.266.136-.309.124-.35.109-.391.091-.435.08-.474.065-.516.051-.558.036-.602.023-.64.007H7.833zM0 34.199h8.674l1.023-.002.96-.012.904-.017.845-.025.785-.03.727-.037.667-.046.611-.051.548-.06.494-.066.453-.073.44-.082.425-.091.411-.102.396-.111.382-.121.367-.132.35-.14.338-.147.324-.16.377-.208.36-.222.34-.24.324-.257.306-.273.288-.288.27-.305.252-.321.234-.337.217-.353.199-.369.176-.38.157-.392.135-.403.114-.415.094-.426.073-.435.052-.45.032-.46.01-.47-.02-.647-.055-.625-.092-.595-.13-.571-.167-.542-.203-.519-.242-.488-.278-.462-.313-.44-.353-.408-.384-.38-.413-.343-.442-.312-.468-.273-.501-.243-.527-.205-.555-.17-.585-.138-.613-.099-.64-.068.572-.162.541-.177.508-.193.478-.206.444-.22.413-.235.38-.25.35-.265.317-.28.285-.29.255-.31.227-.333.204-.353.174-.375.149-.395.12-.416.095-.438.068-.457.038-.48.015-.5-.01-.402-.026-.39-.043-.382-.064-.373-.081-.36-.1-.354-.116-.341-.135-.331-.152-.325-.17-.312-.185-.302-.206-.29-.22-.276-.233-.267-.252-.25-.27-.241-.283-.227-.302-.216-.316-.203-.334-.192-.305-.154-.316-.145-.326-.135-.34-.127-.35-.119-.363-.109-.374-.096-.387-.09-.398-.079-.41-.07-.448-.064-.508-.056-.572-.048-.635-.043-.698-.037-.761-.028-.826-.025-.887-.014-.95-.012-1.013-.002H0v29.859zm7.833-5.585v-6.982h3.116l.595.007.558.024.516.042.482.056.439.072.402.088.363.104.324.12.285.136.246.152.216.172.195.197.17.22.147.244.125.27.105.294.079.317.056.34.033.369.012.39-.012.352-.038.332-.06.312-.087.29-.114.27-.135.248-.162.228-.186.208-.213.187-.233.164-.266.148-.303.133-.338.116-.37.1-.407.087-.44.07-.476.053-.513.038-.545.025-.58.007H7.834zm35.997-4.748l-.014.474-.046.453-.075.433-.107.414-.135.392-.164.37-.195.35-.225.333-.257.31-.285.287-.31.264-.334.237-.353.208-.376.182-.4.152-.42.126-.444.097-.464.07-.485.041-.51.014-.505-.014-.48-.041-.462-.07-.44-.097-.418-.126-.398-.152-.374-.182-.356-.208-.33-.237-.312-.264-.285-.288-.254-.31-.225-.331-.193-.35-.164-.37-.135-.393-.104-.414-.075-.433-.046-.453-.014-.474.014-.476.046-.458.073-.435.104-.417.133-.394.164-.376.192-.353.223-.332.254-.311.283-.291.309-.266.328-.24.355-.21.374-.182.397-.154.42-.127.442-.098.463-.071.486-.04.51-.016.51.016.485.04.464.073.445.1.42.125.399.155.376.184.353.212.333.24.311.269.285.293.257.314.225.331.195.354.164.373.135.394.107.414.075.433.046.453.014.474zm6.735-10.275h-7.08v3.364l-.261-.405-.271-.382-.28-.36-.29-.34-.301-.316-.313-.298-.32-.273-.334-.255-.34-.229-.353-.21-.365-.19-.376-.172-.392-.147-.406-.13-.418-.112-.435-.09-.447-.07-.458-.048-.474-.031-.485-.01-.909.029-.869.09-.834.149-.794.209-.757.268-.717.327-.682.386-.642.448-.603.506-.565.566-.522.617-.466.656-.411.7-.358.74-.299.782-.247.825-.193.864-.138.908-.082.949-.027.99.027.994.078.953.13.913.183.87.237.83.288.79.34.745.394.707.444.665.498.624.542.574.577.513.611.45.648.392.68.331.718.272.753.21.787.15.824.092.858.029.505-.01.49-.028.479-.05.463-.071.452-.09.44-.108.424-.13.411-.15.399-.168.387-.192.374-.21.369-.235.36-.256.353-.279.342-.302.339-.327.331-.348.322-.37.314-.395.306-.416V34.2h7.037V13.59zm32.063 10.304l-.014.472-.043.45-.075.431-.103.409-.134.39-.161.37-.194.348-.22.327-.251.307-.28.288-.307.264-.325.237-.349.208-.37.179-.39.152-.413.126-.435.097-.458.068-.477.041-.497.014-.503-.014-.481-.041-.457-.068-.437-.097-.413-.123-.391-.152-.367-.18-.345-.205-.325-.235-.302-.26-.275-.286-.247-.306-.217-.33-.188-.347-.158-.368-.13-.392-.101-.412-.073-.432-.043-.455-.014-.475.014-.47.043-.452.073-.428.104-.411.13-.39.162-.368.189-.351.22-.327.248-.31.278-.287.301-.264.327-.235.345-.208.37-.18.39-.152.41-.123.432-.097.457-.07.475-.04.499-.016.497.015.477.04.458.071.435.097.413.123.39.153.37.18.349.207.325.235.307.264.28.287.252.31.22.327.193.35.16.37.135.389.103.411.075.428.043.452.014.47zM89.568 0h-7.246v16.991l-.285-.43-.295-.405-.299-.38-.31-.356-.315-.329-.325-.303-.33-.275-.338-.251-.349-.228-.354-.201-.368-.18-.389-.161-.41-.143-.43-.121-.454-.104-.474-.087-.495-.066-.514-.046-.537-.028-.558-.01-.881.03-.848.09-.814.153-.78.213-.747.273-.713.334-.676.395-.644.455-.61.517-.575.576-.528.627-.477.666-.418.702-.361.74-.307.78-.251.815-.194.855-.14.89-.082.93-.03.967.03 1 .082.956.14.914.196.874.254.83.307.789.361.748.421.706.476.663.531.622.58.571.619.51.657.45.698.393.734.33.773.27.814.209.85.149.891.092.928.029.456-.01.45-.031.441-.05.433-.073.425-.094.416-.114.406-.133.398-.158.392-.176.382-.196.373-.218.368-.237.357-.26.353-.28.345-.303.337-.324.328-.344.321-.367.313-.387.308-.409v3.363h7.208V0zm3.237 4.226l.013.326.036.317.058.308.082.3.107.29.13.28.155.274.176.264.2.254.225.245.242.229.248.204.258.181.269.158.278.13.287.109.295.085.304.06.314.037.324.012.331-.012.318-.037.31-.058.302-.082.29-.107.28-.13.27-.156.258-.176.252-.2.239-.226.222-.242.199-.251.176-.264.152-.271.13-.284.104-.292.082-.305.06-.312.035-.324.012-.334-.012-.334-.034-.322-.059-.312-.08-.3-.103-.288-.128-.279-.15-.268-.171-.254-.195-.245-.221-.235-.237-.218-.248-.193-.258-.172-.268-.15L98.38.53l-.292-.102-.305-.08-.314-.058-.326-.034-.338-.012-.327.012-.316.034-.306.058-.298.082-.287.105-.278.127-.27.153-.259.174-.249.199-.24.22-.22.237-.201.247-.176.26-.153.264-.128.277-.106.287-.08.296-.06.308-.034.314-.013.327zm.298 29.954h7.326V13.574h-7.326V34.18zm37.786-29.954l.013.326.036.317.058.308.081.3.107.29.13.28.155.274.176.264.204.254.224.245.242.229.249.204.258.181.268.158.277.13.288.109.294.085.306.06.314.037.323.012.33-.012.32-.037.309-.058.299-.082.29-.107.28-.13.271-.156.26-.176.25-.2.241-.226.223-.242.197-.251.177-.264.152-.271.129-.284.105-.292.083-.305.057-.312.037-.324.012-.334-.012-.334-.034-.322-.058-.312-.08-.3-.103-.288-.128-.279-.15-.268-.172-.254-.196-.245-.22-.235-.236-.218-.249-.193-.259-.172-.27-.15-.28-.125-.293-.102-.304-.08-.314-.058-.326-.034-.338-.012-.326.012-.32.034-.306.058-.297.082-.288.105-.277.127-.27.153-.26.174-.248.199-.239.22-.222.237-.199.247-.176.26-.152.264-.13.277-.105.287-.081.296-.06.308-.034.314-.013.327zm.297 29.954h7.327V13.574h-7.327V34.18zm37.79-29.954l.011.326.035.317.06.308.082.3.106.29.13.28.153.274.179.264.2.254.225.245.241.229.251.204.259.181.268.158.278.13.288.109.294.085.304.06.314.037.322.012.33-.012.32-.037.311-.058.3-.082.29-.107.28-.13.27-.156.258-.176.252-.2.239-.226.222-.242.2-.251.175-.264.154-.271.128-.284.107-.292.081-.305.059-.312.036-.324.012-.334-.012-.334-.034-.322-.058-.312-.082-.3-.104-.288-.126-.279-.152-.268-.171-.254-.196-.245-.22-.235-.237-.218-.246-.193-.258-.172-.271-.15-.282-.125-.292-.102-.306-.08-.313-.058-.326-.034-.338-.012-.327.012-.316.034-.307.058-.296.082-.288.105-.278.127-.27.153-.259.174-.249.199-.24.22-.221.237-.2.247-.177.26-.152.264-.129.277-.105.287-.08.296-.06.308-.035.314-.012.327zm.296 29.954h7.33V13.574h-7.33V34.18zm-26.868 0h7.515v-8.666l.007-.757.022-.765.044-.758.062-.74.085-.704.114-.663.14-.603.173-.534.205-.45.245-.357.227-.247.256-.244.283-.232.309-.22.337-.204.363-.174.39-.148.414-.11.44-.071.464-.024.374.007.377.024.37.044.362.065.348.093.33.123.303.154.278.189.244.23.204.273.141.272.118.334.1.387.085.43.064.463.053.491.037.506.027.515.014.513.005.501V34.18h7.459V22.366l-.005-.578-.01-.55-.02-.52-.024-.49-.033-.461-.041-.431-.049-.402-.055-.373-.062-.343-.07-.313-.078-.295-.09-.285-.096-.277-.107-.268-.117-.258-.13-.25-.136-.242-.148-.23-.156-.223-.17-.212-.21-.238-.225-.225-.24-.212-.248-.201-.263-.191-.276-.18-.287-.166-.3-.157-.311-.146-.324-.133-.333-.121-.345-.112-.353-.096-.362-.083-.372-.07-.382-.058-.392-.045-.398-.032-.41-.02-.418-.007-.55.002-.526.013-.51.024-.49.04-.477.057-.465.077-.456.102-.449.128-.442.157-.442.191-.411.206-.396.222-.38.24-.367.265-.355.287-.343.322-.332.353-.327.395-.317.433-.31.482v-3.294h-6.997V34.18z"/>
</svg>
