<svg xmlns="http://www.w3.org/2000/svg" width="54" height="34" viewBox="0 0 54 34">
    <g fill="none" fill-rule="evenodd">
        <path fill="#FFF" d="M0 34h53.967V0H0z"/>
        <path fill="#F7B600" d="M.894 32.921h52.178v-4.61H.894z"/>
        <path fill="#1A1F71" d="M.894 5.492h52.178V.882H.894zM26.503 10.592l-2.75 12.685H20.44l2.75-12.685h3.313zm14.014 8.173l1.755-4.773.994 4.773h-2.75zm3.71 4.512h3.081l-2.683-12.685h-2.85a1.528 1.528 0 0 0-1.424.916l-5.003 11.769h3.479l.696-1.896h4.273l.431 1.896zm-8.68-4.152c0-3.335-4.704-3.53-4.67-5.035 0-.457.463-.948 1.424-1.078a6.526 6.526 0 0 1 3.28.555l.596-2.68a8.829 8.829 0 0 0-3.114-.556c-3.28 0-5.6 1.732-5.632 4.184-.033 1.831 1.656 2.845 2.915 3.466 1.259.62 1.723 1.013 1.723 1.569 0 .85-1.027 1.242-1.988 1.242a6.784 6.784 0 0 1-3.412-.817l-.597 2.779c.762.36 2.22.654 3.71.686 3.446.033 5.732-1.667 5.765-4.315zm-13.781-8.533l-5.4 12.685h-3.512l-2.65-10.135c-.166-.62-.298-.85-.795-1.111a14.758 14.758 0 0 0-3.28-1.08l.066-.359h5.665a1.514 1.514 0 0 1 1.524 1.308l1.391 7.356 3.446-8.631h3.545v-.033z"/>
    </g>
</svg>
