<svg xmlns="http://www.w3.org/2000/svg" width="23" height="23" viewBox="0 0 23 23">
    <path fill="#17286F" fill-rule="evenodd" d="M22.968 5.939c.183.506-.415 1.669-1.797 3.488-.191.253-.45.589-.778 1.008-.32.403-.539.688-.659.854-.12.166-.241.362-.365.588-.123.225-.171.391-.143.498.027.107.08.243.155.41a1.7 1.7 0 0 0 .39.51c.183.173.41.383.682.628.032.016.052.032.06.047 1.125 1.036 1.888 1.91 2.287 2.622.024.04.05.09.078.149.028.059.056.164.084.314a.907.907 0 0 1-.006.403c-.032.119-.132.228-.3.326-.167.1-.403.149-.706.149l-3.066.047c-.191.04-.415.02-.67-.06a2.929 2.929 0 0 1-.623-.26l-.24-.142c-.239-.167-.518-.42-.838-.76-.32-.34-.592-.646-.82-.92a3.952 3.952 0 0 0-.73-.687c-.26-.186-.485-.247-.677-.184a.787.787 0 0 0-.096.041c-.04.02-.108.078-.203.172a1.509 1.509 0 0 0-.258.35 2.417 2.417 0 0 0-.203.617c-.06.273-.086.58-.078.92 0 .118-.014.227-.042.326a.797.797 0 0 1-.09.22l-.048.059c-.144.15-.355.237-.635.26h-1.377a5.49 5.49 0 0 1-1.748-.195 6.72 6.72 0 0 1-1.575-.629 14.378 14.378 0 0 1-1.233-.783 7.102 7.102 0 0 1-.844-.682l-.3-.285a7.84 7.84 0 0 1-.329-.355 26.26 26.26 0 0 1-.856-1.08 29.657 29.657 0 0 1-1.27-1.791 36.248 36.248 0 0 1-1.466-2.504A39.002 39.002 0 0 1 .072 6.402.939.939 0 0 1 0 6.082a.38.38 0 0 1 .036-.19l.048-.072c.12-.15.347-.225.682-.225l3.281-.024c.096.016.188.042.276.077.088.036.152.07.192.101l.06.036a.783.783 0 0 1 .287.38c.16.395.343.804.55 1.227.208.423.372.746.492.967l.191.344c.232.475.455.886.67 1.234.216.348.41.619.582.813.171.193.337.346.496.456.16.111.296.166.408.166a.9.9 0 0 0 .323-.059.205.205 0 0 0 .06-.06c.024-.03.072-.118.144-.26.071-.143.125-.329.161-.558.036-.23.074-.55.114-.96.04-.412.04-.906 0-1.484a5.464 5.464 0 0 0-.108-.866c-.056-.26-.112-.443-.167-.545l-.072-.143c-.2-.269-.54-.439-1.018-.51-.104-.016-.084-.11.06-.285.127-.15.28-.269.455-.356.423-.205 1.377-.3 2.862-.284.654.008 1.193.059 1.616.154.16.04.294.093.401.16.108.067.19.162.246.285.056.122.098.249.126.38.028.13.042.31.042.54 0 .229-.004.446-.012.652l-.03.836c-.012.352-.018.678-.018.979 0 .087-.004.253-.012.498s-.01.435-.006.57c.004.134.018.294.042.48.024.186.07.34.137.463.068.122.158.22.27.29l.203.048c.072.016.176-.028.312-.13.135-.104.287-.24.455-.41.167-.17.375-.435.622-.795.248-.36.52-.785.815-1.275.479-.823.906-1.712 1.281-2.67a.811.811 0 0 1 .12-.207c.048-.06.092-.1.132-.125l.047-.035.06-.03a.64.64 0 0 1 .156-.035.972.972 0 0 1 .24-.006l3.448-.024c.312-.04.567-.03.767.03.2.059.323.124.37.195l.073.119z"/>
</svg>
