<svg xmlns="http://www.w3.org/2000/svg" xmlns:xlink="http://www.w3.org/1999/xlink" width="23" height="23" viewBox="0 0 23 23">
    <defs>
        <path id="a" d="M18.606 6.585c.185.475.313 1.02.348 1.82.04.8.046 1.055.046 3.095s-.012 2.295-.046 3.095c-.035.794-.163 1.345-.348 1.82-.191.493-.446.91-.864 1.327a3.666 3.666 0 0 1-1.327.864c-.475.185-1.02.313-1.82.348-.8.04-1.055.046-3.095.046s-2.295-.012-3.095-.046c-.794-.035-1.345-.163-1.82-.348a3.666 3.666 0 0 1-1.327-.864 3.666 3.666 0 0 1-.864-1.327c-.185-.475-.313-1.02-.348-1.82C4.006 13.795 4 13.54 4 11.5s.012-2.295.046-3.095c.035-.794.163-1.345.348-1.82.191-.493.446-.91.864-1.327a3.666 3.666 0 0 1 1.327-.864c.475-.185 1.02-.313 1.82-.348C9.205 4.006 9.46 4 11.5 4s2.295.012 3.095.046c.794.035 1.345.163 1.82.348.493.191.91.446 1.327.864.418.417.673.834.864 1.327zm-1.523 7.685c.031-.72.042-.943.042-2.77s-.01-2.044-.042-2.77c-.032-.668-.143-1.028-.239-1.271a2.146 2.146 0 0 0-.513-.79 2.123 2.123 0 0 0-.79-.513c-.238-.096-.604-.207-1.27-.239-.721-.037-.944-.042-2.771-.042s-2.044.01-2.77.042c-.668.032-1.028.143-1.271.239-.323.127-.551.275-.79.513a2.123 2.123 0 0 0-.513.79c-.096.238-.207.604-.239 1.27-.037.721-.042.944-.042 2.771s.01 2.044.042 2.77c.032.668.143 1.028.239 1.271.127.323.275.551.513.79.239.238.472.391.79.513.238.096.604.207 1.27.239.721.037.938.042 2.771.042s2.044-.01 2.77-.042c.668-.032 1.028-.143 1.271-.239.323-.127.551-.275.79-.513.238-.239.391-.472.513-.79.096-.238.207-.604.239-1.27zM15.25 8.688a.937.937 0 1 1 0-1.875.937.937 0 0 1 0 1.875zM11.5 7.75c2.07 0 3.75 1.68 3.75 3.75 0 2.07-1.68 3.75-3.75 3.75-2.07 0-3.75-1.68-3.75-3.75 0-2.07 1.68-3.75 3.75-3.75zm0 5.625a1.878 1.878 0 0 0 1.875-1.875 1.875 1.875 0 1 0-1.875 1.875z"/>
    </defs>
    <use fill="#17286F" fill-rule="evenodd" xlink:href="#a"/>
</svg>
