<svg xmlns="http://www.w3.org/2000/svg" width="44" height="34" viewBox="0 0 44 34">
    <g fill="none" fill-rule="evenodd">
        <path fill="#231F20" d="M9.594 32h-.007c-.002.03-.003.061-.002.092a1.073 1.073 0 0 0 1.095 1.05 1.08 1.08 0 0 0 .058-2.156A1.08 1.08 0 0 0 9.593 32zm2.897 0v1.77h-.779v-.434a1.359 1.359 0 0 1-1.122.523 1.869 1.869 0 0 1-1.871-1.867c0-1.03.837-1.867 1.87-1.867a1.36 1.36 0 0 1 1.123.523v-.433h.779V32zm26.278 0a1.073 1.073 0 0 0 1.085 1.143 1.08 1.08 0 0 0 .058-2.156A1.08 1.08 0 0 0 38.77 32zm4.116 1.515v.09h.082a.08.08 0 0 0 .045 0 .036.036 0 0 0 0-.034.035.035 0 0 0 0-.033.075.075 0 0 0-.045 0l-.082-.023zm.082-.063c.035-.002.07.009.098.03.023.019.035.048.034.078a.088.088 0 0 1-.027.067.13.13 0 0 1-.079.034l.11.123h-.087l-.101-.123h-.034v.123h-.07v-.328l.156-.004zm-.022.444a.268.268 0 0 0 .194-.082.276.276 0 0 0 0-.373.27.27 0 0 0-.302-.06.272.272 0 0 0-.09.06.276.276 0 0 0 0 .373.277.277 0 0 0 .09.06.274.274 0 0 0 .12.022h-.012zm0-.63a.373.373 0 0 1 .258.1.348.348 0 0 1-.116.575.354.354 0 0 1-.142.03.375.375 0 0 1-.337-.217.351.351 0 0 1 .079-.388.375.375 0 0 1 .27-.1h-.012zM41.647 32v1.77h-.749v-.434a1.359 1.359 0 0 1-1.122.523 1.869 1.869 0 0 1-1.871-1.867c0-1.03.837-1.867 1.87-1.867a1.36 1.36 0 0 1 1.123.523v-1.866h.749V32zm-19.499-1.18h-.015a.92.92 0 0 0-.95.866h1.87a.886.886 0 0 0-.905-.866zm0-.695l.011.008c1.003 0 1.7.747 1.7 1.867v.298h-2.657c.06.533.535.92 1.07.874a1.707 1.707 0 0 0 1.04-.373l.374.575c-.418.34-.947.513-1.486.485a1.869 1.869 0 0 1-1.896-1.84 1.869 1.869 0 0 1 1.844-1.894zm9.392 1.867a1.073 1.073 0 0 0 1.085 1.142 1.08 1.08 0 0 0 .058-2.156 1.08 1.08 0 0 0-1.143 1.014zm2.896 0v1.777h-.778v-.433a1.36 1.36 0 0 1-1.123.523 1.869 1.869 0 0 1-1.87-1.867c0-1.03.837-1.867 1.87-1.867a1.36 1.36 0 0 1 1.123.523v-.433h.778v1.777zm-7.289 0a1.805 1.805 0 0 0 1.909 1.867c.467.024.926-.128 1.287-.426l-.375-.627a1.574 1.574 0 0 1-.935.321 1.147 1.147 0 0 1 0-2.285c.338.004.666.117.935.321l.375-.627c-.36-.297-.82-.45-1.287-.425a1.806 1.806 0 0 0-1.909 1.866v.015zm10.028-1.867a1.055 1.055 0 0 0-.943.523v-.433h-.77v3.57h.778v-2.002c0-.59.254-.918.748-.918.167-.003.332.028.486.09l.24-.747a1.66 1.66 0 0 0-.554-.097l.015.014zM16.33 30.5a2.681 2.681 0 0 0-1.46-.374c-.905 0-1.496.433-1.496 1.143 0 .582.434.94 1.235 1.053l.374.052c.426.06.628.172.628.373 0 .277-.284.434-.816.434a1.907 1.907 0 0 1-1.19-.374l-.374.605c.454.316.997.478 1.55.463 1.032 0 1.63-.486 1.63-1.165 0-.68-.47-.956-1.249-1.068l-.374-.052c-.337-.045-.606-.112-.606-.35 0-.24.254-.42.68-.42.395.005.782.11 1.123.307l.345-.627zm10.035-.374a1.056 1.056 0 0 0-.943.523v-.433h-.77v3.57h.778v-2.002c0-.59.254-.918.748-.918.166-.003.332.028.486.09l.24-.747a1.66 1.66 0 0 0-.554-.097l.015.014zm-6.638.09h-1.28v-1.083h-.785v1.083h-.711v.71h.726v1.642c0 .829.321 1.322 1.242 1.322.344.001.681-.095.973-.276l-.225-.665a1.44 1.44 0 0 1-.688.202c-.374 0-.517-.24-.517-.598v-1.628h1.272l-.007-.709zm-11.626 3.57v-2.24a1.33 1.33 0 0 0-1.406-1.42 1.386 1.386 0 0 0-1.258.635 1.315 1.315 0 0 0-1.182-.635 1.184 1.184 0 0 0-1.048.53v-.44h-.778v3.57h.786V31.82a.837.837 0 0 1 .875-.949c.517 0 .779.336.779.94V33.8h.785v-1.978a.84.84 0 0 1 .876-.949c.531 0 .786.336.786.94V33.8l.785-.015z"/>
        <path fill="#FF5F00" d="M16.071 24.152h11.787V3.017H16.07z"/>
        <path fill="#EB001B" d="M16.82 13.587a13.408 13.408 0 0 1 5.145-10.57C16.115-1.569 7.647-.557 3.05 5.28c-4.597 5.836-3.582 14.285 2.268 18.872a13.494 13.494 0 0 0 16.647 0 13.407 13.407 0 0 1-5.145-10.565"/>
        <path fill="#F79E1B" d="M43.76 13.587c0 7.422-6.03 13.44-13.47 13.44a13.49 13.49 0 0 1-8.325-2.875c5.85-4.587 6.864-13.036 2.268-18.872a13.488 13.488 0 0 0-2.268-2.263C27.813-1.57 36.282-.559 40.88 5.277a13.421 13.421 0 0 1 2.88 8.306v.004zM43.338 21.912v-.523h-.135l-.157.374-.157-.374h-.12v.523h.097v-.392l.146.34h.101l.146-.34v.396l.079-.004zm-.865 0v-.433h.176v-.09h-.445v.09h.191v.433h.078z"/>
    </g>
</svg>
