<svg xmlns="http://www.w3.org/2000/svg" width="22" height="34" viewBox="0 0 22 34">
    <path fill="#E52713" fill-rule="nonzero" d="M10.66 0c2.26 0 3 1.62 3.56 3.24l6.3 17.24a.34.34 0 0 1-.19.43l-3.43 1.33a.33.33 0 0 1-.42-.2l-1.47-4.09h-8.7l-1.48 4.06a.32.32 0 0 1-.42.2L.99 20.95a.34.34 0 0 1-.19-.43c.22-.6 6-16.42 6.29-17.24C7.66 1.65 8.4 0 10.66 0zM.33 28.77a.33.33 0 0 0-.33.34v3.75a.33.33 0 0 0 .33.34h20.65a.33.33 0 0 0 .33-.34v-3.75a.33.33 0 0 0-.33-.34H.33zM10.66 5.25l-3 8.83h6l-3-8.83z"/>
</svg>
