<svg xmlns="http://www.w3.org/2000/svg" width="15" height="15" viewBox="0 0 15 15">
    <path fill="#4AD9BD" fill-rule="evenodd" d="M5.456 9.393l9.223-2.635A.47.47 0 0 0 15 6.333V1.75H3.25V.333A.334.334 0 0 0 2.917 0H.333A.334.334 0 0 0 0 .333v1.334h1.62l1.64 7.546.157.787v1.25c0 .183.15.333.333.333h10.917c.183 0 .333-.15.333-.333V10H5.627c-.958 0-.978-.377-.171-.607zm5.377 3.94a1.667 1.667 0 1 0 3.334 0 1.667 1.667 0 0 0-3.334 0zm-8.333 0a1.667 1.667 0 1 0 3.334 0 1.667 1.667 0 0 0-3.334 0z"/>
</svg>
