<svg xmlns="http://www.w3.org/2000/svg" width="23" height="23" viewBox="0 0 23 23">
    <path fill="#17286F" fill-rule="evenodd" d="M18.657 7.734c.008.162.01.327.01.49C18.668 13.23 14.954 19 8.162 19c-2.086 0-4.026-.627-5.661-1.702a7.307 7.307 0 0 0 5.467-1.567c-1.616-.032-2.98-1.125-3.45-2.63a3.683 3.683 0 0 0 1.668-.065c-1.69-.35-2.962-1.88-2.962-3.715v-.047a3.615 3.615 0 0 0 1.673.474 3.813 3.813 0 0 1-1.644-3.153c0-.693.182-1.344.501-1.904 1.82 2.293 4.543 3.8 7.612 3.958a3.918 3.918 0 0 1-.095-.864C11.27 5.695 12.922 4 14.962 4c1.062 0 2.022.458 2.696 1.195.84-.17 1.63-.486 2.345-.92a3.786 3.786 0 0 1-1.624 2.096 7.244 7.244 0 0 0 2.121-.596 7.566 7.566 0 0 1-1.843 1.959z"/>
</svg>
