<svg xmlns="http://www.w3.org/2000/svg" width="156" height="33" viewBox="0 0 156 33">
  <g fill="none" fill-rule="evenodd">
    <path fill="#000" fill-rule="nonzero" d="M53.2789787,11.16266 C53.2789787,18.29092 46.1967447,21.60946 39.8123617,21.60946 C33.4138723,21.60946 26.3316383,18.29092 26.3316383,11.16266 C26.3316383,4.0344 33.4138723,0.71504 39.8123617,0.71504 C46.1959149,0.71504 53.2789787,4.0344 53.2789787,11.16266 Z M0.692042553,21.56682 L0.692042553,1.189 L16.5874468,1.189 C20.5289362,1.189 23.5825532,4.15002 23.5825532,8.08766 C23.5825532,11.36438 21.2267872,13.37584 18.3615319,14.48284 L23.7418723,21.56682 L18.3615319,21.56682 L13.2865532,14.48284 L5.50646809,14.48284 L5.50646809,21.56682 L0.692042553,21.56682 Z M79.95,18.23352 C76.6930851,20.30238 72.9117447,21.71032 68.9992979,21.71032 C62.6298511,21.71032 56.3624681,18.01704 56.3624681,11.1192 C56.3624681,4.33616 63.0522128,0.902 69.174383,0.902 C72.6213191,0.902 75.8060426,1.82204 78.9467872,3.14388 L77.3469574,6.8224 C74.7148723,5.68752 72.4752766,4.91098 69.5668723,4.91098 C65.6112766,4.91098 61.1030426,6.67808 61.1030426,11.2053 C61.1030426,15.37336 65.2909787,17.73086 69.0872553,17.73086 C72.5043191,17.73086 75.5728723,16.30734 78.3792128,14.48284 L79.95,18.23352 Z M83.2367872,21.56682 L83.2367872,1.31856 L87.9914681,1.31856 L87.9914681,9.3521 L100.629128,9.3521 L100.629128,1.31856 L105.384638,1.31856 L105.384638,21.56682 L100.629128,21.56682 L100.629128,13.20364 L87.9914681,13.20364 L87.9914681,21.56682 L83.2367872,21.56682 Z M107.63917,21.56682 L116.394255,1.31856 L123.722936,1.31856 L132.492128,21.56682 L127.183979,21.56682 L125.453872,17.3143 L114.794426,17.3143 L112.830319,21.56682 L107.63917,21.56682 Z M133.655489,18.8805 L135.284362,15.20034 C138.150822,16.8457276 141.408248,17.7088455 144.723191,17.70134 C146.264106,17.70134 151.237021,17.60048 151.237021,15.22904 C151.237021,13.67678 149.172511,13.64808 148.067234,13.56198 L142.949106,13.15936 L141.116106,13.0298 C137.698213,12.81414 134.223064,11.37668 134.223064,7.49644 C134.223064,2.09264 141.96,0.8282 146.118894,0.8282 C149.463766,0.8282 152.634383,1.66214 155.644021,3.04138 L154.073234,6.5477 C151.616234,5.3546 148.94017,4.60758 146.191915,4.60758 C144.490021,4.60758 139.007617,4.66498 139.007617,7.12252 C139.007617,9.6514 143.55983,9.12004 145.144723,9.20696 C149.274574,9.43656 155.935277,9.70962 155.935277,15.24216 C155.935277,20.53034 149.376638,21.65128 145.232681,21.65128 C143.239532,21.65128 141.247213,21.49466 139.298043,21.01988 C137.348872,20.54674 135.488489,19.71362 133.655489,18.8805 Z M60.4334043,32.66224 L60.4334043,26.52536 L65.2619362,26.52536 C66.4543404,26.52536 67.3853617,27.41752 67.3853617,28.60898 C67.3853617,29.47244 66.5273617,30.52122 65.6112766,30.52122 L61.9021277,30.52122 L61.9021277,32.66224 L60.4334043,32.66224 Z M66.7887447,32.66224 L69.435766,26.52536 L71.6745319,26.52536 L74.3364894,32.66224 L72.7225532,32.66224 L72.1981277,31.38222 L68.9553191,31.38222 L68.3595319,32.66224 L66.7887447,32.66224 Z M74.9911915,32.66224 L74.9911915,26.52536 L79.8188936,26.52536 C80.9971915,26.52536 81.9564255,27.41752 81.9564255,28.59422 C81.9564255,29.55854 81.2013191,30.18912 80.3715319,30.52122 L82.0004043,32.66224 L80.3715319,32.66224 L78.8297872,30.52122 L76.4599149,30.52122 L76.4599149,32.66224 L74.9911915,32.66224 Z M82.9886809,32.66224 L82.9886809,26.52536 L84.4291915,26.52536 L84.4291915,32.66224 L82.9886809,32.66224 Z M85.4033617,31.84224 L85.8979149,30.73524 C86.7426383,31.23954 87.7458511,31.49784 88.7341277,31.49784 C89.2286809,31.49784 90.7405532,31.5126 90.7405532,30.73524 C90.7405532,29.47162 85.5784468,31.13868 85.5784468,28.40808 C85.5784468,26.74102 87.8454255,26.36628 89.1257872,26.36628 C90.1729787,26.36628 91.1471489,26.5967 92.079,27.04196 L91.599383,28.1055 C90.7845319,27.7324 89.9705106,27.51592 89.0677021,27.51592 C88.5590426,27.51592 87.0172979,27.48722 87.0172979,28.27852 C87.0172979,29.71516 92.1810638,27.91936 92.1810638,30.70654 C92.1810638,32.30308 90.1729787,32.7057 88.9092128,32.7057 C87.7018723,32.7057 86.5816596,32.38836 85.5054255,31.90046 L85.4033617,31.84224 Z"/>
    <path fill="#FFF" fill-rule="nonzero" d="M39.7833191,4.73878 C36.0318511,4.73878 31.2323617,6.82322 31.2323617,11.12002 C31.2323617,15.41682 36.0318511,17.50044 39.7833191,17.50044 C43.5347872,17.50044 48.348383,15.41682 48.348383,11.12002 C48.348383,6.83716 43.5347872,4.73878 39.7833191,4.73878 Z M5.50646809,10.70264 L15.9476809,10.70264 C17.5906596,10.70264 18.6959362,9.50954 18.6959362,7.91464 C18.6959362,6.36238 17.561617,5.01184 15.9476809,5.01184 L5.50646809,5.01184 L5.50646809,10.70264 Z M116.379319,13.49146 L123.839106,13.49146 L120.04366,5.1701 L116.379319,13.49146 Z M61.9021277,29.37076 L65.0727447,29.37076 C65.5672979,29.37076 65.9017021,28.99766 65.9017021,28.5237 C65.9017021,28.03334 65.5672979,27.63154 65.0727447,27.63154 L61.9021277,27.63154 L61.9021277,29.37076 Z M69.435766,30.21864 L71.7044043,30.21864 L70.5551489,27.63154 L69.435766,30.21864 Z M76.4599149,29.37076 L79.6305319,29.37076 C80.1391915,29.37076 80.4735957,28.99766 80.4735957,28.5237 C80.4735957,28.0481 80.1250851,27.63154 79.6305319,27.63154 L76.4599149,27.63154 L76.4599149,29.37076 Z"/>
  </g>
</svg>
