<svg xmlns="http://www.w3.org/2000/svg" width="128" height="74" viewBox="0 0 128 74">
  <path fill="#1A1919" fill-rule="evenodd" d="M17.0659037,63.6196303 L17.0659037,61.3996841 C17.5939601,61.8177906 17.834828,62.2473835 17.834828,62.9518852 C17.5939601,63.29801 17.3299319,63.5124235 17.0659037,63.6196303 Z M17.0659037,55.8616879 L17.0659037,54.1548028 C17.3175797,54.1073255 17.7861912,53.9166506 17.7861912,53.6777326 L17.0659037,52.9380058 L17.0659037,42.7801629 C20.3214795,45.0246135 20.9939022,47.4229825 20.224978,51.1951297 C21.4987983,52.5076471 21.546663,53.5460214 21.0904038,54.4059729 C20.5499952,55.3961042 19.0600115,55.7070039 17.5584476,55.157952 C17.3901489,55.3723655 17.2218502,55.6112835 17.0659037,55.8616879 Z M17.0659037,31.3220549 L17.0659037,28.3386433 C18.0625716,28.0040049 18.8199156,27.4909439 18.8199156,26.7152262 C18.8199156,25.8797791 18.0749238,25.3904567 17.0659037,25.0918092 L17.0659037,24.7694231 C18.1467209,25.0558184 19.2283101,25.5336543 19.2283101,26.4525696 C19.4560538,26.9541442 18.7234141,28.4695887 18.0988562,28.4695887 L18.0988562,28.517066 C19.1318086,29.3410267 20.1894654,30.4628691 18.5072507,31.2271003 C18.0509914,31.3940366 17.5584476,31.3940366 17.0659037,31.3220549 Z M17.0659037,24.7694231 L17.0659037,25.0918092 C16.7416586,24.9960889 16.392709,24.9248729 16.0321793,24.8651434 L16.0321793,24.5550095 C16.3448443,24.614739 16.705374,24.685955 17.0659037,24.7694231 Z M17.0659037,28.3386433 L17.0659037,31.3220549 C16.705374,31.2860641 16.3571965,31.2148481 16.0321793,31.1551186 L16.0321793,28.6127863 C16.392709,28.5415704 16.7416586,28.44585 17.0659037,28.3386433 Z M17.0659037,42.7801629 L17.0659037,52.9380058 L16.957822,52.8300332 L16.3332641,53.3790851 L16.3332641,53.4510668 L16.3571965,53.5460214 L16.957822,54.167055 C16.9817544,54.167055 17.018039,54.167055 17.0659037,54.1548028 L17.0659037,55.8616879 C16.705374,56.422992 16.3571965,57.0555121 16.0321793,57.6880321 L16.0321793,56.9597917 L16.0445315,56.9238009 L16.0445315,53.7612007 L16.0321793,53.7849394 L16.0321793,48.5455906 C16.1047484,48.6290588 16.1888978,48.7240134 16.2846273,48.8197337 C16.3332641,48.8197337 16.3332641,48.8197337 16.3571965,48.8679768 C15.9603821,47.1488394 16.1171006,46.5637967 16.5494275,44.7619569 C16.3687766,45.0483522 16.1888978,45.3224952 16.0321793,45.5974041 L16.0321793,43.2342602 L16.5972923,42.7686765 C16.5494275,42.1951202 16.4050612,41.5511137 16.4050612,40.9783232 L16.0321793,41.1575117 L16.0321793,40.5127394 L16.2846273,40.3932804 L16.0321793,38.1373434 L16.0321793,34.1990256 L17.0535515,42.7686765 L17.0659037,42.7801629 Z M17.0659037,61.3996841 L17.0659037,63.6196303 C16.7293064,63.762828 16.3811288,63.762828 16.0321793,63.6793598 L16.0321793,60.8031549 C16.2128302,60.8628844 16.4050612,60.9463526 16.5972923,61.077298 C16.765591,61.1852706 16.9215374,61.2924773 17.0659037,61.3996841 Z M16.0321793,24.5550095 L16.0321793,24.8651434 C15.6724216,24.8054139 15.2995396,24.7694231 14.9390099,24.7334322 L14.9390099,20.1503422 L15.8646526,20.1503422 L15.828368,20.7828622 L14.9752945,20.7828622 L15.2879594,24.4355505 C15.4801905,24.4707756 15.7442187,24.5067665 16.0321793,24.5550095 Z M16.0321793,28.6127863 L16.0321793,31.1551186 C15.9364498,31.13138 15.828368,31.1191278 15.7318665,31.1076414 L15.6963539,31.3220549 L16.0321793,34.1990256 L16.0321793,38.1373434 L15.2393227,30.9644437 C15.131241,30.9284529 15.0355114,30.892462 14.9390099,30.8564712 L14.9390099,28.7919748 C15.2995396,28.7437318 15.6724216,28.684768 16.0321793,28.6127863 Z M16.0321793,40.5127394 L16.0321793,41.1575117 L14.9390099,41.6583205 L14.9390099,41.014314 L16.0321793,40.5127394 Z M16.0321793,43.2342602 L16.0321793,45.5974041 C15.4678383,46.5875353 15.2153903,47.530955 16.0321793,48.5455906 L16.0321793,53.7849394 L15.5635678,54.2145323 L15.5635678,57.8672206 L16.0321793,56.9597917 L16.0321793,57.6880321 C15.7079341,58.3205521 15.4076214,58.9293335 15.1073086,59.4423945 C14.9992269,59.741042 14.9390099,59.9677078 14.9390099,60.1346441 L14.9390099,58.7861359 L15.1435931,58.4637497 C15.1914579,57.2347005 15.1914579,55.8494357 15.1914579,54.5843957 L14.9390099,54.8118272 L14.9390099,44.1171847 L16.0321793,43.2342602 Z M16.0321793,60.8031549 L16.0321793,63.6793598 C15.6600694,63.5958917 15.2879594,63.4167032 14.9390099,63.2145418 L14.9390099,60.1706349 C14.9513621,60.6722095 15.4439059,60.61248 16.0321793,60.8031549 Z M14.7351987,23.623842 L14.6386971,22.6689359 C14.5908324,22.1558748 14.2187224,21.7974979 13.8458405,21.7025433 L13.8458405,21.4751118 C14.0380716,21.487364 14.2665872,21.5470935 14.5190352,21.6305616 C14.5190352,21.367905 14.4711705,21.0102938 14.4711705,20.7353849 L13.8458405,20.7353849 L13.8458405,20.1503422 L14.4225337,20.1503422 L14.3746689,19.5178222 L13.8458405,19.5178222 L13.8458405,11.7001503 L13.9662744,11.3180347 L14.9274297,20.1503422 L14.9390099,20.1503422 L14.9390099,24.7334322 C14.5669,24.7096936 14.1947901,24.685955 13.8458405,24.6737028 L13.8458405,24.3880732 L14.7830634,24.3880732 L14.7830634,24.0771736 L13.8458405,23.7187966 L13.8458405,23.2654651 L14.7351987,23.623842 Z M14.9390099,28.7919748 L14.9390099,30.8564712 C14.5669,30.7132735 14.2063702,30.5585895 13.8458405,30.3916532 L13.8458405,28.9114338 C14.1947901,28.8754429 14.5545478,28.8394521 14.9390099,28.7919748 Z M14.9390099,41.014314 L14.9390099,41.6583205 L13.8458405,42.1713815 L13.8458405,41.5151229 L14.9390099,41.014314 Z M14.9390099,44.1171847 L14.9390099,54.8118272 L14.7351987,54.9902499 L14.6873339,59.1797379 L14.9390099,58.7861359 L14.9390099,60.1346441 C14.9390099,60.1468963 14.9390099,60.1583827 14.9390099,60.1706349 L14.9390099,63.2145418 C14.5429676,62.9756239 14.1585055,62.7129672 13.8458405,62.5337788 L13.8458405,59.9439691 L14.3268042,59.5741057 L14.3746689,55.3011496 L13.8458405,55.6587608 L13.8458405,45.0001091 L14.9390099,44.1171847 Z M13.8458405,21.7025433 C13.5818123,21.6305616 13.3054319,21.6902911 13.125553,21.9169569 L13.125553,21.5830843 C13.3177841,21.487364 13.5578799,21.4513731 13.8458405,21.4751118 L13.8458405,21.7025433 Z M13.125553,22.9790698 L13.8458405,23.2654651 L13.8458405,23.7187966 L13.7979757,23.695058 C13.689894,23.8864986 13.4019334,24.1131644 13.125553,24.1728939 L13.125553,22.9790698 Z M13.8458405,11.7001503 L13.8458405,19.5178222 L13.125553,19.5178222 L13.125553,13.9438351 L13.8458405,11.7001503 Z M13.125553,20.7353849 L13.8458405,20.7353849 L13.8458405,20.1503422 L13.125553,20.1503422 L13.125553,20.7353849 Z M13.8458405,24.3880732 L13.8458405,24.6737028 C13.5933925,24.6622163 13.3532967,24.6622163 13.125553,24.6622163 L13.125553,24.3880732 L13.8458405,24.3880732 Z M13.8458405,28.9114338 L13.8458405,30.3916532 C13.6057447,30.2721942 13.3656489,30.1642217 13.125553,30.0332762 L13.125553,28.9466589 C13.3532967,28.9466589 13.5933925,28.9229202 13.8458405,28.9114338 Z M13.8458405,41.5151229 L13.8458405,42.1713815 L13.125553,42.4937676 L13.125553,41.837509 L13.8458405,41.5151229 Z M13.8458405,45.0001091 L13.8458405,55.6587608 L13.7979757,59.9914464 L13.8458405,59.9439691 L13.8458405,62.5337788 C13.5455277,62.3668425 13.2938517,62.2596357 13.125553,62.3193652 L13.125553,60.2663553 L13.4258658,60.2181122 C13.4258658,58.7738837 13.377229,57.3296551 13.377229,55.8494357 L13.125553,56.0171378 L13.125553,45.5851519 L13.8458405,45.0001091 Z M13.125553,21.9169569 C12.9688345,22.1076318 12.8970374,22.4300179 12.9688345,22.9078539 L13.125553,22.9790698 L13.125553,24.1728939 C13.0529839,24.1851461 12.9935389,24.1851461 12.9209698,24.1728939 C12.4407781,24.0656871 12.0918286,22.0838931 13.125553,21.5830843 L13.125553,21.9169569 Z M13.125553,13.9438351 L13.125553,19.5178222 L12.2964118,19.5178222 L12.2964118,12.6550564 L12.9209698,14.6000938 L13.125553,13.9438351 Z M12.2964118,20.7353849 L13.125553,20.7353849 L13.125553,20.1503422 L12.2964118,20.1503422 L12.2964118,20.7353849 Z M13.125553,24.3880732 L13.125553,24.6622163 C12.8005359,24.6622163 12.5125753,24.6622163 12.2964118,24.6622163 L12.2964118,24.3880732 L13.125553,24.3880732 Z M13.125553,28.9466589 L13.125553,30.0332762 C12.8491726,29.8900786 12.5727922,29.7231423 12.2964118,29.5676925 L12.2964118,28.9711633 C12.4886429,28.9711633 12.7889557,28.9711633 13.125553,28.9466589 Z M13.125553,41.837509 L13.125553,42.4937676 L12.2964118,42.8881355 L12.2964118,42.2196246 L13.125553,41.837509 Z M13.125553,45.5851519 L13.125553,56.0171378 L12.8368204,56.2078127 L12.8368204,60.3138325 L13.125553,60.2663553 L13.125553,62.3193652 L13.1132008,62.3308516 C12.7650233,62.546031 12.56044,62.5697696 12.2964118,62.4740493 L12.2964118,60.8506322 C12.4044936,60.3973007 12.4647105,59.9677078 12.2964118,59.8245102 L12.2964118,59.5381149 L12.5125753,59.621583 L12.56044,56.3395239 L12.2964118,56.4589829 L12.2964118,44.0099779 L13.0653361,43.9502484 L12.368209,46.2061854 L13.125553,45.5851519 Z M12.2964118,12.6550564 L12.2964118,19.5178222 L11.3476087,19.5178222 L11.3476087,15.090182 L12.1281132,12.1297432 L12.2964118,12.6550564 Z M11.3476087,20.7353849 L12.2964118,20.7353849 L12.2964118,20.1503422 L11.3476087,20.1503422 L11.3476087,20.7353849 Z M12.2964118,24.3880732 L12.2964118,24.6622163 L12.2006823,24.6622163 C12.0439638,24.6622163 11.7436511,24.6499641 11.3476087,24.6384777 L11.3476087,24.3880732 L12.2964118,24.3880732 Z M12.2964118,28.9711633 L12.2964118,29.5676925 C12.1281132,29.7231423 11.7799356,29.9375559 11.3476087,30.1527352 L11.3476087,28.9826497 C11.7197187,28.9826497 12.0439638,28.9711633 12.2964118,28.9711633 Z M12.2964118,42.2196246 L12.2964118,42.8881355 L11.3476087,43.3292148 L11.3476087,42.6607039 L12.2964118,42.2196246 Z M12.2964118,44.0099779 L12.2964118,56.4589829 L12.0323836,56.5661897 L12.0323836,59.4423945 L12.2964118,59.5381149 L12.2964118,59.8245102 C12.2246147,59.7647807 12.1041808,59.7525285 11.9358821,59.8122579 C11.3352566,59.9914464 11.6479215,61.2924773 11.4317581,61.9249974 C11.4070537,62.0084655 11.3715411,62.0804472 11.3476087,62.1401767 L11.3476087,59.7647807 L11.6232171,59.4423945 L11.6232171,56.6611442 L11.3476087,56.7446124 L11.3476087,44.093446 L12.2964118,44.0099779 Z M12.2964118,60.8506322 C12.1404654,61.435675 11.8880173,62.0919336 11.8880173,62.2833743 C12.0439638,62.3668425 12.1759779,62.426572 12.2964118,62.4740493 L12.2964118,60.8506322 Z M11.3476087,24.1606417 L11.3476087,22.9553311 L11.4796228,22.9078539 C11.7197187,22.8121335 11.5753524,22.4185315 11.3476087,22.1321362 L11.3476087,21.6780389 C12.0802484,22.2990725 12.1404654,24.0296963 11.5274876,24.1728939 C11.4672707,24.1728939 11.4070537,24.1728939 11.3476087,24.1606417 Z M11.3476087,15.090182 L11.3476087,19.5178222 L10.6983464,19.5178222 L10.6628339,19.7207493 L10.6628339,17.7274689 L11.3476087,15.090182 Z M10.6628339,20.7353849 L11.3476087,20.7353849 L11.3476087,20.1503422 L10.6628339,20.1503422 L10.6628339,20.7353849 Z M11.3476087,21.6780389 L11.3476087,22.1321362 C11.239527,21.9881728 11.0951607,21.8694796 10.9747268,21.8212365 C10.8666451,21.7737592 10.7585634,21.7737592 10.6628339,21.8097501 L10.6628339,21.4636253 C10.9268621,21.4276345 11.1669579,21.5111026 11.3476087,21.6780389 Z M11.3476087,22.9553311 L11.3476087,24.1606417 C11.1553777,24.1254166 10.9384422,23.9814532 10.6628339,23.7073102 L10.6628339,23.2179878 L11.3476087,22.9553311 Z M11.3476087,24.3880732 L11.3476087,24.6384777 C11.1430255,24.6262255 10.9029297,24.6262255 10.6628339,24.6262255 L10.6628339,24.3880732 L11.3476087,24.3880732 Z M11.3476087,28.9826497 L11.3476087,30.1527352 C11.1314453,30.2484556 10.9029297,30.3556623 10.6628339,30.4628691 L10.6628339,28.9949019 C10.9029297,28.9949019 11.1314453,28.9949019 11.3476087,28.9826497 Z M11.3476087,42.6607039 L11.3476087,43.3292148 L10.6628339,43.6401145 L10.6628339,42.6369653 L10.794848,42.9118741 L11.3476087,42.6607039 Z M11.3476087,44.093446 L11.3476087,56.7446124 L11.0712284,56.8403327 L11.0712284,60.0749146 L11.3476087,59.7647807 L11.3476087,62.1401767 C11.1669579,62.546031 11.0110114,62.6172469 10.6628339,62.5215265 L10.6628339,60.0634281 L10.7469832,60.0749146 L10.7469832,56.8403327 L10.6628339,56.8403327 L10.6628339,47.6259096 L10.8303605,47.5187028 L10.6628339,47.0416326 L10.6628339,44.1531755 L11.3476087,44.093446 Z M10.6628339,17.7274689 L10.6628339,19.7207493 L10.5663323,20.1503422 L10.6628339,20.1503422 L10.6628339,20.7353849 L10.3864535,20.7353849 L10.2660195,21.5830843 C10.3980336,21.5111026 10.5308198,21.4751118 10.6628339,21.4636253 L10.6628339,21.8097501 C10.1340054,21.9644341 9.83369266,23.0510515 9.71325874,23.5281217 L9.71325874,23.5763647 L10.6628339,23.2179878 L10.6628339,23.7073102 L10.6504817,23.695058 L9.59359684,24.0656871 L9.59359684,21.8694796 L9.85762504,20.8188531 L9.59359684,20.8188531 L9.59359684,20.1503422 L10.0259237,20.1503422 L10.6628339,17.7274689 Z M10.6628339,24.3880732 L10.6628339,24.6262255 C10.3262365,24.6262255 9.96570676,24.6384777 9.59359684,24.6622163 L9.59359684,24.3880732 L10.6628339,24.3880732 Z M10.6628339,28.9949019 L10.6628339,30.4628691 C10.3138843,30.618319 9.94177438,30.7492644 9.59359684,30.8687234 L9.59359684,28.9711633 C9.96570676,28.9826497 10.3138843,28.9949019 10.6628339,28.9949019 Z M10.6628339,42.6369653 L10.6628339,43.6401145 L10.5663323,43.6875918 L9.59359684,41.6223296 L9.59359684,40.4767486 L10.6628339,42.6369653 Z M10.6628339,44.1531755 L10.3023041,44.1884006 L9.59359684,42.9356128 L9.59359684,45.2152885 L9.97805896,45.2152885 L10.6628339,47.0416326 L10.6628339,44.1531755 Z M10.6628339,47.6259096 L10.6628339,56.8403327 L10.2660195,56.8403327 C10.2058026,57.8672206 10.2660195,59.0365403 10.2058026,59.9914464 L10.6628339,60.0634281 L10.6628339,62.5215265 C10.4706028,62.4625628 10.2420872,62.3668425 9.92942218,62.2351313 C9.83369266,62.307113 9.72561094,62.3790947 9.59359684,62.4740493 L9.59359684,59.7525285 L9.76189552,59.9914464 L9.80976028,56.8885758 L9.59359684,56.9123144 L9.59359684,48.3181591 L10.6628339,47.6259096 Z M9.11263319,20.8188531 L9.59282483,20.8188531 L9.59282483,20.1503422 L9.11263319,20.1503422 L9.11263319,20.8188531 Z M9.59359684,21.8694796 L9.59359684,24.0656871 L9.56966446,24.0771736 L9.42529816,24.3880732 L9.59359684,24.3880732 L9.59359684,24.6622163 C9.32879663,24.6737028 9.05318824,24.6982072 8.77680784,24.7334322 L8.77680784,24.4232983 C8.83625279,24.4118119 8.90882194,24.3995597 8.96826689,24.3880732 L9.59359684,21.8694796 Z M9.59359684,28.9711633 L9.59359684,30.8687234 C9.30486425,30.9759302 9.02848385,31.0593983 8.77680784,31.1191278 L8.77680784,28.8991816 C9.05318824,28.9351724 9.32879663,28.9589111 9.59359684,28.9711633 Z M9.59359684,40.4767486 L9.59359684,41.6223296 L8.77680784,39.8917058 L8.77680784,38.8173407 L9.59359684,40.4767486 Z M9.59359684,42.9356128 L8.77680784,41.5151229 L8.77680784,45.2152885 L9.59359684,45.2152885 L9.59359684,42.9356128 Z M9.59359684,48.3181591 L9.59359684,56.9123144 L9.42529816,56.9238009 L9.38901358,59.4423945 L9.59359684,59.7525285 L9.59359684,62.4740493 C9.3650812,62.6409855 9.08870081,62.8439127 8.77680784,63.0353534 L8.77680784,60.1821214 C8.80074022,60.1583827 8.8246726,60.1468963 8.84860499,60.1223919 L8.77680784,59.9677078 L8.77680784,58.6904155 L8.93275432,59.0365403 L9.02848385,56.8885758 L8.77680784,56.8640714 L8.77680784,48.8557246 L9.59359684,48.3181591 Z M8.77680784,9.51619492 L8.77680784,8.70448641 C8.87253737,8.96714303 8.86018517,9.2412861 8.77680784,9.51619492 Z M8.77680784,8.70448641 L8.77680784,9.51619492 C8.64402173,10.0170038 8.30819639,10.5185784 8.03181599,10.8999282 L8.03181599,10.2674082 C8.10361313,10.1364628 8.17541027,9.96952647 8.25955961,9.75434714 C8.54829221,9.00236812 8.39157371,8.51304573 8.03181599,8.21516402 L8.03181599,7.77331891 C8.28349199,7.91651655 8.52435983,8.13169588 8.70423869,8.53678437 C8.74052327,8.59651387 8.76445565,8.64475692 8.77680784,8.70448641 Z M8.77680784,24.4232983 L8.77680784,24.7334322 C8.52435983,24.7694231 8.27191181,24.8054139 8.03181599,24.8651434 L8.03181599,24.614739 C8.23562723,24.5427573 8.46414287,24.4830278 8.77680784,24.4232983 Z M8.77680784,28.8991816 L8.77680784,31.1191278 C8.50042745,31.1911095 8.25955961,31.2271003 8.07968075,31.2271003 C8.06732855,31.3220549 8.05574837,31.4177753 8.03181599,31.5134956 L8.03181599,28.7919748 C8.27191181,28.8394521 8.52435983,28.8754429 8.77680784,28.8991816 Z M8.77680784,38.8173407 L8.77680784,39.8917058 L8.03181599,38.3042797 L8.03181599,37.3141484 L8.77680784,38.8173407 Z M8.77680784,41.5151229 L8.77680784,45.2152885 L8.03181599,45.2152885 L8.03181599,43.0902968 L8.76445565,41.479132 L8.77680784,41.5151229 Z M8.77680784,48.8557246 L8.77680784,56.8640714 L8.53594001,56.8403327 L8.58457678,58.2248318 L8.77680784,58.6904155 L8.77680784,59.9677078 C8.53594001,59.4309081 8.28349199,58.8933427 8.03181599,58.356543 L8.03181599,57.2347005 L8.25955961,57.7240229 L8.25955961,56.7928554 L8.03181599,56.7691168 L8.03181599,45.6088905 L8.76445565,48.8679768 L8.77680784,48.8557246 Z M8.77680784,60.1821214 L8.77680784,63.0353534 C8.53594001,63.1900374 8.28349199,63.3332351 8.03181599,63.452694 L8.03181599,60.6362187 C8.31977657,60.4807688 8.58457678,60.3260848 8.77680784,60.1821214 Z M8.03181599,2.99878818 L8.03181599,1.01775995 C8.28349199,1.43586641 8.21169485,2.19933187 8.03181599,2.99878818 Z M8.03181599,1.01775995 L8.03181599,2.99878818 C7.79172017,4.06166687 7.34704109,5.1712571 7.2026748,5.60085 C7.13087765,6.18589274 7.08301289,6.85440361 7.08301289,7.45093279 C7.41883824,7.57039178 7.74308339,7.61786907 8.03181599,7.77331891 L8.03181599,8.21516402 C7.70757083,7.95250739 7.22660718,7.83304841 6.75799572,7.8207962 L6.75799572,6.9493582 C6.7942803,6.5320175 6.81821268,6.11391104 6.81821268,5.69657034 C6.86607744,4.64594385 8.63244155,1.36388471 7.44277062,1.0537508 C7.15481003,0.981769103 6.93864659,1.07748945 6.75799572,1.28041657 L6.75799572,0.83857147 C6.80663249,0.814832824 6.85449726,0.791094179 6.89000982,0.778841975 C7.49063538,0.600419255 7.85116511,0.719112481 8.03181599,1.01775995 Z M8.03181599,10.2674082 L8.03181599,10.8999282 C7.92373427,11.0438916 7.82723273,11.1625848 7.75543559,11.2705574 C7.70757083,11.3180347 7.75543559,11.5806913 7.75543559,11.7238889 L7.85116511,24.6622163 C7.91138207,24.6384777 7.97159903,24.6262255 8.03181599,24.614739 L8.03181599,24.8651434 C7.56320453,24.9608638 7.13087765,25.1040614 6.75799572,25.3069885 L6.75799572,18.4917001 L7.25053956,18.4917001 L7.2026748,14.9224799 L6.75799572,14.9224799 L6.75799572,14.3856802 L7.2026748,14.3856802 L7.2026748,11.7238889 C7.28682413,10.4465967 7.57478472,11.1151075 8.03181599,10.2674082 Z M8.03181599,28.7919748 L8.03181599,31.5134956 C7.76701578,32.754797 7.23895937,33.971594 6.98651136,35.1891568 L8.03181599,37.3141484 L8.03181599,38.3042797 L6.89000982,35.905145 L6.75799572,36.4189718 L6.75799572,28.3738683 C7.11852546,28.565309 7.56320453,28.6962545 8.03181599,28.7919748 Z M8.03181599,43.0902968 L8.03181599,45.2152885 L7.93531445,45.2152885 L8.03181599,45.6088905 L8.03181599,56.7691168 L7.80330035,56.7446124 L8.03181599,57.2347005 L8.03181599,58.356543 C7.74308339,57.7477616 7.466703,57.1512324 7.16639022,56.5661897 C7.02279593,56.5064602 6.89000982,56.4344785 6.75799572,56.374749 L6.75799572,39.271438 L7.65893406,43.9020053 L8.03181599,43.0902968 Z M8.03181599,60.6362187 L8.03181599,63.452694 C7.5987171,63.6556212 7.15481003,63.7873324 6.75799572,63.7276029 L6.75799572,61.4119363 C7.15481003,61.1132889 7.61106929,60.8628844 8.03181599,60.6362187 Z M6.75799572,9.37223153 L6.75799572,9.11034067 C6.7942803,9.09808846 6.83056487,9.07434982 6.86607744,9.06209762 C7.03437612,8.93115219 6.96257898,9.15781796 6.75799572,9.37223153 Z M6.75799572,0.83857147 L6.75799572,1.28041657 C6.50631972,1.59055049 6.33802104,2.13960238 6.21758712,2.78437461 L6.21758712,1.61428913 C6.36195342,1.26816437 6.54183228,0.970282662 6.75799572,0.83857147 Z M6.75799572,6.9493582 L6.75799572,7.8207962 C6.57811686,7.80930976 6.3858858,7.8207962 6.21758712,7.84453485 L6.21758712,7.463185 C6.398238,7.43944635 6.56576466,7.43944635 6.72248315,7.45093279 C6.73406334,7.28399652 6.74641554,7.11706024 6.75799572,6.9493582 Z M6.75799572,9.11034067 L6.75799572,9.37223153 C6.62598162,9.52768137 6.42139836,9.6831312 6.21758712,9.71912205 L6.21758712,9.22903389 C6.40981818,9.21754745 6.60204924,9.17007016 6.75799572,9.11034067 Z M6.75799572,14.3856802 L6.75799572,14.9224799 L6.26545188,14.9224799 L6.26545188,18.4917001 L6.75799572,18.4917001 L6.75799572,25.3069885 C6.55418448,25.4141953 6.36195342,25.557393 6.21758712,25.7128428 L6.21758712,14.3856802 L6.75799572,14.3856802 Z M6.75799572,28.3738683 L6.75799572,36.4189718 L6.44610276,37.648021 L6.75799572,39.271438 L6.75799572,56.374749 C6.57811686,56.2797944 6.398238,56.184074 6.21758712,56.0768673 L6.21758712,27.9917527 C6.36195342,28.1357161 6.55418448,28.2666616 6.75799572,28.3738683 Z M6.75799572,61.4119363 L6.75799572,63.7276029 C6.56576466,63.691612 6.3735336,63.6081439 6.21758712,63.4649463 L6.21758712,61.9249974 C6.36195342,61.7458089 6.54183228,61.5673862 6.75799572,61.4119363 Z M6.21758712,13.3832968 L6.21758712,11.8793388 C6.21758712,11.9030774 6.21758712,11.9268161 6.21758712,11.9628069 C6.21758712,12.4398771 6.21758712,12.9054608 6.21758712,13.3832968 Z M6.21758712,1.61428913 L6.21758712,2.78437461 C5.90492215,4.28833265 5.77290805,6.25710867 4.90825429,6.49602665 C4.83568513,6.51976529 4.76388799,6.5320175 4.70367103,6.55575614 L4.70367103,6.24562223 C5.72504328,5.60085 5.44866289,3.96594653 5.85705738,2.72464512 C5.94120672,2.402259 6.06164064,1.98415254 6.21758712,1.61428913 Z M6.21758712,7.463185 L6.21758712,7.84453485 C5.78526024,7.90426434 5.44866289,8.04746198 5.36451355,8.21516402 C5.00398381,9.01462033 5.60460937,9.26502474 6.21758712,9.22903389 L6.21758712,9.71912205 C6.1218576,9.7428607 6.02535606,9.73060849 5.94120672,9.70686985 C5.94120672,9.87380613 5.71269109,10.3753807 5.22091926,10.2919126 C5.22091926,10.8049736 5.01633601,11.0676303 4.70367103,11.0913689 L4.70367103,10.6855146 C4.81175275,10.6380374 4.88432191,10.4948397 4.81175275,10.2436695 C4.77624019,10.2321831 4.73995561,10.2084444 4.70367103,10.1724536 L4.70367103,9.55142001 C4.86038953,9.70686985 5.01633601,9.82632884 5.17228249,9.92204918 C5.22091926,9.96952647 5.4370827,9.75434714 5.4370827,9.65939256 C5.38844593,9.46795187 5.17228249,9.37223153 5.13599791,9.30101559 C4.54772455,7.99998468 5.41237831,7.55813958 6.21758712,7.463185 Z M6.21758712,11.8793388 L6.21758712,13.3832968 C6.20523492,13.7171694 6.19365474,14.0518077 6.16972236,14.3856802 L6.21758712,14.3856802 L6.21758712,25.7128428 C5.9651391,25.9632472 5.80919262,26.2611289 5.77290805,26.6432445 C5.7011109,27.2160351 5.88098977,27.6578802 6.21758712,27.9917527 L6.21758712,56.0768673 C5.68875871,55.7782198 5.18463468,55.432095 4.70367103,55.0499794 L4.70367103,40.5487303 L5.85705738,37.6005437 L6.08557302,36.8600511 L6.08557302,31.2745776 C6.08557302,31.13138 5.36451355,31.2271003 5.22091926,30.4628691 C5.08813315,30.021024 5.53281223,29.4244948 5.98907148,28.9229202 L6.03770826,28.9229202 L6.03770826,28.2069321 C5.08813315,27.5866642 5.13599791,26.189913 5.89334196,25.4976635 L5.82077281,11.9628069 C5.34058117,12.2254635 4.99240363,12.2729408 4.70367103,12.1297432 L4.70367103,11.6878981 C4.95611905,11.8548344 5.48494746,11.7836184 5.67717852,11.5094754 C5.8454772,11.1985757 6.13343778,11.3900164 6.21758712,11.8793388 Z M6.21758712,61.9249974 L6.21758712,63.4649463 C6.16972236,63.4289554 6.1218576,63.3814781 6.08557302,63.3217486 C5.79684043,62.7726967 5.90492215,62.3193652 6.21758712,61.9249974 Z M4.70367103,6.24562223 L4.70367103,6.55575614 C4.57165693,6.6039992 4.46357521,6.66296293 4.36784569,6.73494463 L4.36784569,6.40107207 C4.48750759,6.35282901 4.60794151,6.30535172 4.70367103,6.24562223 Z M4.70367103,9.55142001 L4.70367103,10.1724536 C4.58400913,10.0767333 4.46357521,9.95727427 4.36784569,9.83858104 L4.36784569,9.12182711 C4.46357521,9.27727695 4.58400913,9.43196102 4.70367103,9.55142001 Z M4.70367103,10.6855146 L4.70367103,11.0913689 C4.69209085,11.0913689 4.67973865,11.0913689 4.66738645,11.0913689 C4.49985979,11.3777642 4.55930473,11.5806913 4.70367103,11.6878981 L4.70367103,12.1297432 C4.58400913,12.0700137 4.47592741,11.9865455 4.36784569,11.8670866 L4.36784569,10.5660557 C4.47592741,10.661776 4.57165693,10.7092533 4.64422609,10.6977668 C4.66738645,10.6977668 4.67973865,10.6977668 4.70367103,10.6855146 Z M4.70367103,40.5487303 L4.70367103,55.0499794 C4.59558931,54.9665113 4.47592741,54.8707909 4.36784569,54.7758364 L4.36784569,41.4194025 L4.70367103,40.5487303 Z M4.36784569,6.40107207 L4.36784569,6.73494463 C4.21112719,6.84215141 4.09146529,6.9738626 4.01889614,7.12854668 L4.01889614,6.50827885 C4.06753291,6.48454021 4.11539767,6.472288 4.17561463,6.44854936 C4.23505958,6.43629715 4.30762873,6.42481071 4.36784569,6.40107207 Z M4.36784569,9.12182711 L4.36784569,9.83858104 C4.23505958,9.670879 4.11539767,9.49169052 4.01889614,9.3132678 L4.01889614,8.42957759 C4.10304547,8.66849556 4.22347939,8.90741354 4.36784569,9.12182711 Z M4.36784569,10.5660557 L4.36784569,11.8670866 C4.29527653,11.7836184 4.21112719,11.6878981 4.13933005,11.5806913 C4.09146529,11.5806913 4.05518071,11.5806913 4.01889614,11.5806913 L4.01889614,11.174837 L4.04282852,11.1870892 C4.13933005,11.0913689 4.13933005,11.0438916 4.13933005,10.9596577 C4.10304547,10.9359191 4.05518071,10.9121804 4.01889614,10.8884418 L4.01889614,10.1961922 C4.13933005,10.3516421 4.25976397,10.4711011 4.36784569,10.5660557 Z M4.36784569,41.4194025 L4.36784569,54.7758364 C4.24741177,54.680116 4.12697786,54.5843957 4.01889614,54.4771889 L4.01889614,42.3145792 L4.36784569,41.4194025 Z M4.01889614,6.50827885 L4.01889614,7.12854668 C3.82666508,7.49841009 3.85059746,7.97624604 4.01889614,8.42957759 L4.01889614,9.3132678 C3.85059746,9.03835897 3.70700317,8.7519637 3.55028468,8.53678437 C3.27390428,8.29863216 3.27390428,8.60876607 3.27390428,8.83543184 C3.27390428,9.13407931 3.64678622,9.75434714 4.01889614,10.1961922 L4.01889614,10.8884418 C3.68307079,10.661776 3.34647344,10.1602014 3.14189018,9.82632884 C2.94965912,9.82632884 3.04616066,10.2084444 3.04616066,10.2919126 C3.09402542,10.8999282 3.5263523,11.0791167 4.01889614,11.174837 L4.01889614,11.5806913 C2.75742806,11.4734845 2.55361682,9.7428607 2.82999722,9.46795187 C3.00987608,9.36074509 3.09402542,9.38448373 3.13031,9.40822238 C3.1179578,9.39673594 3.10637762,9.37223153 3.09402542,9.32475424 C2.73349568,8.11944367 3.49083973,8.16692096 3.49083973,7.94025519 C3.49083973,7.48692364 3.45455516,6.77093547 4.01889614,6.50827885 Z M4.01889614,42.3145792 L4.01889614,54.4771889 C2.78213246,53.415076 1.67661087,52.1615223 0.631306233,50.9799504 L4.01889614,42.3145792 Z M122.243313,63.3454873 L122.171516,24.6737028 L128.057338,24.7456844 L128.082042,63.3692259 L122.243313,63.3454873 M117.473821,63.2260283 L111.659797,63.2022896 L111.671377,30.3556623 L108.259855,30.3556623 L108.259855,24.6384777 L120.837479,24.6622163 L120.981845,30.4153918 L117.486174,30.4153918 L117.473821,63.2260283 M98.1441778,63.3094964 L98.2043948,30.3434101 L94.7442357,30.2959328 L94.7203034,24.5787482 L107.526443,24.6262255 L107.526443,30.3434101 L103.970555,30.4153918 L103.935042,63.2620191 L98.1441778,63.3094964 M67.8944205,63.1662988 L67.8944205,24.6737028 L74.1052593,24.6982072 L74.1176115,57.7715002 L78.4061398,57.7715002 L78.3343426,63.1662988 L67.8944205,63.1662988 M30.8694834,43.0902968 C31.7341371,43.0428195 32.3471149,42.828406 32.3471149,42.0044453 L32.3471149,31.4292617 C32.3347627,30.49886 32.3471149,30.4506169 31.7464893,30.4391305 L30.8694834,30.4391305 L30.8694834,24.8414048 C32.3471149,24.8414048 33.8363266,24.8414048 35.3023779,24.8414048 C37.7890295,24.8528912 38.1611394,26.8821625 38.1734916,28.4818409 C38.197424,33.8406486 38.1611394,39.1159882 38.1734916,44.4510572 C38.197424,45.3462339 37.1644715,45.6088905 36.5754262,45.6808722 C37.1644715,45.7758268 38.0175451,46.6235261 38.0051929,47.3755052 C38.0051929,51.5290023 38.0893423,55.8142106 37.9928407,59.9677078 C37.9928407,61.4241885 36.5877784,63.2382805 35.181944,63.2260283 L30.8694834,63.2382805 L30.8694834,57.5923117 C31.7464893,57.5563209 32.4065598,57.3893846 32.4065598,56.7691168 L32.4065598,48.8557246 C32.3826275,48.1872137 32.4065598,48.1397364 31.7943541,48.115232 L30.8694834,48.1274842 L30.8694834,43.0902968 Z M29.3794997,43.0902968 C29.9083281,43.0902968 30.4248043,43.1148012 30.8694834,43.0902968 L30.8694834,48.1274842 L29.4397166,48.1397364 L29.4157842,57.5923117 C29.9199083,57.5923117 30.4248043,57.6045639 30.8694834,57.5923117 L30.8694834,63.2382805 L23.6372723,63.2620191 L23.7090694,24.8414048 C26.0637069,24.8414048 28.4662091,24.8414048 30.8694834,24.8414048 L30.8694834,30.4391305 L29.403432,30.4391305 L29.3794997,43.0902968 Z M47.12343,24.7816753 L47.1110778,63.2260283 L41.0446053,63.2260283 L41.0446053,24.6982072 L47.12343,24.7816753 M59.0046991,47.6381618 L59.0046991,31.3940366 C59.0046991,30.6060668 58.4040735,30.0095376 57.6590816,30.0095376 L57.6351493,30.0095376 L57.6351493,23.7310488 C57.6590816,23.7310488 57.6706618,23.7310488 57.6953662,23.7310488 C61.7314464,23.7310488 65.0472392,27.7536005 65.0472392,32.635338 L65.0472392,63.1425601 L59.0525638,63.1303079 L59.0525638,53.3316078 L57.6351493,53.3316078 L57.6351493,47.6381618 L59.0046991,47.6381618 Z M57.6351493,30.0095376 C56.9025096,30.0095376 56.2771797,30.618319 56.2771797,31.3940366 L56.2771797,47.6381618 L57.6351493,47.6381618 L57.6351493,53.3316078 L56.2293149,53.3316078 L56.2293149,63.1303079 L50.3666536,63.1425601 L50.3666536,32.635338 C50.3666536,27.7773392 53.6222294,23.7670397 57.6351493,23.7310488 L57.6351493,30.0095376 Z M87.6208784,40.775396 L87.6208784,31.7998909 C87.6208784,30.8449847 86.9955484,30.0807535 86.215044,30.0807535 L86.215044,24.3398302 C90.1677469,24.3398302 93.3986183,27.4672053 93.3986183,31.2860641 L93.3986183,46.9099214 L86.215044,46.9099214 L86.215044,40.775396 L87.6208784,40.775396 Z M86.215044,64.0614754 L86.215044,58.511227 C86.2266242,58.511227 86.2513286,58.511227 86.2629088,58.511227 C87.0681176,58.511227 87.7289601,57.7117707 87.7289601,56.7331259 L87.7289601,50.2999531 L93.3986183,50.2999531 L93.3986183,57.1627188 C93.3986183,61.7580611 89.8072172,64.0614754 86.215044,64.0614754 Z M86.215044,30.0807535 L86.2026918,30.0807535 C85.4221874,30.0807535 84.7976295,30.8327325 84.7976295,31.7998909 L84.7976295,40.775396 L86.215044,40.775396 L86.215044,46.9099214 L84.7736971,46.9099214 L84.7736971,50.2999531 L84.7976295,56.7331259 C84.7976295,57.6880321 85.4337676,58.476002 86.215044,58.511227 L86.215044,64.0614754 C82.6112907,64.0614754 79.0191175,61.7695475 79.0191175,57.1627188 L79.0191175,31.2860641 C79.0191175,27.4672053 82.2384087,24.3398302 86.2026918,24.3398302 L86.215044,24.3398302 L86.215044,30.0807535 Z M12.2361949,73.9681481 C10.5547521,73.9681481 9.20913472,73.6695006 8.21169485,73.0729714 C7.21425498,72.4764423 6.72248315,71.6409951 6.72248315,70.5781164 C6.73406334,69.5519943 7.22660718,68.7165472 8.22404705,68.1077658 C9.22071491,67.4989844 10.5663323,67.1888505 12.2601273,67.2003369 C12.7048063,67.2003369 13.1132008,67.2125891 13.4737306,67.2363278 C13.8342603,67.2723186 14.1708577,67.3083095 14.506683,67.368039 C14.759131,67.4032641 15.0355114,67.4752458 15.3474044,67.5472275 C15.6484892,67.6184434 15.888585,67.6896593 16.0808161,67.7379024 L16.0684639,69.2778513 L15.7920835,69.2778513 C15.6484892,69.2058696 15.4801905,69.1224014 15.2756073,69.0266811 C15.071796,68.9309607 14.8309282,68.8360062 14.5669,68.7402858 C14.314452,68.6568177 14.0141392,68.5733495 13.7022462,68.51362 C13.3895812,68.4424041 13.0653361,68.4064133 12.7171585,68.4064133 C12.308764,68.4064133 11.9358821,68.4424041 11.6000568,68.51362 C11.2511072,68.5970882 10.9268621,68.7165472 10.6265493,68.9072221 C10.3385887,69.0749241 10.1100731,69.3015899 9.92942218,69.5879852 C9.74954332,69.8621282 9.65304179,70.208253 9.65304179,70.5903686 C9.65304179,70.9962229 9.74954332,71.3300954 9.92942218,71.6172565 C10.1216532,71.8913995 10.3625211,72.1180653 10.674414,72.2850016 C10.9631466,72.4527036 11.2873918,72.5713968 11.6479215,72.6433785 C12.0076793,72.7145945 12.368209,72.7505853 12.7171585,72.7505853 C13.1016207,72.7505853 13.4497982,72.7268467 13.7863956,72.6556307 C14.1222209,72.5836491 14.4109535,72.5001809 14.6510493,72.4167128 C14.9034973,72.3332446 15.1196608,72.2375243 15.3118918,72.1418039 C15.5041229,72.0583358 15.6724216,71.9748677 15.8160158,71.902886 L16.0684639,71.902886 L16.0684639,73.4190962 C15.8646526,73.4788257 15.6237848,73.5385552 15.3474044,73.6097711 C15.071796,73.6817528 14.7954156,73.7414823 14.506683,73.7889596 C14.1461533,73.8486891 13.8219081,73.8961664 13.5100152,73.9206708 C13.2097024,73.9558959 12.7773755,73.9681481 12.2361949,73.9681481 M23.3971765,67.3557868 L24.9828897,67.3557868 L28.7788741,73.8486891 L25.9077604,73.8364369 L25.2106333,72.5361718 L23.3971765,72.5361718 L23.3971765,71.3423476 L24.5860754,71.3423476 L23.3971765,69.1346536 L23.3971765,69.1461401 L23.3971765,67.3557868 Z M18.087276,73.8249505 L21.8948406,67.3435346 L23.3971765,67.3557868 L23.3971765,69.1461401 L22.2075055,71.3423476 L23.3971765,71.3423476 L23.3971765,72.5361718 L21.5705954,72.5239196 L20.8858205,73.8364369 L18.087276,73.8249505 Z M34.9418482,73.9681481 C34.0887746,73.9681481 33.3322026,73.9206708 32.6829402,73.8249505 C32.0228697,73.7177437 31.4214722,73.5982847 30.8571312,73.4550871 L30.8571312,71.9151382 L31.1211594,71.9151382 C31.6862724,72.190047 32.3108303,72.4044606 32.983253,72.5476582 C33.6680279,72.703108 34.3288704,72.774324 34.9657806,72.774324 C35.121727,72.774324 35.3378905,72.7628375 35.6026907,72.7505853 C35.8667189,72.7268467 36.0828823,72.703108 36.2388288,72.6556307 C36.4434121,72.6073877 36.5993585,72.5361718 36.7437248,72.4527036 C36.8757389,72.3684697 36.9475361,72.2497765 36.9475361,72.1058131 C36.9475361,71.9388768 36.8394544,71.8079314 36.6117107,71.7007246 C36.3955473,71.6050043 36.1307471,71.5215361 35.8188541,71.4732931 C35.434392,71.4258158 35.0259975,71.3660863 34.5928986,71.318609 C34.1605717,71.2588795 33.7521772,71.19915 33.3677151,71.1156819 C32.5030614,70.9364934 31.8785034,70.6975754 31.4940413,70.3996937 C31.1211594,70.1010462 30.9412805,69.7311828 30.9412805,69.2778513 C30.9412805,68.6568177 31.3859596,68.1797475 32.2745457,67.7976319 C33.1639039,67.4277685 34.2810057,67.2363278 35.6142709,67.2363278 C36.2874656,67.24858 36.9598883,67.2845708 37.6207308,67.368039 C38.2815733,67.4392549 38.8698467,67.5472275 39.3986751,67.6896593 L39.3986751,69.1698787 L39.1462271,69.1698787 C38.7262524,68.9669516 38.2213564,68.7877631 37.6083786,68.6445655 C37.007753,68.5013678 36.3955473,68.4301519 35.7586372,68.4301519 C35.5185414,68.4301519 35.2900257,68.4424041 35.0977947,68.465377 C34.8939834,68.4898814 34.6894002,68.51362 34.4732367,68.5733495 C34.2933579,68.6208268 34.1489916,68.6928085 34.0162054,68.7877631 C33.8849634,68.871997 33.8247464,68.9669516 33.8247464,69.0864106 C33.8247464,69.2533469 33.9204759,69.3850581 34.1250592,69.4800126 C34.3288704,69.575733 34.7256847,69.6592011 35.3139581,69.7426693 C35.68684,69.8023988 36.0465978,69.8383896 36.4071275,69.8858669 C36.7437248,69.9341099 37.128187,70.0053259 37.5242293,70.0773076 C38.3055057,70.2442439 38.8821989,70.4709096 39.266661,70.7458185 C39.6387709,71.0199615 39.831002,71.3898249 39.831002,71.83167 C39.831002,72.4764423 39.3863229,73.0009897 38.510089,73.3831054 C37.632311,73.7774732 36.4434121,73.9804003 34.9418482,73.9681481 M46.9674835,67.3917776 L48.5531968,67.4032641 L52.3491812,73.8961664 L49.4657153,73.88468 L48.7809404,72.5836491 L46.9674835,72.5836491 L46.9674835,71.3898249 L48.1563824,71.3898249 L46.9674835,69.1821309 L46.9674835,67.3917776 Z M41.6452308,73.8724278 L45.4659196,67.3917776 L46.9674835,67.3917776 L46.9674835,69.1821309 L45.7778126,71.3898249 L46.9674835,71.3898249 L46.9674835,72.5836491 L45.1409025,72.5713968 L44.4445474,73.8724278 L41.6452308,73.8724278 Z M57.6475015,73.9084186 L54.9562666,73.8961664 L54.9678468,72.1777948 L57.6475015,72.1777948 L57.6475015,73.9084186 M67.0413469,73.9206708 L60.9988068,73.9084186 L60.9988068,72.7865762 L62.6208046,72.7865762 L62.6208046,68.5496109 L60.9988068,68.5496109 L60.9988068,67.4277685 L67.0536991,67.4392549 L67.0536991,68.5610973 L65.4440535,68.5610973 L65.4317013,72.7980626 L67.0413469,72.7980626 L67.0413469,73.9206708 M72.6639124,73.9321572 L72.6762646,68.6568177 L69.3365395,68.6568177 L69.3481196,67.4392549 L78.8268865,67.4629936 L78.8268865,68.6683041 L75.4987415,68.6683041 L75.4871613,73.9444095 L72.6639124,73.9321572 M85.6622832,67.4752458 L87.2479965,67.4752458 L91.0447529,73.9681481 L88.1728672,73.9681481 L87.4765121,72.6556307 L85.6622832,72.6556307 L85.6622832,71.4618066 L86.8519542,71.4732931 L85.6622832,69.2533469 L85.6622832,69.2655991 L85.6622832,67.4752458 Z M80.3523827,73.9558959 L84.1730715,67.4752458 L85.6622832,67.4752458 L85.6622832,69.2655991 L84.4733843,71.4618066 L85.6622832,71.4618066 L85.6622832,72.6556307 L83.8364742,72.6556307 L83.1516993,73.9558959 L80.3523827,73.9558959 Z M101.255387,73.9918867 L93.7236355,73.9804003 L93.7352157,67.487498 L96.5584646,67.4989844 L96.5468844,72.7628375 L101.255387,72.774324 L101.255387,73.9918867 M109.785351,74.0041389 L103.718879,73.9918867 L103.718879,72.8700443 L105.340104,72.8700443 L105.352457,68.633079 L103.730459,68.633079 L103.730459,67.5112366 L109.797703,67.5227231 L109.797703,68.6445655 L108.175705,68.6445655 L108.163353,72.8822965 L109.785351,72.8822965 L109.785351,74.0041389 M117.341807,67.5349753 L118.939873,67.5472275 L122.723505,74.0278776 L119.852391,74.0278776 L119.167616,72.7268467 L117.341807,72.7268467 L117.341807,71.5330226 L118.531478,71.5330226 L117.341807,69.3253286 L117.341807,67.5349753 Z M112.031907,74.0156254 L115.851824,67.5349753 L117.341807,67.5349753 L117.341807,69.3253286 L116.152136,71.5215361 L117.341807,71.5330226 L117.341807,72.7268467 L115.527578,72.7145945 L114.831223,74.0156254 L112.031907,74.0156254 Z M5.12441773,66.9139417 C5.47259527,66.9139417 5.80919262,66.9974098 6.14578998,67.1765983 C6.48161532,67.3557868 6.74641554,67.6061912 6.9262944,67.9408295 C7.11852546,68.2747021 7.21425498,68.633079 7.21425498,68.9906902 C7.21425498,69.3490672 7.11852546,69.695192 6.93864659,70.0175781 C6.74641554,70.3514506 6.49396752,70.6141073 6.15737016,70.7932957 C5.833125,70.9724842 5.48494746,71.0674388 5.12441773,71.0674388 L5.11206553,71.0674388 L5.11206553,70.721314 L5.12441773,70.721314 C5.42473051,70.721314 5.71269109,70.6500981 5.98907148,70.4946483 C6.26545188,70.3399642 6.48161532,70.1247849 6.63833382,69.8506418 C6.7819281,69.575733 6.86607744,69.2893377 6.86607744,68.9906902 C6.86607744,68.6928085 6.7819281,68.3941611 6.62598162,68.120018 C6.47003514,67.8451092 6.2538717,67.6299298 5.9774913,67.4752458 C5.7011109,67.3320481 5.41237831,67.24858 5.12441773,67.24858 L5.11206553,67.24858 L5.11206553,66.9139417 L5.12441773,66.9139417 Z M5.11206553,69.3015899 L5.11206553,68.871997 C5.26878402,68.871997 5.37686574,68.8360062 5.4370827,68.7877631 C5.50887984,68.7280336 5.55674461,68.6445655 5.55674461,68.5373587 C5.55674461,68.465377 5.53281223,68.4178997 5.49652765,68.3581702 C5.46101508,68.3106929 5.41237831,68.2632156 5.34058117,68.239477 C5.2927164,68.2272248 5.22091926,68.2149726 5.11206553,68.2034861 L5.11206553,67.9048387 C5.30429659,67.9048387 5.44866289,67.9285773 5.54516442,67.9645682 C5.66482633,68.000559 5.76132786,68.0717749 5.833125,68.1797475 C5.90492215,68.2869543 5.94120672,68.3941611 5.94120672,68.5013678 C5.94120672,68.6683041 5.88098977,68.8122675 5.76132786,68.9309607 C5.64089394,69.0504197 5.48494746,69.1224014 5.2927164,69.1346536 C5.37686574,69.1698787 5.4370827,69.2058696 5.48494746,69.2533469 C5.58067699,69.3490672 5.68875871,69.4922648 5.82077281,69.7074442 L6.0971532,70.1370371 L5.65324614,70.1370371 L5.44866289,69.7909123 C5.31664879,69.5519943 5.20856707,69.3965445 5.11206553,69.3015899 Z M5.11206553,71.0674388 C4.75230781,71.0674388 4.40335825,70.9724842 4.07911309,70.7932957 C3.74251574,70.6141073 3.49083973,70.3514506 3.29860867,70.0175781 C3.1179578,69.695192 3.02222828,69.3490672 3.02222828,68.9906902 C3.02222828,68.633079 3.1179578,68.2747021 3.31018886,67.9408295 C3.49083973,67.6061912 3.75486793,67.3557868 4.09146529,67.1765983 C4.42806265,66.9974098 4.76388799,66.9139417 5.11206553,66.9139417 L5.11206553,67.24858 C4.82410495,67.24858 4.53614437,67.3320481 4.25976397,67.4752458 C3.98338357,67.6299298 3.76644812,67.8451092 3.61050164,68.120018 C3.45455516,68.3941611 3.37040582,68.6928085 3.37040582,68.9906902 C3.37040582,69.2893377 3.44220296,69.575733 3.59892145,69.8506418 C3.75486793,70.1247849 3.97103137,70.3399642 4.24741177,70.4946483 C4.52379217,70.6500981 4.81175275,70.721314 5.11206553,70.721314 L5.11206553,71.0674388 Z M5.11206553,67.9048387 C5.07655297,67.9048387 5.02791619,67.9048387 4.98005143,67.9048387 L4.19954701,67.9048387 L4.19954701,70.1370371 L4.55930473,70.1370371 L4.55930473,69.1936174 L4.77624019,69.1936174 C4.90825429,69.1936174 5.00398381,69.2181218 5.06420077,69.2655991 C5.08813315,69.2778513 5.10048535,69.2893377 5.11206553,69.3015899 L5.11206553,68.871997 C5.08813315,68.8834835 5.04026839,68.8834835 5.00398381,68.8834835 L4.55930473,68.8834835 L4.55930473,68.2034861 L4.98005143,68.2034861 C5.02791619,68.2034861 5.07655297,68.2034861 5.11206553,68.2034861 L5.11206553,67.9048387 Z M128.021825,74.0401298 L125.342943,74.0401298 L125.342943,72.3209924 L128.034177,72.3209924 L128.021825,74.0401298" transform="translate(-.6 -.4)"/>
</svg>
