<svg xmlns="http://www.w3.org/2000/svg" width="161" height="18" viewBox="0 0 161 18">
  <g fill="none" fill-rule="evenodd">
    <path fill="#009CCD" d="M16.4229981,3.96 C18.0389362,6.38742857 18.4429207,9.94628571 17.1505126,12.6154286 C15.938559,15.6085714 12.8684478,17.7128571 9.71788201,17.9554286 C6.4877176,18.2785714 3.74113636,16.8222857 1.72121373,14.3965714 C-0.297852998,11.8868571 -0.540072534,7.60028571 0.994555126,4.76914286 C2.48809961,2.02714286 5.08318665,0.389142857 8.00608317,0.0771428571 L10.0833511,0.0771428571 C10.2844874,0.0985714286 10.4856238,0.124285714 10.6876161,0.157714286 C12.9497582,0.724285714 15.0501354,2.01857143 16.4229981,3.96"/>
    <path fill="#1A1919" d="M43.2417505,12.6968571 L48.0887089,12.7774286 L47.2807398,16.8222857 L37.4259139,16.8222857 L40.8991538,1.12885714 L45.7452563,1.12885714 L43.2417505,12.6968571 M70.3027224,11.5637143 C70.383177,11.9691429 70.4636315,12.2922857 70.7058511,12.6154286 C71.5138201,13.3431429 72.8875387,13.1828571 73.7759623,12.7774286 C74.6643859,12.2117143 74.8261509,11.3211429 75.0683704,10.4322857 L77.0069826,1.12885714 L81.9343956,1.12885714 L79.5917988,12.4542857 C79.1878143,13.9911429 77.8954062,15.528 76.442089,16.2565714 C73.2102128,17.388 68.7672389,17.6305714 66.1019681,15.1225714 C65.3744536,14.154 65.132234,13.02 65.2126886,11.7265714 L67.3943762,1.12885714 L72.3217892,1.12885714 L70.3027224,11.5637143 M101.725358,11.5637143 C101.805812,11.9691429 101.887123,12.2922857 102.128486,12.6154286 C102.937311,13.3431429 104.310174,13.1828571 105.198598,12.7774286 C106.087021,12.2117143 106.248786,11.3211429 106.491006,10.4322857 L108.349163,1.12885714 L113.357031,1.12885714 L111.014434,12.4542857 C110.61045,13.9911429 109.318897,15.528 107.863868,16.2565714 C104.632848,17.388 100.10942,17.6305714 97.5246035,15.1225714 C96.7979449,14.154 96.5557253,13.02 96.6361799,11.7265714 L98.8983221,1.12885714 L103.744425,1.12885714 L101.725358,11.5637143 M120.384821,1.12885714 C121.273245,4.44514286 122.081214,7.84285714 123.050948,11.0785714 L124.90825,1.12885714 L129.432534,1.12885714 L126.200658,16.8222857 L121.112336,16.8222857 C120.223912,13.506 119.254178,10.2694286 118.365754,7.03371429 L116.588907,16.8222857 L112.145077,16.8222857 L115.295643,1.12885714 L120.384821,1.12885714 M136.217249,1.12885714 C135.893719,2.98885714 135.49059,4.76914286 135.167916,6.54857143 C136.944763,4.93028571 138.560701,2.90828571 140.418003,1.12885714 L146.233839,1.12885714 L139.449125,7.60028571 L144.053008,16.8222857 L138.72161,16.8222857 L135.893719,11.0785714 L133.874652,12.858 L132.986228,16.9028571 L128.301035,16.9028571 L131.61251,1.12885714 L136.217249,1.12885714 M159.320542,5.25428571 L155.118931,5.25428571 L152.777191,16.8222857 L147.930232,16.8222857 L150.11192,5.33571429 L145.830711,5.25428571 L146.637824,1.12885714 L160.127655,1.12885714 L159.320542,5.25428571 M88.1542166,5.09228571 L87.5080126,8.00485714 C88.6395116,7.84285714 90.0123743,8.32885714 90.9007979,7.51885714 C91.3047824,7.11514286 91.6283124,6.62914286 91.6283124,5.982 C91.0625629,4.44514286 89.2848598,5.41628571 88.1542166,5.09228571 Z M94.8593327,2.09914286 C96.4744149,3.47485714 97.0401644,5.65885714 96.3939603,7.68085714 C95.9095213,9.21857143 94.8593327,10.9174286 93.16294,11.4831429 C91.223472,12.2117143 88.9621857,11.8868571 86.7000435,11.9691429 L85.5702563,16.8222857 L80.722442,16.8222857 L83.8730077,1.12885714 C87.5080126,1.452 91.7892215,0.400285714 94.8593327,2.09914286 Z M58.912413,10.9174286 L58.3466634,6.62914286 L56.3275967,10.9174286 L58.912413,10.9174286 Z M64.7291054,16.8222857 L59.8008366,16.8222857 L59.4781625,14.5568571 L54.30853,14.4771429 L53.0161219,16.8222857 L47.6838685,16.8222857 L56.9738008,1.12885714 L61.8207592,1.12885714 L64.7291054,16.8222857 Z M28.1359816,10.2694286 L27.5702321,12.858 C29.1861702,12.6968571 31.2865474,13.3431429 32.2554255,11.8062857 C32.4171905,11.4034286 32.2554255,10.9174286 32.013206,10.5925714 C30.9630174,10.0268571 29.4283897,10.4322857 28.1359816,10.2694286 Z M29.3479352,4.84971429 L28.8634961,6.95314286 C30.3168133,6.79114286 32.2554255,7.51885714 33.0633946,5.982 C33.0633946,5.73942857 33.144705,5.33571429 32.9016296,5.09228571 C31.851441,4.60714286 30.4785783,4.93028571 29.3479352,4.84971429 Z M34.5175677,1.20942857 C35.7295213,1.452 37.1828385,2.18057143 37.5876789,3.55542857 C38.0712621,4.76914286 37.8298985,6.306 37.1023839,7.35771429 C36.6179449,7.76228571 36.1326499,8.40857143 35.4864458,8.57057143 C36.6983994,9.46114286 37.3446035,10.998 36.940619,12.6154286 C36.6983994,13.9911429 35.7295213,15.366 34.3558027,16.014 C30.6403433,17.4702857 26.0356044,16.5797143 21.9161605,16.8222857 L25.3089458,1.12885714 L34.5175677,1.20942857 Z"/>
  </g>
</svg>
