<svg xmlns="http://www.w3.org/2000/svg" width="70" height="70" viewBox="0 0 70 70">
  <g fill="none" fill-rule="evenodd">
    <polyline fill="#DC0C15" points=".062 .137 .062 69.841 25.312 69.878 69.751 69.878 69.804 35.549 69.804 .137 .062 .137"/>
    <path fill="#FFFFFE" d="M23.5942211,51.1531156 C23.5942211,51.7570854 23.4837688,52.3343216 23.2656784,52.8862312 C23.0507538,53.4395477 22.7422613,53.9109045 22.3363317,54.3003015 C21.9940704,54.629196 21.608191,54.8789447 21.1885427,55.0516583 C20.7727638,55.2229648 20.2996482,55.3084422 19.7660302,55.3084422 C19.2661809,55.3084422 18.7969347,55.2247236 18.360402,55.0586935 C17.9242211,54.8859799 17.5316583,54.6358794 17.189397,54.3087437 C16.7936683,53.9295477 16.4883417,53.4599497 16.2667337,52.9013568 C16.0556784,52.3441709 15.9480402,51.7570854 15.9480402,51.1379899 C15.9480402,50.5392965 16.038794,49.9909045 16.2199497,49.4907035 C16.4081407,48.9855779 16.6997487,48.5328643 17.088794,48.1322111 C17.4377387,47.7677889 17.8440201,47.4874372 18.3069347,47.2950251 C18.7694975,47.0969849 19.2594975,46.9995477 19.7765829,46.9995477 C20.3165327,46.9995477 20.8061809,47.0903015 21.2427136,47.2728643 C21.6852261,47.4490955 22.0781407,47.7178392 22.4235678,48.0766332 C22.8157789,48.4874874 23.1112563,48.9507538 23.3057789,49.4657286 C23.4971357,49.9757789 23.5942211,50.5392965 23.5942211,51.1531156 M22.3461809,51.2086935 C22.3461809,50.7186935 22.2624623,50.2424121 22.1013568,49.7791457 C21.9472864,49.3148241 21.7021106,48.9254271 21.3665327,48.6067337 C21.1653266,48.4090452 20.9236683,48.2577889 20.6419095,48.1536683 C20.3668342,48.0463819 20.0748744,47.9911558 19.7765829,47.9911558 C19.4174372,47.9911558 19.1019095,48.0463819 18.8370352,48.1621106 C18.571809,48.278191 18.3203015,48.4554774 18.0888442,48.7024121 C17.8102513,48.9824121 17.5921608,49.3415578 17.4310553,49.7791457 C17.2766332,50.2170854 17.199598,50.668392 17.199598,51.1379899 C17.199598,51.6680905 17.2766332,52.1580905 17.4377387,52.6058794 C17.5988442,53.0487437 17.8605528,53.4314573 18.2196985,53.7533166 C18.4240704,53.9362312 18.6590452,54.0772864 18.9242714,54.1761307 C19.1891457,54.2700503 19.4677387,54.3171859 19.7660302,54.3171859 C20.0949246,54.3171859 20.4002513,54.2598492 20.6788442,54.1458794 C20.9672864,54.0301508 21.218794,53.8641206 21.4305528,53.6460302 C21.7256784,53.3442211 21.9536181,52.978392 22.108392,52.5524121 C22.2659799,52.1260804 22.3461809,51.6768844 22.3461809,51.2086935"/>
    <path stroke="#FFFFFE" stroke-width=".5" d="M23.5942211,51.1531156 C23.5942211,51.7570854 23.4837688,52.3343216 23.2656784,52.8862312 C23.0507538,53.4395477 22.7422613,53.9109045 22.3363317,54.3003015 C21.9940704,54.629196 21.608191,54.8789447 21.1885427,55.0516583 C20.7727638,55.2229648 20.2996482,55.3084422 19.7660302,55.3084422 C19.2661809,55.3084422 18.7969347,55.2247236 18.360402,55.0586935 C17.9242211,54.8859799 17.5316583,54.6358794 17.189397,54.3087437 C16.7936683,53.9295477 16.4883417,53.4599497 16.2667337,52.9013568 C16.0556784,52.3441709 15.9480402,51.7570854 15.9480402,51.1379899 C15.9480402,50.5392965 16.038794,49.9909045 16.2199497,49.4907035 C16.4081407,48.9855779 16.6997487,48.5328643 17.088794,48.1322111 C17.4377387,47.7677889 17.8440201,47.4874372 18.3069347,47.2950251 C18.7694975,47.0969849 19.2594975,46.9995477 19.7765829,46.9995477 C20.3165327,46.9995477 20.8061809,47.0903015 21.2427136,47.2728643 C21.6852261,47.4490955 22.0781407,47.7178392 22.4235678,48.0766332 C22.8157789,48.4874874 23.1112563,48.9507538 23.3057789,49.4657286 C23.4971357,49.9757789 23.5942211,50.5392965 23.5942211,51.1531156 Z M22.3461809,51.2086935 C22.3461809,50.7186935 22.2624623,50.2424121 22.1013568,49.7791457 C21.9472864,49.3148241 21.7021106,48.9254271 21.3665327,48.6067337 C21.1653266,48.4090452 20.9236683,48.2577889 20.6419095,48.1536683 C20.3668342,48.0463819 20.0748744,47.9911558 19.7765829,47.9911558 C19.4174372,47.9911558 19.1019095,48.0463819 18.8370352,48.1621106 C18.571809,48.278191 18.3203015,48.4554774 18.0888442,48.7024121 C17.8102513,48.9824121 17.5921608,49.3415578 17.4310553,49.7791457 C17.2766332,50.2170854 17.199598,50.668392 17.199598,51.1379899 C17.199598,51.6680905 17.2766332,52.1580905 17.4377387,52.6058794 C17.5988442,53.0487437 17.8605528,53.4314573 18.2196985,53.7533166 C18.4240704,53.9362312 18.6590452,54.0772864 18.9242714,54.1761307 C19.1891457,54.2700503 19.4677387,54.3171859 19.7660302,54.3171859 C20.0949246,54.3171859 20.4002513,54.2598492 20.6788442,54.1458794 C20.9672864,54.0301508 21.218794,53.8641206 21.4305528,53.6460302 C21.7256784,53.3442211 21.9536181,52.978392 22.108392,52.5524121 C22.2659799,52.1260804 22.3461809,51.6768844 22.3461809,51.2086935 Z"/>
    <path fill="#FFFFFE" d="M44.7247236,45.6860804 L46.0972864,45.6860804 L46.0972864,44.3423618 L44.7247236,44.3423618 L44.7247236,45.6860804 Z M46.0265829,55.1054774 L44.7954271,55.1054774 C44.798593,55.021407 44.8052764,54.508191 44.808794,53.5672362 C44.8186432,52.6245226 44.8256784,51.8460804 44.8256784,51.2305025 C44.8256784,50.6954774 44.8221608,50.1066332 44.8154774,49.4671357 C44.8154774,48.8213065 44.808794,48.0664322 44.7954271,47.2007538 L46.0265829,47.2007538 C46.0163819,47.9524623 46.0065327,48.6538693 45.9966834,49.3113065 C45.9896482,49.9624121 45.9861307,50.5424623 45.9861307,51.0525126 C45.9861307,52.2653769 45.9931658,53.2365829 46.0030151,53.9731658 C46.0198995,54.7062312 46.0265829,55.0854271 46.0265829,55.1054774 Z"/>
    <path stroke="#FFFFFE" stroke-width=".5" d="M44.7247236,45.6860804 L46.0972864,45.6860804 L46.0972864,44.3423618 L44.7247236,44.3423618 L44.7247236,45.6860804 Z M46.0265829,55.1054774 L44.7954271,55.1054774 C44.798593,55.021407 44.8052764,54.508191 44.808794,53.5672362 C44.8186432,52.6245226 44.8256784,51.8460804 44.8256784,51.2305025 C44.8256784,50.6954774 44.8221608,50.1066332 44.8154774,49.4671357 C44.8154774,48.8213065 44.808794,48.0664322 44.7954271,47.2007538 L46.0265829,47.2007538 C46.0163819,47.9524623 46.0065327,48.6538693 45.9966834,49.3113065 C45.9896482,49.9624121 45.9861307,50.5424623 45.9861307,51.0525126 C45.9861307,52.2653769 45.9931658,53.2365829 46.0030151,53.9731658 C46.0198995,54.7062312 46.0265829,55.0854271 46.0265829,55.1054774 Z"/>
    <path fill="#FFFFFE" d="M55.6489447,51.1531156 C55.6489447,51.7570854 55.5384925,52.3343216 55.320402,52.8862312 C55.108995,53.4395477 54.7966332,53.9109045 54.3910553,54.3003015 C54.0484422,54.629196 53.6660804,54.8789447 53.2432663,55.0516583 C52.8274874,55.2229648 52.3508543,55.3084422 51.8207538,55.3084422 C51.3209045,55.3084422 50.8513065,55.2247236 50.4151256,55.0586935 C49.9789447,54.8859799 49.5898995,54.6358794 49.2441206,54.3087437 C48.8480402,53.9295477 48.5430653,53.4599497 48.3214573,52.9013568 C48.110402,52.3441709 48.0027638,51.7570854 48.0027638,51.1379899 C48.0027638,50.5392965 48.0935176,49.9909045 48.2743216,49.4907035 C48.4621608,48.9855779 48.7509548,48.5328643 49.1435176,48.1322111 C49.4924623,47.7677889 49.898392,47.4874372 50.3613065,47.2950251 C50.8242211,47.0969849 51.3142211,46.9995477 51.8309548,46.9995477 C52.3712563,46.9995477 52.8609045,47.0903015 53.2970854,47.2728643 C53.7399497,47.4490955 54.1325126,47.7178392 54.4779397,48.0766332 C54.8740201,48.4874874 55.1691457,48.9507538 55.3605025,49.4657286 C55.5518593,49.9757789 55.6489447,50.5392965 55.6489447,51.1531156 M54.3977387,51.2086935 C54.3977387,50.7186935 54.3171859,50.2424121 54.159598,49.7791457 C54.0020101,49.3148241 53.7568342,48.9254271 53.4212563,48.6067337 C53.2200503,48.4090452 52.978392,48.2577889 52.6966332,48.1536683 C52.421206,48.0463819 52.1327638,47.9911558 51.8309548,47.9911558 C51.4682915,47.9911558 51.159799,48.0463819 50.8917588,48.1621106 C50.6265327,48.278191 50.378191,48.4554774 50.1435678,48.7024121 C49.8684925,48.9824121 49.6500503,49.3415578 49.4857789,49.7791457 C49.3313568,50.2170854 49.2511558,50.668392 49.2511558,51.1379899 C49.2511558,51.6680905 49.3313568,52.1580905 49.4924623,52.6058794 C49.6567337,53.0487437 49.9149246,53.4314573 50.2740704,53.7533166 C50.478794,53.9362312 50.7137688,54.0772864 50.978995,54.1761307 C51.2438693,54.2700503 51.5256281,54.3171859 51.8207538,54.3171859 C52.1496482,54.3171859 52.4549749,54.2598492 52.7367337,54.1458794 C53.0220101,54.0301508 53.27,53.8641206 53.4849246,53.6460302 C53.780402,53.3442211 54.0083417,52.978392 54.1659296,52.5524121 C54.3203518,52.1260804 54.3977387,51.6768844 54.3977387,51.2086935"/>
    <path stroke="#FFFFFE" stroke-width=".5" d="M55.6489447,51.1531156 C55.6489447,51.7570854 55.5384925,52.3343216 55.320402,52.8862312 C55.108995,53.4395477 54.7966332,53.9109045 54.3910553,54.3003015 C54.0484422,54.629196 53.6660804,54.8789447 53.2432663,55.0516583 C52.8274874,55.2229648 52.3508543,55.3084422 51.8207538,55.3084422 C51.3209045,55.3084422 50.8513065,55.2247236 50.4151256,55.0586935 C49.9789447,54.8859799 49.5898995,54.6358794 49.2441206,54.3087437 C48.8480402,53.9295477 48.5430653,53.4599497 48.3214573,52.9013568 C48.110402,52.3441709 48.0027638,51.7570854 48.0027638,51.1379899 C48.0027638,50.5392965 48.0935176,49.9909045 48.2743216,49.4907035 C48.4621608,48.9855779 48.7509548,48.5328643 49.1435176,48.1322111 C49.4924623,47.7677889 49.898392,47.4874372 50.3613065,47.2950251 C50.8242211,47.0969849 51.3142211,46.9995477 51.8309548,46.9995477 C52.3712563,46.9995477 52.8609045,47.0903015 53.2970854,47.2728643 C53.7399497,47.4490955 54.1325126,47.7178392 54.4779397,48.0766332 C54.8740201,48.4874874 55.1691457,48.9507538 55.3605025,49.4657286 C55.5518593,49.9757789 55.6489447,50.5392965 55.6489447,51.1531156 Z M54.3977387,51.2086935 C54.3977387,50.7186935 54.3171859,50.2424121 54.159598,49.7791457 C54.0020101,49.3148241 53.7568342,48.9254271 53.4212563,48.6067337 C53.2200503,48.4090452 52.978392,48.2577889 52.6966332,48.1536683 C52.421206,48.0463819 52.1327638,47.9911558 51.8309548,47.9911558 C51.4682915,47.9911558 51.159799,48.0463819 50.8917588,48.1621106 C50.6265327,48.278191 50.378191,48.4554774 50.1435678,48.7024121 C49.8684925,48.9824121 49.6500503,49.3415578 49.4857789,49.7791457 C49.3313568,50.2170854 49.2511558,50.668392 49.2511558,51.1379899 C49.2511558,51.6680905 49.3313568,52.1580905 49.4924623,52.6058794 C49.6567337,53.0487437 49.9149246,53.4314573 50.2740704,53.7533166 C50.478794,53.9362312 50.7137688,54.0772864 50.978995,54.1761307 C51.2438693,54.2700503 51.5256281,54.3171859 51.8207538,54.3171859 C52.1496482,54.3171859 52.4549749,54.2598492 52.7367337,54.1458794 C53.0220101,54.0301508 53.27,53.8641206 53.4849246,53.6460302 C53.780402,53.3442211 54.0083417,52.978392 54.1659296,52.5524121 C54.3203518,52.1260804 54.3977387,51.6768844 54.3977387,51.2086935 Z"/>
    <path fill="#FFFFFE" d="M61.3829648,45.6860804 L62.7583417,45.6860804 L62.7583417,44.3423618 L61.3829648,44.3423618 L61.3829648,45.6860804 Z M62.6879899,55.1054774 L61.4533166,55.1054774 C61.4603518,55.021407 61.4631658,54.508191 61.470201,53.5672362 C61.4800503,52.6245226 61.4835678,51.8460804 61.4835678,51.2305025 C61.4835678,50.6954774 61.4835678,50.1066332 61.4768844,49.4671357 C61.4768844,48.8213065 61.470201,48.0664322 61.4533166,47.2007538 L62.6879899,47.2007538 C62.6781407,47.9524623 62.6644221,48.6538693 62.6545729,49.3113065 C62.6510553,49.9624121 62.6478894,50.5424623 62.6478894,51.0525126 C62.6478894,52.2653769 62.6545729,53.2365829 62.6644221,53.9731658 C62.6813065,54.7062312 62.6879899,55.0854271 62.6879899,55.1054774 Z"/>
    <path stroke="#FFFFFE" stroke-width=".5" d="M61.3829648,45.6860804 L62.7583417,45.6860804 L62.7583417,44.3423618 L61.3829648,44.3423618 L61.3829648,45.6860804 Z M62.6879899,55.1054774 L61.4533166,55.1054774 C61.4603518,55.021407 61.4631658,54.508191 61.470201,53.5672362 C61.4800503,52.6245226 61.4835678,51.8460804 61.4835678,51.2305025 C61.4835678,50.6954774 61.4835678,50.1066332 61.4768844,49.4671357 C61.4768844,48.8213065 61.470201,48.0664322 61.4533166,47.2007538 L62.6879899,47.2007538 C62.6781407,47.9524623 62.6644221,48.6538693 62.6545729,49.3113065 C62.6510553,49.9624121 62.6478894,50.5424623 62.6478894,51.0525126 C62.6478894,52.2653769 62.6545729,53.2365829 62.6644221,53.9731658 C62.6813065,54.7062312 62.6879899,55.0854271 62.6879899,55.1054774 Z"/>
    <path fill="#FFFFFE" d="M14.3176382,52.028995 C14.3176382,52.5488945 14.1832663,53.0184925 13.9117085,53.4332161 C13.6464824,53.8507538 13.2570854,54.1912563 12.7473869,54.4578894 C12.2943216,54.6911055 11.7979899,54.8620603 11.2541709,54.9732161 C10.7142211,55.0755779 10.0968844,55.1290452 9.39582915,55.1290452 C8.88226131,55.1290452 8.34864322,55.120603 7.80517588,55.1054774 C7.2620603,55.0854271 6.9598995,55.0720603 6.89939698,55.0667839 C6.91276382,54.0674372 6.92296482,53.1243719 6.92964824,52.2400503 L6.93633166,49.6936683 C6.93633166,48.1638693 6.92964824,46.9527638 6.91276382,46.0603518 L6.89939698,44.6645729 L7.75839196,44.6241206 C8.26140704,44.6040704 8.75140704,44.5938693 9.22452261,44.5938693 C9.76130653,44.5938693 10.2579899,44.629397 10.7071859,44.7015075 C11.1637688,44.7701005 11.5461307,44.8657789 11.8581407,44.9934673 C12.331608,45.1795477 12.7037688,45.4496985 12.9756784,45.8049749 C13.2437186,46.1507538 13.3780905,46.5834171 13.3780905,47.0934673 C13.3780905,47.6288442 13.2071357,48.1051256 12.8648744,48.5230151 C12.5257789,48.9321106 12.1367337,49.2142211 11.7005528,49.3647739 L11.7005528,49.4421608 C12.0593467,49.4741709 12.4082915,49.5596482 12.7473869,49.7007035 C13.0861307,49.8361307 13.3847739,50.0327638 13.6366332,50.2860302 C13.8610553,50.5122111 14.0327136,50.758794 14.1466834,51.0292965 C14.2606533,51.3008543 14.3176382,51.6332663 14.3176382,52.028995 M12.9820101,52.0673367 C12.9820101,51.8007035 12.9352261,51.5639698 12.8413065,51.3564322 C12.7473869,51.1432663 12.6066834,50.9420603 12.4188442,50.7471859 C12.2443719,50.569196 11.999196,50.4267337 11.6871859,50.3176884 C11.3786935,50.208995 11.0431156,50.1534171 10.6772864,50.1534171 C10.3853266,50.1534171 10.1471859,50.1565829 9.96954774,50.1601005 C9.7880402,50.1667839 9.35854271,50.1699497 9.30155779,50.1699497 L9.17773869,49.2307538 C9.5601005,49.2205528 10.2143719,49.1786935 10.5059799,49.0998995 C10.8014573,49.0158291 11.0663317,48.8937688 11.2946231,48.7309045 C11.5127136,48.5764824 11.6938693,48.378794 11.8349246,48.1385427 C11.9756281,47.8954774 12.0459799,47.6200503 12.0459799,47.3182412 C12.0459799,47.0030653 11.9657789,46.7276382 11.8113568,46.4996985 C11.6537688,46.2647236 11.439196,46.080402 11.1704523,45.9428643 C10.938995,45.8352261 10.6607538,45.7550251 10.3283417,45.701206 C9.99276382,45.6442211 9.63713568,45.6171357 9.2579397,45.6157286 C9.00959799,45.6157286 8.78517588,45.6224121 8.57693467,45.6305025 L8.18753769,45.6407035 C8.17100503,46.3990955 8.16080402,47.2077889 8.15763819,48.0597487 L8.15763819,49.918794 C8.15763819,50.8143719 8.15763819,51.7152261 8.16432161,52.6227638 L8.17768844,54.0674372 L8.5938191,54.0888945 C8.76829146,54.0959296 8.93924623,54.0987437 9.10035176,54.0987437 C9.69763819,54.0987437 10.2544724,54.0674372 10.7645226,54.0034171 C11.2780905,53.9411558 11.7139196,53.8103015 12.0663819,53.6140201 C12.3583417,53.4515075 12.5827638,53.2401005 12.7407035,52.9819095 C12.901809,52.7198492 12.9820101,52.4162814 12.9820101,52.0673367"/>
    <path stroke="#FFFFFE" stroke-width=".5" d="M14.3176382,52.028995 C14.3176382,52.5488945 14.1832663,53.0184925 13.9117085,53.4332161 C13.6464824,53.8507538 13.2570854,54.1912563 12.7473869,54.4578894 C12.2943216,54.6911055 11.7979899,54.8620603 11.2541709,54.9732161 C10.7142211,55.0755779 10.0968844,55.1290452 9.39582915,55.1290452 C8.88226131,55.1290452 8.34864322,55.120603 7.80517588,55.1054774 C7.2620603,55.0854271 6.9598995,55.0720603 6.89939698,55.0667839 C6.91276382,54.0674372 6.92296482,53.1243719 6.92964824,52.2400503 L6.93633166,49.6936683 C6.93633166,48.1638693 6.92964824,46.9527638 6.91276382,46.0603518 L6.89939698,44.6645729 L7.75839196,44.6241206 C8.26140704,44.6040704 8.75140704,44.5938693 9.22452261,44.5938693 C9.76130653,44.5938693 10.2579899,44.629397 10.7071859,44.7015075 C11.1637688,44.7701005 11.5461307,44.8657789 11.8581407,44.9934673 C12.331608,45.1795477 12.7037688,45.4496985 12.9756784,45.8049749 C13.2437186,46.1507538 13.3780905,46.5834171 13.3780905,47.0934673 C13.3780905,47.6288442 13.2071357,48.1051256 12.8648744,48.5230151 C12.5257789,48.9321106 12.1367337,49.2142211 11.7005528,49.3647739 L11.7005528,49.4421608 C12.0593467,49.4741709 12.4082915,49.5596482 12.7473869,49.7007035 C13.0861307,49.8361307 13.3847739,50.0327638 13.6366332,50.2860302 C13.8610553,50.5122111 14.0327136,50.758794 14.1466834,51.0292965 C14.2606533,51.3008543 14.3176382,51.6332663 14.3176382,52.028995 Z M12.9820101,52.0673367 C12.9820101,51.8007035 12.9352261,51.5639698 12.8413065,51.3564322 C12.7473869,51.1432663 12.6066834,50.9420603 12.4188442,50.7471859 C12.2443719,50.569196 11.999196,50.4267337 11.6871859,50.3176884 C11.3786935,50.208995 11.0431156,50.1534171 10.6772864,50.1534171 C10.3853266,50.1534171 10.1471859,50.1565829 9.96954774,50.1601005 C9.7880402,50.1667839 9.35854271,50.1699497 9.30155779,50.1699497 L9.17773869,49.2307538 C9.5601005,49.2205528 10.2143719,49.1786935 10.5059799,49.0998995 C10.8014573,49.0158291 11.0663317,48.8937688 11.2946231,48.7309045 C11.5127136,48.5764824 11.6938693,48.378794 11.8349246,48.1385427 C11.9756281,47.8954774 12.0459799,47.6200503 12.0459799,47.3182412 C12.0459799,47.0030653 11.9657789,46.7276382 11.8113568,46.4996985 C11.6537688,46.2647236 11.439196,46.080402 11.1704523,45.9428643 C10.938995,45.8352261 10.6607538,45.7550251 10.3283417,45.701206 C9.99276382,45.6442211 9.63713568,45.6171357 9.2579397,45.6157286 C9.00959799,45.6157286 8.78517588,45.6224121 8.57693467,45.6305025 L8.18753769,45.6407035 C8.17100503,46.3990955 8.16080402,47.2077889 8.15763819,48.0597487 L8.15763819,49.918794 C8.15763819,50.8143719 8.15763819,51.7152261 8.16432161,52.6227638 L8.17768844,54.0674372 L8.5938191,54.0888945 C8.76829146,54.0959296 8.93924623,54.0987437 9.10035176,54.0987437 C9.69763819,54.0987437 10.2544724,54.0674372 10.7645226,54.0034171 C11.2780905,53.9411558 11.7139196,53.8103015 12.0663819,53.6140201 C12.3583417,53.4515075 12.5827638,53.2401005 12.7407035,52.9819095 C12.901809,52.7198492 12.9820101,52.4162814 12.9820101,52.0673367 Z"/>
    <path fill="#FFFFFE" d="M29.9286935,48.1234171 C29.640603,48.1909548 29.308191,48.2658794 28.7010553,48.4660302 C28.1069347,48.6637186 27.6271357,48.7509548 26.640804,49.4907035 C26.640804,49.5494472 26.6376382,49.7474874 26.630603,50.2170854 C26.6274372,50.6803518 26.6239196,51.1130151 26.6239196,51.5122613 C26.6239196,52.1278392 26.6274372,52.8559799 26.640804,53.6998492 C26.6576884,54.5419598 26.6643719,55.0115578 26.6643719,55.1054774 L25.4296985,55.1054774 C25.4296985,55.0168342 25.4360302,54.7248744 25.4465829,54.229598 C25.4564322,53.7367839 25.4599497,52.8911558 25.4599497,51.6934171 C25.4599497,51.2086935 25.4564322,50.5326131 25.4529146,49.6634171 C25.4465829,48.7928141 25.4395477,47.9725126 25.4296985,47.2025126 L26.640804,47.2025126 L26.640804,48.3886432 L26.6474874,48.458995 C27.2011558,47.979196 27.7882412,47.7090452 28.3855276,47.5060804 C28.9592462,47.2630151 29.3486432,47.118794 29.6940704,47.029799 L29.9286935,48.1234171"/>
    <path stroke="#FFFFFE" stroke-width=".5" d="M29.9286935,48.1234171 C29.640603,48.1909548 29.308191,48.2658794 28.7010553,48.4660302 C28.1069347,48.6637186 27.6271357,48.7509548 26.640804,49.4907035 C26.640804,49.5494472 26.6376382,49.7474874 26.630603,50.2170854 C26.6274372,50.6803518 26.6239196,51.1130151 26.6239196,51.5122613 C26.6239196,52.1278392 26.6274372,52.8559799 26.640804,53.6998492 C26.6576884,54.5419598 26.6643719,55.0115578 26.6643719,55.1054774 L25.4296985,55.1054774 C25.4296985,55.0168342 25.4360302,54.7248744 25.4465829,54.229598 C25.4564322,53.7367839 25.4599497,52.8911558 25.4599497,51.6934171 C25.4599497,51.2086935 25.4564322,50.5326131 25.4529146,49.6634171 C25.4465829,48.7928141 25.4395477,47.9725126 25.4296985,47.2025126 L26.640804,47.2025126 L26.640804,48.3886432 L26.6474874,48.458995 C27.2011558,47.979196 27.7882412,47.7090452 28.3855276,47.5060804 C28.9592462,47.2630151 29.3486432,47.118794 29.6940704,47.029799 L29.9286935,48.1234171 Z"/>
    <path fill="#FFFFFE" d="M42.4636181,55.1054774 L41.2289447,55.1054774 C41.2356281,55.0484925 41.238794,54.6844221 41.2458291,54.0115075 C41.2556784,53.3407035 41.2623618,52.7064824 41.2623618,52.1144724 C41.2623618,51.8780905 41.259196,51.4988945 41.2521608,50.9670352 C41.2521608,50.4320101 41.248995,50.0292462 41.2458291,49.7626131 C41.2289447,49.1403518 41.1044221,48.7073367 40.8701508,48.4674372 C40.6415075,48.2275377 40.2827136,48.1082915 39.7997487,48.1082915 C39.5144724,48.1082915 39.1722111,48.1772362 38.7761307,48.3182915 C38.3870854,48.458995 37.9442211,48.6770854 37.4475377,48.9739698 L37.4475377,49.129799 C37.4545729,49.2107035 37.4545729,49.3113065 37.4577387,49.4354774 C37.4577387,49.8582915 37.4545729,50.2874372 37.4475377,50.7239698 C37.4443719,51.1566332 37.4408543,51.5692462 37.4408543,51.9653266 C37.4408543,52.8306533 37.4475377,53.5552764 37.4577387,54.1458794 C37.4742714,54.7329648 37.4813065,55.0534171 37.4813065,55.1054774 L36.2466332,55.1054774 C36.2466332,55.0484925 36.2533166,54.7329648 36.2635176,54.1592462 C36.2733668,53.5890452 36.2768844,52.911206 36.2768844,52.129598 C36.2768844,51.8710553 36.2768844,51.4767337 36.2698492,50.9519095 C36.2698492,50.4186432 36.2666834,50.0292462 36.2635176,49.7809045 C36.2564824,49.5494472 36.2364322,49.3313568 36.1994975,49.1217085 C36.1625628,48.9134673 36.0953769,48.7375879 35.9947739,48.5898492 C35.8874874,48.4287437 35.7464322,48.3112563 35.5754774,48.2310553 C35.4041709,48.1501508 35.1558291,48.1082915 34.8406533,48.1082915 C34.5490452,48.1082915 34.2064322,48.1937688 33.8173869,48.3654271 C33.4279899,48.5328643 32.978794,48.7745226 32.4754271,49.0932161 C32.4754271,49.1804523 32.4719095,49.5125126 32.4652261,50.0897487 C32.4620603,50.6634673 32.4585427,51.1313065 32.4585427,51.4988945 C32.4585427,52.1162312 32.4652261,52.8609045 32.4754271,53.7301005 C32.488794,54.5957789 32.498995,55.0534171 32.498995,55.1054774 L31.2643216,55.1054774 C31.2643216,55.0636181 31.2674874,54.7614573 31.281206,54.1996985 C31.2875377,53.6309045 31.2945729,52.6948744 31.2945729,51.3880905 C31.2945729,50.9603518 31.2910553,50.3866332 31.2875377,49.6602513 C31.2875377,48.938794 31.281206,48.1184925 31.2643216,47.2007538 L32.4821106,47.2007538 L32.4754271,48.100201 L32.4821106,48.1082915 C32.8310553,47.8585427 33.2672362,47.610201 33.7938191,47.3653769 C34.3239196,47.1205528 34.7938693,46.9995477 35.1994472,46.9995477 C35.7098492,46.9995477 36.1358291,47.1054271 36.4745729,47.3182412 C36.8168342,47.5328141 37.0616583,47.8015578 37.2058794,48.1304523 L37.2227638,48.1304523 C37.8232161,47.7614573 38.370201,47.4793467 38.8700503,47.2879899 C39.3765829,47.0952261 39.8060804,46.9995477 40.1585427,46.9995477 C40.8764824,46.9995477 41.4368342,47.2109548 41.8392462,47.630603 C42.2455276,48.0481407 42.4467337,48.6134171 42.4467337,49.3264322 C42.4467337,49.8779899 42.4432161,50.3447739 42.4333668,50.7239698 C42.4263317,51.0996482 42.4235176,51.4988945 42.4235176,51.918191 C42.4235176,52.7937186 42.4298492,53.5338191 42.4400503,54.1360302 C42.4534171,54.74 42.4636181,55.0636181 42.4636181,55.1054774"/>
    <path stroke="#FFFFFE" stroke-width=".5" d="M42.4636181,55.1054774 L41.2289447,55.1054774 C41.2356281,55.0484925 41.238794,54.6844221 41.2458291,54.0115075 C41.2556784,53.3407035 41.2623618,52.7064824 41.2623618,52.1144724 C41.2623618,51.8780905 41.259196,51.4988945 41.2521608,50.9670352 C41.2521608,50.4320101 41.248995,50.0292462 41.2458291,49.7626131 C41.2289447,49.1403518 41.1044221,48.7073367 40.8701508,48.4674372 C40.6415075,48.2275377 40.2827136,48.1082915 39.7997487,48.1082915 C39.5144724,48.1082915 39.1722111,48.1772362 38.7761307,48.3182915 C38.3870854,48.458995 37.9442211,48.6770854 37.4475377,48.9739698 L37.4475377,49.129799 C37.4545729,49.2107035 37.4545729,49.3113065 37.4577387,49.4354774 C37.4577387,49.8582915 37.4545729,50.2874372 37.4475377,50.7239698 C37.4443719,51.1566332 37.4408543,51.5692462 37.4408543,51.9653266 C37.4408543,52.8306533 37.4475377,53.5552764 37.4577387,54.1458794 C37.4742714,54.7329648 37.4813065,55.0534171 37.4813065,55.1054774 L36.2466332,55.1054774 C36.2466332,55.0484925 36.2533166,54.7329648 36.2635176,54.1592462 C36.2733668,53.5890452 36.2768844,52.911206 36.2768844,52.129598 C36.2768844,51.8710553 36.2768844,51.4767337 36.2698492,50.9519095 C36.2698492,50.4186432 36.2666834,50.0292462 36.2635176,49.7809045 C36.2564824,49.5494472 36.2364322,49.3313568 36.1994975,49.1217085 C36.1625628,48.9134673 36.0953769,48.7375879 35.9947739,48.5898492 C35.8874874,48.4287437 35.7464322,48.3112563 35.5754774,48.2310553 C35.4041709,48.1501508 35.1558291,48.1082915 34.8406533,48.1082915 C34.5490452,48.1082915 34.2064322,48.1937688 33.8173869,48.3654271 C33.4279899,48.5328643 32.978794,48.7745226 32.4754271,49.0932161 C32.4754271,49.1804523 32.4719095,49.5125126 32.4652261,50.0897487 C32.4620603,50.6634673 32.4585427,51.1313065 32.4585427,51.4988945 C32.4585427,52.1162312 32.4652261,52.8609045 32.4754271,53.7301005 C32.488794,54.5957789 32.498995,55.0534171 32.498995,55.1054774 L31.2643216,55.1054774 C31.2643216,55.0636181 31.2674874,54.7614573 31.281206,54.1996985 C31.2875377,53.6309045 31.2945729,52.6948744 31.2945729,51.3880905 C31.2945729,50.9603518 31.2910553,50.3866332 31.2875377,49.6602513 C31.2875377,48.938794 31.281206,48.1184925 31.2643216,47.2007538 L32.4821106,47.2007538 L32.4754271,48.100201 L32.4821106,48.1082915 C32.8310553,47.8585427 33.2672362,47.610201 33.7938191,47.3653769 C34.3239196,47.1205528 34.7938693,46.9995477 35.1994472,46.9995477 C35.7098492,46.9995477 36.1358291,47.1054271 36.4745729,47.3182412 C36.8168342,47.5328141 37.0616583,47.8015578 37.2058794,48.1304523 L37.2227638,48.1304523 C37.8232161,47.7614573 38.370201,47.4793467 38.8700503,47.2879899 C39.3765829,47.0952261 39.8060804,46.9995477 40.1585427,46.9995477 C40.8764824,46.9995477 41.4368342,47.2109548 41.8392462,47.630603 C42.2455276,48.0481407 42.4467337,48.6134171 42.4467337,49.3264322 C42.4467337,49.8779899 42.4432161,50.3447739 42.4333668,50.7239698 C42.4263317,51.0996482 42.4235176,51.4988945 42.4235176,51.918191 C42.4235176,52.7937186 42.4298492,53.5338191 42.4400503,54.1360302 C42.4534171,54.74 42.4636181,55.0636181 42.4636181,55.1054774 Z"/>
    <path fill="#FFFFFE" d="M58.9906533,55.1054774 L57.7559799,55.1054774 C57.7626633,55.0435678 57.7661809,54.2820101 57.7728643,52.8239698 C57.7830653,51.361005 57.789397,50.1502513 57.789397,49.1857286 C57.789397,48.5666332 57.7862312,47.7846734 57.7795477,46.8419598 C57.7795477,45.8957286 57.7728643,44.8323618 57.7559799,43.6564322 L58.9906533,43.6564322 C58.980804,44.4580905 58.970603,45.3874372 58.9674372,46.4427136 C58.960402,47.4962312 58.960402,48.3833668 58.960402,49.1065829 C58.960402,50.6849246 58.9639196,52.0641709 58.9737688,53.2471357 C58.9843216,54.4279899 58.9906533,55.0484925 58.9906533,55.1054774"/>
    <path stroke="#FFFFFE" stroke-width=".5" d="M58.9906533,55.1054774 L57.7559799,55.1054774 C57.7626633,55.0435678 57.7661809,54.2820101 57.7728643,52.8239698 C57.7830653,51.361005 57.789397,50.1502513 57.789397,49.1857286 C57.789397,48.5666332 57.7862312,47.7846734 57.7795477,46.8419598 C57.7795477,45.8957286 57.7728643,44.8323618 57.7559799,43.6564322 L58.9906533,43.6564322 C58.980804,44.4580905 58.970603,45.3874372 58.9674372,46.4427136 C58.960402,47.4962312 58.960402,48.3833668 58.960402,49.1065829 C58.960402,50.6849246 58.9639196,52.0641709 58.9737688,53.2471357 C58.9843216,54.4279899 58.9906533,55.0484925 58.9906533,55.1054774 Z"/>
    <path fill="#FFFFFE" d="M39.9503015,62.461809 L39.34,62.9514573 C39.2661307,62.8793467 39.0111055,62.6042714 38.5749246,62.1279899 C38.1355779,61.649598 37.4609045,60.9031658 36.5484422,59.8915075 L36.5551256,59.8496482 C36.6792965,59.8176382 36.8435678,59.7490452 37.0482915,59.6449246 C37.2565327,59.5358794 37.4274874,59.4201508 37.5685427,59.2977387 C37.689196,59.1886935 37.7929648,59.0543216 37.8837186,58.8967337 C37.9744724,58.7373869 38.0180905,58.5259799 38.0180905,58.2593467 C38.0180905,58.0141709 37.9540704,57.8048744 37.8200503,57.631809 C37.689196,57.4524121 37.5045226,57.3229648 37.2730653,57.2392462 C37.0852261,57.1706533 36.8871859,57.128794 36.6761307,57.1154271 C36.4678894,57.1003015 36.2733668,57.0932663 36.0988945,57.0932663 C35.9778894,57.0932663 35.8906533,57.0932663 35.8273367,57.0967839 L35.6894472,57.0967839 C35.6827638,57.698995 35.679598,58.2322613 35.6760804,58.6920101 L35.6760804,59.6670854 C35.6760804,60.1029146 35.6760804,60.6917588 35.6827638,61.4385427 C35.6862814,62.1832161 35.6929648,62.6528141 35.6961307,62.8424121 L34.8877889,62.8424121 C34.8909548,62.6528141 34.8944724,62.2820603 34.9011558,61.738593 C34.9078392,61.1884422 34.911005,60.5070854 34.911005,59.6920603 L34.911005,58.8112563 C34.911005,58.3817588 34.9011558,57.6015578 34.8877889,56.4713568 C34.9180402,56.4713568 35.0823116,56.4678392 35.3774372,56.4590452 C35.6729146,56.4544724 35.9413065,56.4509548 36.1896482,56.449196 C36.4745729,56.449196 36.7531658,56.4678392 37.0180402,56.4980905 C37.2864322,56.5301005 37.5481407,56.5986935 37.8035176,56.7028141 C38.1288945,56.8368342 38.3835678,57.0331156 38.5749246,57.2930653 C38.7627638,57.551608 38.8566834,57.8534171 38.8566834,58.2020101 C38.8566834,58.6536683 38.7124623,59.0293467 38.4271859,59.3297487 C38.1422613,59.6280402 37.8738693,59.8496482 37.6184925,59.9973869 L37.6184925,60.020603 C38.0648744,60.5274874 38.5545226,61.0509045 39.0881407,61.5908543 C39.6249246,62.130804 39.9137186,62.419598 39.9503015,62.461809"/>
    <path stroke="#FFFFFE" stroke-width=".5" d="M39.9503015,62.461809 L39.34,62.9514573 C39.2661307,62.8793467 39.0111055,62.6042714 38.5749246,62.1279899 C38.1355779,61.649598 37.4609045,60.9031658 36.5484422,59.8915075 L36.5551256,59.8496482 C36.6792965,59.8176382 36.8435678,59.7490452 37.0482915,59.6449246 C37.2565327,59.5358794 37.4274874,59.4201508 37.5685427,59.2977387 C37.689196,59.1886935 37.7929648,59.0543216 37.8837186,58.8967337 C37.9744724,58.7373869 38.0180905,58.5259799 38.0180905,58.2593467 C38.0180905,58.0141709 37.9540704,57.8048744 37.8200503,57.631809 C37.689196,57.4524121 37.5045226,57.3229648 37.2730653,57.2392462 C37.0852261,57.1706533 36.8871859,57.128794 36.6761307,57.1154271 C36.4678894,57.1003015 36.2733668,57.0932663 36.0988945,57.0932663 C35.9778894,57.0932663 35.8906533,57.0932663 35.8273367,57.0967839 L35.6894472,57.0967839 C35.6827638,57.698995 35.679598,58.2322613 35.6760804,58.6920101 L35.6760804,59.6670854 C35.6760804,60.1029146 35.6760804,60.6917588 35.6827638,61.4385427 C35.6862814,62.1832161 35.6929648,62.6528141 35.6961307,62.8424121 L34.8877889,62.8424121 C34.8909548,62.6528141 34.8944724,62.2820603 34.9011558,61.738593 C34.9078392,61.1884422 34.911005,60.5070854 34.911005,59.6920603 L34.911005,58.8112563 C34.911005,58.3817588 34.9011558,57.6015578 34.8877889,56.4713568 C34.9180402,56.4713568 35.0823116,56.4678392 35.3774372,56.4590452 C35.6729146,56.4544724 35.9413065,56.4509548 36.1896482,56.449196 C36.4745729,56.449196 36.7531658,56.4678392 37.0180402,56.4980905 C37.2864322,56.5301005 37.5481407,56.5986935 37.8035176,56.7028141 C38.1288945,56.8368342 38.3835678,57.0331156 38.5749246,57.2930653 C38.7627638,57.551608 38.8566834,57.8534171 38.8566834,58.2020101 C38.8566834,58.6536683 38.7124623,59.0293467 38.4271859,59.3297487 C38.1422613,59.6280402 37.8738693,59.8496482 37.6184925,59.9973869 L37.6184925,60.020603 C38.0648744,60.5274874 38.5545226,61.0509045 39.0881407,61.5908543 C39.6249246,62.130804 39.9137186,62.419598 39.9503015,62.461809 Z"/>
    <path fill="#FFFFFE" d="M45.7546734,60.4603015 C45.7546734,60.8377387 45.6843216,61.1965327 45.5467839,61.5409045 C45.4092462,61.8828141 45.2080402,62.1744221 44.9494975,62.418191 C44.7282412,62.6225628 44.4834171,62.7769849 44.2146734,62.8825126 C43.9466332,62.9919095 43.6444724,63.0453769 43.3025628,63.0453769 C42.9835176,63.0453769 42.6852261,62.9919095 42.4031156,62.8895477 C42.1245226,62.7819095 41.8730151,62.6260804 41.651407,62.4227638 C41.3998995,62.1867337 41.2018593,61.8961809 41.0643216,61.548995 C40.9271357,61.2035678 40.8564322,60.8377387 40.8564322,60.4501005 C40.8564322,60.0811055 40.9165829,59.739196 41.0340704,59.4268342 C41.1515578,59.1130653 41.339397,58.8316583 41.5880905,58.5847236 C41.8125126,58.3567839 42.0710553,58.1840704 42.3661809,58.0630653 C42.6648241,57.9406533 42.9803518,57.8801508 43.3088945,57.8801508 C43.6546734,57.8801508 43.9698492,57.9374874 44.2484422,58.0496985 C44.5337186,58.158392 44.7852261,58.3265327 45.0033166,58.5495477 C45.2583417,58.8059799 45.4461809,59.091608 45.5703518,59.4134673 C45.6941709,59.7286432 45.7546734,60.0811055 45.7546734,60.4603015 M44.9565327,60.4954774 C44.9565327,60.1919095 44.9027136,59.8950251 44.798593,59.6083417 C44.6979899,59.3195477 44.5435678,59.0782412 44.328995,58.8798492 C44.1977889,58.7560302 44.0437186,58.6617588 43.8625628,58.5980905 C43.6880905,58.5277387 43.5002513,58.4957286 43.3088945,58.4957286 C43.0774372,58.4957286 42.879397,58.5312563 42.7084422,58.601608 C42.541005,58.6719598 42.3795477,58.7845226 42.2286432,58.9368342 C42.051005,59.1130653 41.9131156,59.3364322 41.808995,59.6083417 C41.708392,59.8798995 41.6584422,60.1616583 41.6584422,60.4501005 C41.6584422,60.7821608 41.708392,61.0878392 41.8125126,61.3646734 C41.9166332,61.6397487 42.0844221,61.8761307 42.3123618,62.0773367 C42.4432161,62.1913065 42.5944724,62.2785427 42.7654271,62.340804 C42.9332161,62.3995477 43.1143719,62.4280402 43.3025628,62.4280402 C43.5136181,62.4280402 43.7081407,62.3928643 43.8892965,62.3221608 C44.0739698,62.2482915 44.2315578,62.1459296 44.3694472,62.0105025 C44.5604523,61.8223116 44.7046734,61.5978894 44.8017588,61.3309045 C44.9058794,61.0656784 44.9565327,60.7874372 44.9565327,60.4954774"/>
    <path stroke="#FFFFFE" stroke-width=".5" d="M45.7546734,60.4603015 C45.7546734,60.8377387 45.6843216,61.1965327 45.5467839,61.5409045 C45.4092462,61.8828141 45.2080402,62.1744221 44.9494975,62.418191 C44.7282412,62.6225628 44.4834171,62.7769849 44.2146734,62.8825126 C43.9466332,62.9919095 43.6444724,63.0453769 43.3025628,63.0453769 C42.9835176,63.0453769 42.6852261,62.9919095 42.4031156,62.8895477 C42.1245226,62.7819095 41.8730151,62.6260804 41.651407,62.4227638 C41.3998995,62.1867337 41.2018593,61.8961809 41.0643216,61.548995 C40.9271357,61.2035678 40.8564322,60.8377387 40.8564322,60.4501005 C40.8564322,60.0811055 40.9165829,59.739196 41.0340704,59.4268342 C41.1515578,59.1130653 41.339397,58.8316583 41.5880905,58.5847236 C41.8125126,58.3567839 42.0710553,58.1840704 42.3661809,58.0630653 C42.6648241,57.9406533 42.9803518,57.8801508 43.3088945,57.8801508 C43.6546734,57.8801508 43.9698492,57.9374874 44.2484422,58.0496985 C44.5337186,58.158392 44.7852261,58.3265327 45.0033166,58.5495477 C45.2583417,58.8059799 45.4461809,59.091608 45.5703518,59.4134673 C45.6941709,59.7286432 45.7546734,60.0811055 45.7546734,60.4603015 Z M44.9565327,60.4954774 C44.9565327,60.1919095 44.9027136,59.8950251 44.798593,59.6083417 C44.6979899,59.3195477 44.5435678,59.0782412 44.328995,58.8798492 C44.1977889,58.7560302 44.0437186,58.6617588 43.8625628,58.5980905 C43.6880905,58.5277387 43.5002513,58.4957286 43.3088945,58.4957286 C43.0774372,58.4957286 42.879397,58.5312563 42.7084422,58.601608 C42.541005,58.6719598 42.3795477,58.7845226 42.2286432,58.9368342 C42.051005,59.1130653 41.9131156,59.3364322 41.808995,59.6083417 C41.708392,59.8798995 41.6584422,60.1616583 41.6584422,60.4501005 C41.6584422,60.7821608 41.708392,61.0878392 41.8125126,61.3646734 C41.9166332,61.6397487 42.0844221,61.8761307 42.3123618,62.0773367 C42.4432161,62.1913065 42.5944724,62.2785427 42.7654271,62.340804 C42.9332161,62.3995477 43.1143719,62.4280402 43.3025628,62.4280402 C43.5136181,62.4280402 43.7081407,62.3928643 43.8892965,62.3221608 C44.0739698,62.2482915 44.2315578,62.1459296 44.3694472,62.0105025 C44.5604523,61.8223116 44.7046734,61.5978894 44.8017588,61.3309045 C44.9058794,61.0656784 44.9565327,60.7874372 44.9565327,60.4954774 Z"/>
    <path fill="#FFFFFE" d="M51.1967337,62.2873367 L51.1365829,62.9377387 L50.8579899,62.9377387 C50.4182915,62.9377387 50.009196,62.899397 49.6264824,62.8220101 C49.2441206,62.741809 48.9018593,62.620804 48.6000503,62.4663819 C48.1870854,62.251809 47.8687437,61.9700503 47.6372864,61.6175879 C47.4058291,61.2654774 47.2915075,60.8711558 47.2915075,60.4367337 C47.2915075,60.0476884 47.3952764,59.6938191 47.6070352,59.3698492 C47.8180905,59.0409548 48.0935176,58.7760804 48.4322613,58.5678392 C48.7375879,58.38 49.1034171,58.2392965 49.529397,58.1404523 C49.9585427,58.0412563 50.4017588,57.9909548 50.8579899,57.9909548 L51.0658794,57.9909548 L51.1063317,58.6403015 L50.9487437,58.6403015 C50.5727136,58.6403015 50.2473367,58.6652764 49.9789447,58.7088945 C49.7137186,58.7525126 49.4555276,58.8228643 49.2040201,58.9217085 C48.8649246,59.0525628 48.6000503,59.2558794 48.4020101,59.5344724 C48.2039698,59.8130653 48.1068844,60.1113568 48.1068844,60.4268844 C48.1068844,60.8060804 48.2004523,61.1261809 48.3819598,61.3826131 C48.569799,61.6397487 48.8146231,61.8360302 49.1203015,61.9767337 C49.361608,62.0857789 49.63,62.1645729 49.9282915,62.2152261 C50.2272864,62.2616583 50.5428141,62.2873367 50.8780402,62.2873367 L51.1967337,62.2873367"/>
    <path stroke="#FFFFFE" stroke-width=".5" d="M51.1967337,62.2873367 L51.1365829,62.9377387 L50.8579899,62.9377387 C50.4182915,62.9377387 50.009196,62.899397 49.6264824,62.8220101 C49.2441206,62.741809 48.9018593,62.620804 48.6000503,62.4663819 C48.1870854,62.251809 47.8687437,61.9700503 47.6372864,61.6175879 C47.4058291,61.2654774 47.2915075,60.8711558 47.2915075,60.4367337 C47.2915075,60.0476884 47.3952764,59.6938191 47.6070352,59.3698492 C47.8180905,59.0409548 48.0935176,58.7760804 48.4322613,58.5678392 C48.7375879,58.38 49.1034171,58.2392965 49.529397,58.1404523 C49.9585427,58.0412563 50.4017588,57.9909548 50.8579899,57.9909548 L51.0658794,57.9909548 L51.1063317,58.6403015 L50.9487437,58.6403015 C50.5727136,58.6403015 50.2473367,58.6652764 49.9789447,58.7088945 C49.7137186,58.7525126 49.4555276,58.8228643 49.2040201,58.9217085 C48.8649246,59.0525628 48.6000503,59.2558794 48.4020101,59.5344724 C48.2039698,59.8130653 48.1068844,60.1113568 48.1068844,60.4268844 C48.1068844,60.8060804 48.2004523,61.1261809 48.3819598,61.3826131 C48.569799,61.6397487 48.8146231,61.8360302 49.1203015,61.9767337 C49.361608,62.0857789 49.63,62.1645729 49.9282915,62.2152261 C50.2272864,62.2616583 50.5428141,62.2873367 50.8780402,62.2873367 L51.1967337,62.2873367 Z"/>
    <path fill="#FFFFFE" d="M56.5547236,62.2873367 L56.4942211,62.9377387 L56.2159799,62.9377387 C55.7762814,62.9377387 55.3671859,62.899397 54.9844724,62.8220101 C54.6024623,62.741809 54.260201,62.620804 53.958392,62.4663819 C53.5454271,62.251809 53.2263819,61.9700503 52.9949246,61.6175879 C52.7638191,61.2654774 52.6494975,60.8711558 52.6494975,60.4367337 C52.6494975,60.0476884 52.7536181,59.6938191 52.9650251,59.3698492 C53.1764322,59.0409548 53.4515075,58.7760804 53.7902513,58.5678392 C54.0955779,58.38 54.461407,58.2392965 54.8873869,58.1404523 C55.3168844,58.0412563 55.7597487,57.9909548 56.2159799,57.9909548 L56.4238693,57.9909548 L56.4646734,58.6403015 L56.3063819,58.6403015 C55.9310553,58.6403015 55.6053266,58.6652764 55.3369347,58.7088945 C55.0720603,58.7525126 54.8135176,58.8228643 54.5620101,58.9217085 C54.2264322,59.0525628 53.958392,59.2558794 53.76,59.5344724 C53.5623116,59.8130653 53.4648744,60.1113568 53.4648744,60.4268844 C53.4648744,60.8060804 53.5556281,61.1261809 53.7399497,61.3826131 C53.9281407,61.6397487 54.1729648,61.8360302 54.4779397,61.9767337 C54.7199497,62.0857789 54.9844724,62.1645729 55.2866332,62.2152261 C55.5852764,62.2616583 55.900804,62.2873367 56.2360302,62.2873367 L56.5547236,62.2873367"/>
    <path stroke="#FFFFFE" stroke-width=".5" d="M56.5547236,62.2873367 L56.4942211,62.9377387 L56.2159799,62.9377387 C55.7762814,62.9377387 55.3671859,62.899397 54.9844724,62.8220101 C54.6024623,62.741809 54.260201,62.620804 53.958392,62.4663819 C53.5454271,62.251809 53.2263819,61.9700503 52.9949246,61.6175879 C52.7638191,61.2654774 52.6494975,60.8711558 52.6494975,60.4367337 C52.6494975,60.0476884 52.7536181,59.6938191 52.9650251,59.3698492 C53.1764322,59.0409548 53.4515075,58.7760804 53.7902513,58.5678392 C54.0955779,58.38 54.461407,58.2392965 54.8873869,58.1404523 C55.3168844,58.0412563 55.7597487,57.9909548 56.2159799,57.9909548 L56.4238693,57.9909548 L56.4646734,58.6403015 L56.3063819,58.6403015 C55.9310553,58.6403015 55.6053266,58.6652764 55.3369347,58.7088945 C55.0720603,58.7525126 54.8135176,58.8228643 54.5620101,58.9217085 C54.2264322,59.0525628 53.958392,59.2558794 53.76,59.5344724 C53.5623116,59.8130653 53.4648744,60.1113568 53.4648744,60.4268844 C53.4648744,60.8060804 53.5556281,61.1261809 53.7399497,61.3826131 C53.9281407,61.6397487 54.1729648,61.8360302 54.4779397,61.9767337 C54.7199497,62.0857789 54.9844724,62.1645729 55.2866332,62.2152261 C55.5852764,62.2616583 55.900804,62.2873367 56.2360302,62.2873367 L56.5547236,62.2873367 Z"/>
    <path fill="#FFFFFE" d="M62.9701005,60.4603015 C62.9701005,60.8377387 62.899397,61.1965327 62.7583417,61.5409045 C62.620804,61.8828141 62.4231156,62.1744221 62.1649246,62.418191 C61.9433166,62.6225628 61.6981407,62.7769849 61.4265829,62.8825126 C61.1613568,62.9919095 60.8595477,63.0453769 60.5172864,63.0453769 C60.198593,63.0453769 59.8964322,62.9919095 59.6178392,62.8895477 C59.3364322,62.7819095 59.0880905,62.6260804 58.8668342,62.4227638 C58.6149749,62.1867337 58.4169347,61.8961809 58.2762312,61.548995 C58.1418593,61.2035678 58.0715075,60.8377387 58.0715075,60.4501005 C58.0715075,60.0811055 58.1284925,59.739196 58.2459799,59.4268342 C58.3666332,59.1130653 58.5513065,58.8316583 58.8028141,58.5847236 C59.0244221,58.3567839 59.2861307,58.1840704 59.5847739,58.0630653 C59.8795477,57.9406533 60.1919095,57.8801508 60.5243216,57.8801508 C60.8697487,57.8801508 61.1817588,57.9374874 61.4631658,58.0496985 C61.748794,58.158392 61.9967839,58.3265327 62.218392,58.5495477 C62.4734171,58.8059799 62.6612563,59.091608 62.7819095,59.4134673 C62.9060804,59.7286432 62.9701005,60.0811055 62.9701005,60.4603015 M62.1677387,60.4954774 C62.1677387,60.1919095 62.1177889,59.8950251 62.0136683,59.6083417 C61.9130653,59.3195477 61.7554774,59.0782412 61.5440704,58.8798492 C61.4132161,58.7560302 61.258794,58.6617588 61.0776382,58.5980905 C60.8996482,58.5277387 60.7184925,58.4957286 60.5243216,58.4957286 C60.2925126,58.4957286 60.0944724,58.5312563 59.9235176,58.601608 C59.7522111,58.6719598 59.5946231,58.7845226 59.4437186,58.9368342 C59.2657286,59.1130653 59.1250251,59.3364322 59.0244221,59.6083417 C58.9203015,59.8798995 58.8731658,60.1616583 58.8731658,60.4501005 C58.8731658,60.7821608 58.9238191,61.0878392 59.0275879,61.3646734 C59.1317085,61.6397487 59.2994975,61.8761307 59.5277889,62.0773367 C59.6586432,62.1913065 59.809196,62.2785427 59.9773367,62.340804 C60.1482915,62.3995477 60.3259296,62.4280402 60.5172864,62.4280402 C60.7286935,62.4280402 60.9232161,62.3928643 61.1043719,62.3221608 C61.2858794,62.2482915 61.4466332,62.1459296 61.5841709,62.0105025 C61.7720101,61.8223116 61.9165829,61.5978894 62.0203518,61.3309045 C62.1177889,61.0656784 62.1677387,60.7874372 62.1677387,60.4954774"/>
    <path stroke="#FFFFFE" stroke-width=".5" d="M62.9701005,60.4603015 C62.9701005,60.8377387 62.899397,61.1965327 62.7583417,61.5409045 C62.620804,61.8828141 62.4231156,62.1744221 62.1649246,62.418191 C61.9433166,62.6225628 61.6981407,62.7769849 61.4265829,62.8825126 C61.1613568,62.9919095 60.8595477,63.0453769 60.5172864,63.0453769 C60.198593,63.0453769 59.8964322,62.9919095 59.6178392,62.8895477 C59.3364322,62.7819095 59.0880905,62.6260804 58.8668342,62.4227638 C58.6149749,62.1867337 58.4169347,61.8961809 58.2762312,61.548995 C58.1418593,61.2035678 58.0715075,60.8377387 58.0715075,60.4501005 C58.0715075,60.0811055 58.1284925,59.739196 58.2459799,59.4268342 C58.3666332,59.1130653 58.5513065,58.8316583 58.8028141,58.5847236 C59.0244221,58.3567839 59.2861307,58.1840704 59.5847739,58.0630653 C59.8795477,57.9406533 60.1919095,57.8801508 60.5243216,57.8801508 C60.8697487,57.8801508 61.1817588,57.9374874 61.4631658,58.0496985 C61.748794,58.158392 61.9967839,58.3265327 62.218392,58.5495477 C62.4734171,58.8059799 62.6612563,59.091608 62.7819095,59.4134673 C62.9060804,59.7286432 62.9701005,60.0811055 62.9701005,60.4603015 Z M62.1677387,60.4954774 C62.1677387,60.1919095 62.1177889,59.8950251 62.0136683,59.6083417 C61.9130653,59.3195477 61.7554774,59.0782412 61.5440704,58.8798492 C61.4132161,58.7560302 61.258794,58.6617588 61.0776382,58.5980905 C60.8996482,58.5277387 60.7184925,58.4957286 60.5243216,58.4957286 C60.2925126,58.4957286 60.0944724,58.5312563 59.9235176,58.601608 C59.7522111,58.6719598 59.5946231,58.7845226 59.4437186,58.9368342 C59.2657286,59.1130653 59.1250251,59.3364322 59.0244221,59.6083417 C58.9203015,59.8798995 58.8731658,60.1616583 58.8731658,60.4501005 C58.8731658,60.7821608 58.9238191,61.0878392 59.0275879,61.3646734 C59.1317085,61.6397487 59.2994975,61.8761307 59.5277889,62.0773367 C59.6586432,62.1913065 59.809196,62.2785427 59.9773367,62.340804 C60.1482915,62.3995477 60.3259296,62.4280402 60.5172864,62.4280402 C60.7286935,62.4280402 60.9232161,62.3928643 61.1043719,62.3221608 C61.2858794,62.2482915 61.4466332,62.1459296 61.5841709,62.0105025 C61.7720101,61.8223116 61.9165829,61.5978894 62.0203518,61.3309045 C62.1177889,61.0656784 62.1677387,60.7874372 62.1677387,60.4954774 Z"/>
    <path fill="#FFFFFE" d="M0.0619095477,34.9412563 L37.0117085,23.0929648 L26.3154271,19.890201 L38.9340704,21.7826633 L34.8005528,0.133668342 L34.9447739,0.133668342 L40.0579397,19.3907035 L43.248392,9.41060302 L41.1649246,21.7974372 L69.8075879,13.9148744 L69.8075879,14.0422111 L42.9501005,23.1633166 C42.9501005,23.1633166 53.7972864,25.8458291 53.8437186,25.97 C53.7501508,26.1124623 41.3460804,24.2921106 41.3460804,24.2921106 L44.9262814,43.4633166 L40.0347236,25.8036181 L36.5115075,37.7683417 L38.6554774,24.4398492 L0.0619095477,35.0823116 L0.0619095477,34.9412563"/>
  </g>
</svg>
