<svg xmlns="http://www.w3.org/2000/svg" width="40" height="40" viewBox="0 0 40 40">
    <path fill="#7D3DAF" fill-rule="nonzero" d="M0 0h40v40H0V0zm32.65 12.894l-.007-.032c-.64-2.583-3.52-5.355-6.165-5.932l-.03-.006a34.26 34.26 0 0 0-12.896 0l-.03.006c-2.645.577-5.526 3.349-6.165 5.932l-.007.032a25.24 25.24 0 0 0 0 10.873l.007.031c.612 2.473 3.278 5.118 5.825 5.845v2.883c0 1.044 1.272 1.557 1.995.803l2.921-3.036c.634.035 1.268.055 1.902.055a34.37 34.37 0 0 0 6.448-.612l.03-.006c2.645-.577 5.526-3.348 6.165-5.932l.007-.031a25.24 25.24 0 0 0 0-10.873zm-2.311 10.35c-.427 1.685-2.614 3.78-4.352 4.167a31.933 31.933 0 0 1-6.86.554.163.163 0 0 0-.12.05l-2.133 2.189-2.27 2.328a.266.266 0 0 1-.457-.183v-4.777a.165.165 0 0 0-.133-.16l-.002-.001c-1.738-.387-3.924-2.482-4.351-4.167-.711-3.261-.711-6.567 0-9.827.427-1.686 2.613-3.78 4.351-4.168a31.907 31.907 0 0 1 11.975 0c1.739.387 3.925 2.482 4.352 4.168a22.88 22.88 0 0 1 0 9.827zm-6.559 2.205c.233-.072-.267-.082 0 0 .233-.072.479-.108.685-.218.73-.392 1.235-1.006 1.583-1.744.19-.403.073-.793-.264-1.09-.35-.308-.729-.573-1.109-.844a25.996 25.996 0 0 0-1.179-.804c-.402-.254-.878-.25-1.251.055-.382.312-.558.91-1.103.973-.325.038-.609-.099-.89-.216-1.765-.734-2.84-2.097-3.478-3.85a.779.779 0 0 1 .052-.683c.07-.115.167-.2.27-.285.117-.096.232-.197.357-.282.518-.351.596-.982.31-1.499-.463-.839-1.037-1.6-1.66-2.324-.289-.335-.679-.445-1.074-.255a3.991 3.991 0 0 0-1.337 1.005c-.387.46-.755 1.09-.505 1.699.274.669.542 1.342.86 1.99.673 1.365 1.468 2.656 2.484 3.8 1.786 2.01 4.041 3.321 6.491 4.338.237.098.491.152.758.234zm-3.773-13.91c-.062 0 3.205.09 0 0-.062 0-.124-.003-.186 0-.228.013-.429.203-.386.442.05.284.35.298.58.322.361.038.727.055 1.085.119 2.376.424 4.28 2.399 4.612 4.786.063.453.086.91.119 1.367.016.23.132.445.389.442.249-.003.38-.222.361-.453-.043-.547-.077-1.1-.173-1.64-.564-3.168-3.196-5.295-6.401-5.385zm4.87 6.314c-.013-.22-.005.04 0 0-.013-.22-.02-.386-.033-.553-.005-.068-.021-.134-.031-.201-.222-1.485-.981-2.596-2.311-3.3-.654-.347-1.365-.506-2.1-.547-.224-.013-.374.135-.384.34-.01.22.108.361.33.392.184.025.369.044.552.074.417.07.83.185 1.211.372.63.309 1.168.819 1.52 1.426.342.59.49 1.269.491 1.948 0 .103.005.213.039.31.112.324.6.284.685-.038.023-.089.026-.183.031-.223zm-1.993-.077c.122-.009-.268.004 0 0 .122-.009.247-.093.286-.262.023-.1.013-.208.004-.311-.127-1.463-1.015-2.106-2.258-2.195a.385.385 0 0 0-.406.31c-.033.2.084.372.298.424.196.048.4.032.597.09.155.044.302.113.433.208.276.202.45.506.531.834.041.167.056.34.076.512.027.246.17.394.439.39z"/>
</svg>
