<svg xmlns="http://www.w3.org/2000/svg" width="24" height="24" viewBox="0 0 24 24">
    <path fill="#8A93A3" fill-rule="evenodd" d="M15.667 12c0-.645-.167-1.252-.499-1.819a3.72 3.72 0 0 0-1.35-1.349A3.537 3.537 0 0 0 12 8.333V5.87c1.115 0 2.141.274 3.08.822a6.094 6.094 0 0 1 2.23 2.229c.547.939.82 1.965.82 3.08h-2.463zm4.869 0c0-1.564-.381-3.002-1.144-4.312a8.61 8.61 0 0 0-3.08-3.08c-1.31-.763-2.748-1.144-4.312-1.144V1c1.995 0 3.843.499 5.544 1.496a10.982 10.982 0 0 1 3.96 3.96A10.77 10.77 0 0 1 23 12h-2.464zm1.261 4.283c.333 0 .616.117.851.352.235.234.352.518.352.85v4.312c0 .333-.117.616-.352.851a1.159 1.159 0 0 1-.85.352c-2.817 0-5.515-.548-8.097-1.643a20.715 20.715 0 0 1-6.6-4.458 20.715 20.715 0 0 1-4.458-6.6A20.522 20.522 0 0 1 1 2.203c0-.333.117-.616.352-.851S1.87 1 2.202 1h4.313c.332 0 .616.117.85.352.235.235.352.518.352.85 0 1.604.225 3.051.675 4.342.059.215.068.44.03.675a.977.977 0 0 1-.323.586L5.4 10.504a18.427 18.427 0 0 0 3.403 4.664 18.819 18.819 0 0 0 4.693 3.432l2.699-2.699a.977.977 0 0 1 .586-.322c.235-.04.46-.03.675.029 1.29.45 2.738.675 4.341.675z"/>
</svg>
