<svg xmlns="http://www.w3.org/2000/svg" width="15" height="15" viewBox="0 0 15 15">
    <g fill="none" fill-rule="evenodd">
        <path fill="#4AD9BD" d="M14.289 15H.621A7.43 7.43 0 0 1 0 12.016V7.565a7.455 7.455 0 0 1 14.91 0v4.45A7.43 7.43 0 0 1 14.29 15z"/>
        <path fill="#FFF" d="M9.046 3.698l-.458.182c-.89.352-1.596 1.185-1.937 2.287l-.005.02c-.126.407-.197.83-.209 1.25-.014.376.014.747.084 1.1a1.512 1.512 0 0 1-.566-.162c-.437-.218-.79-.638-.99-1.173l.007-.003c-.015-.033-.028-.068-.043-.102-.014-.044-.03-.09-.042-.138l-.006.003a2.903 2.903 0 0 1-.15-1.033v-.037h-.584l-.614-.035v.346l-.004 4.789c.212-.027.426-.043.646-.043.186 0 .371.009.554.032l.001-1.763c.234.241.5.438.787.58.5.252 1.046.327 1.574.228.332.532.773.95 1.276 1.205.224.112.455.187.689.232l-1.038 1.278a7.1 7.1 0 0 1 .834 1.097l2.492-3.068.002-.001.003-.001a3.4 3.4 0 0 0 .67-.747l-.915-.988c-.15.227-.333.411-.552.557-.061.043-.13.08-.203.114l-.002-.006a.375.375 0 0 1-.042.028c-.024.01-.044.022-.066.03l.002.01c-.452.26-.969.277-1.435.04a1.774 1.774 0 0 1-.502-.373c.244-.201.461-.447.649-.725.218-.325.393-.696.518-1.101l.006-.017a4.82 4.82 0 0 0-.192-3.36l-.24-.532zM7.635 7.503c.009-.255.05-.51.126-.753l.006-.02c.139-.446.375-.823.679-1.086.08.457.053.938-.085 1.386l-.005.017a2.51 2.51 0 0 1-.315.666 1.984 1.984 0 0 1-.364.414 2.929 2.929 0 0 1-.042-.624z"/>
    </g>
</svg>
