<svg xmlns="http://www.w3.org/2000/svg" width="43" height="43" viewBox="0 0 43 43">
    <path fill="#4AD9BD" fill-rule="evenodd" d="M23.871 34.499l-.001.242a12.798 12.798 0 0 1-.036.662l-.032.34a10.858 10.858 0 0 1-.52 2.312l-.007.002a11.032 11.032 0 0 1-3.118 4.712l-.234.209h-8.964a2.06 2.06 0 0 0-.272.017l1.706-1.64h6.9a9.396 9.396 0 0 0 2.373-3.632c.056-.15.108-.3.157-.45v-.004a8.963 8.963 0 0 0 .347-1.608 9.699 9.699 0 0 0 .073-1.111V34.5a9.156 9.156 0 0 0-.15-1.663 4.119 4.119 0 0 0-.043-.231 2.758 2.758 0 0 0-.052-.228 3.29 3.29 0 0 0-.054-.226 8.161 8.161 0 0 0-.247-.802c-.02-.061-.043-.118-.065-.177a9.466 9.466 0 0 0-9.12-6.071l-.01-.01h-.001c-.43.014-.857.053-1.28.126-.491-.454-.973-.901-1.43-1.34.37-.103.745-.188 1.125-.253a.077.077 0 0 1-.015-.014l.326-.034.018-.002a11.093 11.093 0 0 1 11.577 6.238 10.565 10.565 0 0 1 .347.818v.003a9.903 9.903 0 0 1 .281.85 9.848 9.848 0 0 1 .248 1.067c.033.18.062.364.083.546a10.868 10.868 0 0 1 .09 1.403m-2.035 3.402a7.856 7.856 0 0 1-.486.634l-.019.003c.18-.21.35-.422.505-.637m-3.832.965v.516h-1.629v-.516l-.003-.18c0-.042-.003-.083-.004-.125 0-.005 0-.01-.002-.017a.005.005 0 0 0 0-.006c-.004-.076-.009-.153-.015-.229-.002-.048-.008-.097-.014-.146-.003-.042-.01-.083-.015-.126a4.22 4.22 0 0 0-.024-.167 2.259 2.259 0 0 0-.026-.172c-.006-.037-.012-.075-.02-.113a6.154 6.154 0 0 0-.04-.199c-.014-.06-.027-.122-.044-.182-.016-.06-.03-.122-.047-.182a2.947 2.947 0 0 0-.052-.179 2.074 2.074 0 0 0-.057-.18c-.002-.006-.002-.01-.005-.014a7.75 7.75 0 0 0-.262-.695c-.023-.057-.05-.116-.074-.174l-.104-.219c-.034-.071-.069-.145-.107-.216-.036-.073-.076-.145-.115-.217a6.895 6.895 0 0 0-.218-.386 4.628 4.628 0 0 0-.102-.172 15.17 15.17 0 0 0-.827-1.204c-1.376-1.812-3.23-3.514-5.052-5.191l-.085-.08c-.175-.16-.349-.318-.522-.48-1.516-1.397-2.923-2.742-3.966-4.125l-.006-.007a29.835 29.835 0 0 1-1.545-2.247l-.37-.6c.007.003.014.005.022.01-.238-.408-.436-.781-.604-1.114.465.126.914.298 1.426.49.284.11.582.22.9.333.394.637.88 1.358 1.48 2.152.182.24.375.48.58.72.405.47.854.945 1.334 1.424.398.398.815.796 1.251 1.205h.002c.393.369.797.742 1.208 1.12l.446.408c1.857 1.714 3.792 3.547 5.2 5.568v.001c.087.125.172.25.254.377.125.19.245.379.358.572.057.097.114.193.167.29.056.095.109.192.16.293.071.13.136.26.2.394.039.08.075.16.112.239.077.169.15.34.217.51l.081.215.06.165.054.163c.018.054.034.108.05.16.035.107.066.216.096.325l.041.165c.017.06.031.121.045.185l.037.17a10.837 10.837 0 0 1 .087.488l.03.228a.101.101 0 0 1 .002.022c.01.082.018.166.027.248l.017.251c.005.08.008.159.01.24l.002.213m-4.231-24.711l.01-.054a.415.415 0 0 1 .397-.287c.213 0 .39.157.412.366.002.015.005.03.005.049l.001.048c.003.063.005.132.005.203a.737.737 0 0 1-.006.1c-.036.266-.182.578-.426.91a1.392 1.392 0 0 1-.329-.584 1.892 1.892 0 0 1-.072-.43 2.354 2.354 0 0 1-.007-.18l.01-.141zm5.629-1.875a5.475 5.475 0 0 0-10.153-.028c-2.063.38-4.072 1-5.99 1.846-.023.009-.046.017-.068.029a7.728 7.728 0 0 0-.693.32 6.739 6.739 0 0 0-.38.207h-.001c-.031.017-.064.034-.095.055-.181.104-.36.213-.531.326a7.462 7.462 0 0 0-.335.233l-.026.018a5.687 5.687 0 0 0-.498.447l-.217.22-.338.35-.015.016.006.003c.238.136.56.306.936.494a47.02 47.02 0 0 0 1.031.492c.488.225 1.012.453 1.543.664l.057.025.006.002c.183.066.368.137.556.207.277.106.565.215.866.32 1.06.37 2.299.697 4 .697.888 0 1.717-.087 2.467-.263.262-.059.513-.13.753-.212a5.653 5.653 0 0 0 .342-.122c.152-.057.301-.12.444-.188.052-.022.104-.048.155-.075.043-.022.088-.044.13-.067.143-.072.277-.151.41-.236h.001a4.452 4.452 0 0 0 .287-.193c.043-.03.084-.062.125-.093.043-.032.083-.064.124-.097.039-.03.077-.061.114-.094l.124-.107.157-.137v-.008a6.176 6.176 0 0 0 .363-.37c.567-.614 1.167-1.497 1.167-2.481 0-.096-.002-.19-.008-.279a2.034 2.034 0 0 0-2.038-2.003 2.04 2.04 0 0 0-2.012 1.694l-.009.022c-.006.057-.022.19-.025.24-.004.057 0 .205.002.245v.011a4.11 4.11 0 0 0 .03.387c.085.732.37 1.35.828 1.826-.948.64-2.295.976-3.93.976-1.888 0-3.055-.444-4.29-.91a23.94 23.94 0 0 0-.586-.218 14.533 14.533 0 0 0-1.267-.406c.315-.174.643-.333.962-.461l.005-.003.02-.008A24.843 24.843 0 0 1 5.6 14.92h.002a25.573 25.573 0 0 1 4.926-1.225l.002-.01a3.836 3.836 0 0 1 3.79-3.219 3.835 3.835 0 0 1 3.793 3.235v.005c.203.03.403.062.601.099v.006a25.575 25.575 0 0 1 11.136 4.889l.278.212s.002-.001.002-.003c.252.2.503.403.75.613.243-.492.513-.972.807-1.441a27.3 27.3 0 0 0-12.284-5.8zm-.61-8.053a2.143 2.143 0 0 1-.052-.596 2.22 2.22 0 0 1 .154-.719l.007-.018c.17-.427.46-.785.83-1.036.1.436.067.894-.104 1.321l-.005.017a2.209 2.209 0 0 1-.386.636 2.142 2.142 0 0 1-.444.395zm4.19.864a2.18 2.18 0 0 1-.675.532c-.075.041-.16.077-.248.11l-.003-.005a.405.405 0 0 1-.052.024c-.028.011-.053.023-.079.03l.002.01a2.262 2.262 0 0 1-1.754.039 2.195 2.195 0 0 1-.614-.358 3.684 3.684 0 0 0 1.426-1.742l.008-.017a3.675 3.675 0 0 0-.235-3.207L20.465 0l-.56.173a3.704 3.704 0 0 0-2.367 2.184l-.008.017c-.153.39-.24.794-.255 1.195-.016.359.018.713.103 1.05a2.232 2.232 0 0 1-.692-.155 2.24 2.24 0 0 1-1.21-1.12l.007-.003c-.017-.03-.034-.065-.051-.097a1.706 1.706 0 0 1-.053-.132l-.006.003a2.24 2.24 0 0 1-.184-.986v-.035h-.715l-.75-.034c-.002.012 0 .023 0 .032h-.002v.299l-.003 4.571a7.773 7.773 0 0 1 1.467-.01l.001-1.683c.287.23.612.417.962.554.611.24 1.28.312 1.927.216.406.509.945.908 1.559 1.151.274.107.557.18.842.221l-1.269 1.22c.374.314.717.666 1.02 1.048l3.048-2.928.002-.002.004-.001c.306-.197.582-.434.82-.713l-1.12-.944zm19.956 20.653c0 .112-.002.227-.006.338a15.995 15.995 0 0 1-.051.922c-.014.14-.028.285-.047.425-.032.264-.07.528-.118.79-.022.114-.043.228-.068.342-.05.245-.106.49-.172.734a10.797 10.797 0 0 1-.248.838c-.024.071-.048.143-.074.212a13.756 13.756 0 0 1-1.47 2.981c-.006.014-.015.025-.022.037l-.006.008-1.044 1.586-.43-1.85-.11-.456a29.55 29.55 0 0 0-.106-.391l-.016-.064c-.125-.46-.262-.917-.414-1.367l-.093-.278v-.002a26.372 26.372 0 0 0-.196-.547c-.036-.089-.07-.18-.105-.271-.047-.122-.095-.24-.143-.362a15.93 15.93 0 0 0-.164-.392c-.07-.17-.143-.338-.222-.507-.15-.335-.309-.67-.476-1-.051-.102-.105-.205-.158-.308a25.155 25.155 0 0 0-1.23-2.098l.001-.006a24.78 24.78 0 0 0-.697-1.019c.172-.62.393-1.224.67-1.813.23.291.452.587.667.887l.006-.007.208.307.037.055.21.31c.212.315.42.634.618.955.065.11.132.216.195.325.066.106.129.214.193.325.059.1.115.2.173.301.127.228.252.458.372.688v.003c.08.15.158.304.235.458l.073.149a13.27 13.27 0 0 1 .317.666c.046.096.09.191.13.287.028.063.056.125.082.188.06.136.12.273.178.412l.017.041v.002c.148.35.287.707.415 1.068a22.03 22.03 0 0 1 .382 1.12 12.096 12.096 0 0 0 .988-3.548c.007-.06.016-.12.02-.179a12.3 12.3 0 0 0-.084-3.233l-.044-.259-.046-.239a14.882 14.882 0 0 0-.102-.462 12.556 12.556 0 0 0-.24-.85 12.252 12.252 0 0 0-1.977-3.755 12.27 12.27 0 0 0-1.307-1.441 13.995 13.995 0 0 0-3.344 4.311c-.18.361-.343.73-.49 1.1a14.66 14.66 0 0 0-.483 1.476 13.203 13.203 0 0 0-.177.764c-.028.128-.05.256-.074.387a13.773 13.773 0 0 0-.13.957l-.019.216a9.682 9.682 0 0 0-.028.396 6.558 6.558 0 0 0-.014.324l-.005.154c-.001.102-.004.205-.004.31v.008c0 .125.003.249.006.374.005.226.017.454.036.679a16.7 16.7 0 0 0 3.716 9.854c.214.267.438.527.673.784.904.985 1.92 1.86 3.017 2.601l2.2 1.482H23.55c-.103 0-.205.008-.302.023l1.71-1.645h12.335c-.487-.43-.953-.887-1.394-1.37a18.319 18.319 0 0 1-4.81-11.605 10.704 10.704 0 0 1-.04-.817 9.475 9.475 0 0 1-.006-.36v-.008c0-.148 0-.293.007-.438.003-.108.006-.215.012-.32l.01-.18v-.016c.009-.125.016-.249.028-.372a15.1 15.1 0 0 1 .25-1.74c.028-.144.059-.286.091-.429.024-.095.046-.191.073-.285.022-.096.048-.19.075-.284a6.69 6.69 0 0 1 .07-.252l.038-.12c.02-.075.044-.15.07-.226l.032-.1a15.301 15.301 0 0 1 .836-2.039 15.538 15.538 0 0 1 4.323-5.301l.003-.004.52-.407.508.428a13.94 13.94 0 0 1 4.62 7.616c.024.123.05.247.076.37l.066.372c.02.124.039.247.056.372.017.126.034.253.048.38.013.126.027.252.037.378.008.125.019.252.025.377v.01c.007.1.01.2.013.3l.006.145.003.314"/>
</svg>
