<svg xmlns="http://www.w3.org/2000/svg" width="130" height="50" viewBox="0 0 130 50">
  <g fill="none" fill-rule="evenodd">
    <path fill="#C7C7C7" fill-rule="nonzero" d="M20.5648241,39.2 C32.1407035,43.56 47.5708543,45.96 64.0201005,45.96 C80.4693467,45.96 95.9190955,43.56 107.494975,39.2 C114.027638,36.7533333 118.81608,33.8666667 121.58593,30.7666667 C118.71809,33.4333333 114.321608,35.9133333 108.625126,38.06 C97.0623116,42.42 81.6582915,44.8266667 65.1633166,44.8266667 C48.6683417,44.8266667 33.2643216,42.42 21.6949749,38.06 C11.0075377,34.06 4.87336683,28.7266667 4.87336683,23.5933333 C4.87336683,21.5933333 5.81407035,19.5333333 7.59748744,17.5933333 C5.08241206,19.9133333 3.74321608,22.3466667 3.74321608,24.7666667 C3.74321608,29.9266667 9.87738693,35.2 20.5648241,39.2266667"/>
    <path fill="#EDE804" fill-rule="nonzero" d="M129.784422,24.8133333 C129.784422,38.52 100.740201,49.6266667 64.8954774,49.6266667 C29.0507538,49.6266667 0,38.52 0,24.8133333 C0,11.1066667 29.0572864,0 64.8954774,0 C100.733668,0 129.784422,11.1066667 129.784422,24.8133333"/>
    <path fill="#C61F35" fill-rule="nonzero" d="M19.7090452,9.61333333 C8.60351759,13.84 2.20150754,19.3866667 2.20150754,24.82 C2.20150754,30.2533333 8.5839196,35.7866667 19.7090452,40 C31.761809,44.6066667 47.8321608,47.1333333 64.9542714,47.1333333 C82.0763819,47.1333333 98.1532663,44.6066667 110.20603,40 C121.311558,35.76 127.707035,30.22 127.707035,24.7933333 C127.707035,19.3666667 121.324623,13.8133333 110.20603,9.58666667 C98.1532663,5 82.1155779,2.47333333 64.9542714,2.47333333 C47.7929648,2.47333333 31.761809,5.02666667 19.7090452,9.61333333"/>
    <path fill="#FFF" fill-rule="nonzero" d="M109.056281,10.4466667 C97.3954774,6 81.841206,3.55333333 65.2613065,3.55333333 C48.681407,3.55333333 33.1271357,6 21.459799,10.4466667 C14.9271357,12.94 10.0603015,15.9133333 7.26432161,19.04 C10.1517588,16.3733333 14.5874372,13.7933333 20.3296482,11.6066667 C32.0100503,7.16 47.538191,4.71333333 64.1180905,4.71333333 C80.6979899,4.71333333 96.2522613,7.16 107.886935,11.6066667 C118.652764,15.7066667 124.832663,21.0866667 124.832663,26.3466667 C124.832663,28.4066667 123.878894,30.48 122.082412,32.4866667 C124.617085,30.1266667 125.969347,27.64 125.969347,25.1866667 C125.969347,19.92 119.789447,14.52 109.023618,10.4466667"/>
    <path fill="#000" fill-rule="nonzero" d="M20.6693467,39.5333333 C32.3301508,43.9266667 47.8844221,46.3466667 64.4708543,46.3466667 C81.0572864,46.3466667 96.6050251,43.9266667 108.239698,39.5333333 C114.772362,37.0666667 119.645729,34.1333333 122.441709,31.04 C119.547739,33.7066667 115.11206,36.22 109.376382,38.3733333 C97.7155779,42.7666667 82.1613065,45.1866667 65.6075377,45.1866667 C49.0537688,45.1866667 33.4668342,42.7666667 21.8386935,38.3733333 C11.040201,34.3266667 4.86683417,29.02 4.86683417,23.8133333 C4.86683417,21.7733333 5.81407035,19.7266667 7.61055276,17.74 C5.0758794,20.08 3.73015075,22.5266667 3.73015075,24.9666667 C3.73015075,30.1666667 9.90351759,35.48 20.6693467,39.5333333"/>
    <polyline fill="#FFF" fill-rule="nonzero" points="79.96 32.773 79.96 33.973 81.404 33.973 81.404 34.387 79.96 34.387 79.96 36.373 79.476 36.373 79.476 32.36 81.443 32.36 81.443 32.773"/>
    <path fill="#FFF" fill-rule="nonzero" d="M83.8532663 34.2133333L83.9969849 34.2133333C84.5457286 34.2133333 85.0944724 34.12 85.0944724 33.5 85.0944724 32.88 84.5718593 32.7733333 83.9904523 32.7733333L83.8532663 32.7733333 83.8532663 34.2133333zM83.8532663 36.3733333L83.3698492 36.3733333 83.3698492 32.3733333 83.9904523 32.3733333C84.8201005 32.3733333 85.5778894 32.5733333 85.5778894 33.48 85.5832145 33.7739786 85.4715771 34.0576116 85.2684629 34.2661486 85.0653486 34.4746855 84.7880964 34.5903246 84.5 34.5866667L85.8718593 36.3866667 85.2839196 36.3866667 83.9773869 34.6266667 83.859799 34.6266667 83.8532663 36.3733333zM89.2100503 33.2133333L88.4718593 34.82 89.9351759 34.82 89.2100503 33.2133333zM88.2758794 35.2333333L87.7532663 36.3733333 87.2306533 36.3733333 89.2296482 32.1666667 91.1894472 36.3733333 90.6537688 36.3733333 90.1507538 35.2333333 88.2758794 35.2333333z"/>
    <polyline fill="#FFF" fill-rule="nonzero" points="92.816 32.187 96.193 35.467 96.193 32.36 96.677 32.36 96.677 36.553 93.299 33.28 93.299 36.373 92.816 36.373"/>
    <path fill="#FFF" fill-rule="nonzero" d="M102.020603,33.24 C101.664808,32.90329 101.199261,32.7132517 100.71407,32.7066667 C99.8120978,32.7066667 99.0809045,33.4528588 99.0809045,34.3733333 C99.0809045,35.2938079 99.8120978,36.04 100.71407,36.04 C101.200136,36.0315991 101.665794,35.8391392 102.020603,35.5 L102.020603,36.0533333 C101.63476,36.3184539 101.179201,36.4579251 100.71407,36.4533333 C99.93938,36.5310118 99.1886685,36.153059 98.7776611,35.4784298 C98.3666538,34.8038007 98.3666538,33.9495326 98.7776611,33.2749035 C99.1886685,32.6002744 99.93938,32.2223216 100.71407,32.3 C101.178212,32.2884782 101.634514,32.4235204 102.020603,32.6866667"/>
    <polyline fill="#FFF" fill-rule="nonzero" points="103.987 32.36 106.234 32.36 106.234 32.773 104.464 32.773 104.464 33.973 106.182 33.973 106.182 34.387 104.464 34.387 104.464 35.967 106.234 35.967 106.234 36.373 103.987 36.373"/>
    <path fill="#000" fill-rule="nonzero" d="M25.9085427 28.74C27.920603 28.3933333 28.3452261 27.2866667 28.3321608 26.3266667 28.3321608 25.8266667 28.3321608 24.0333333 24.9547739 23.88 23.8311558 23.84 21.7603015 24.4333333 21.9366834 26.6733333 21.9758794 27.34 21.9366834 26.7066667 21.9366834 26.7066667 21.9366834 26.7066667 22.0869347 29.3733333 25.9085427 28.7066667M22.6879397 22.4666667C24.5749943 22.0949299 26.5264796 22.2728263 28.3190955 22.98 28.3190955 22.98 28.6718593 20.2533333 25.1899497 20.1466667 24.5366834 20.1466667 22.740201 20.24 22.1914573 21.9466667L19.5979899 21.9466667C19.5979899 21.9466667 19.7482412 18.1866667 25.6472362 18.6533333 28.1492462 18.8466667 30.2919598 19.6666667 30.5467337 22.2266667 30.6708543 23.4466667 30.5467337 30.3266667 30.5467337 30.3266667L28.3844221 30.3266667 28.3844221 29.3333333C28.3844221 29.3333333 26.640201 30.9466667 23.380402 30.52 22.0738693 30.36 19.4281407 29.6333333 18.9969849 26.66 18.9969849 26.66 18.3437186 23.16 22.6879397 22.4733333M105.443719 23.3333333C105.443719 23.3333333 104.966834 20.5533333 102.262312 20.5 100.700491 20.5521228 99.4059264 21.7518579 99.2050251 23.3333333L105.443719 23.3333333zM102.843719 25.4666667L99.0547739 25.4666667C99.0547739 25.4666667 99.0547739 28.56 102.510553 28.6333333 103.425126 28.6333333 105.012563 28.0933333 105.123618 26.94L108.128643 26.94C108.128643 26.94 107.645226 30.6 102.647739 30.7266667 100.91005 30.7266667 96.180402 30.3333333 96.180402 24.6666667 96.180402 24.6666667 95.8537688 18.6666667 102.294975 18.6666667 104.013065 18.6666667 108.403015 19.0466667 108.403015 25.4666667L102.843719 25.4666667zM89.4321608 20.6666667C89.4321608 20.6666667 86.0482412 20.6666667 86.1658291 22.62L86.1658291 30.3666667 83.5984925 30.3666667 83.5984925 18.8066667 86.0221106 18.8066667 86.0221106 19.88C86.0221106 19.88 86.2703518 19.08 89.4517588 18.7466667 89.4517588 18.7466667 94.7301508 18.38 94.860804 22.38L94.8281407 30.38 92.4045226 30.38 92.4045226 22.4333333C92.4045226 22.4333333 92.1824121 20.4333333 89.4517588 20.6533333M57.4874372 28.6666667C57.4874372 28.6666667 60.8648241 28.6666667 60.7537688 26.6666667L60.7537688 18.8866667 63.3668342 18.8866667 63.3668342 30.3266667 60.9170854 30.3266667 60.9170854 29.4533333C60.9170854 29.4533333 60.6361809 30.2266667 57.4547739 30.5866667 57.4547739 30.5866667 52.1829146 30.9266667 52.0718593 26.9266667L52.0718593 18.8866667 54.5281407 18.8866667 54.5281407 26.8466667C54.5281407 26.8466667 54.7306533 28.8866667 57.4874372 28.6666667M50.8371859 26.6666667L47.9758794 26.7133333C47.9758794 26.7133333 47.7929648 28.8666667 44.6638191 28.94 43.8145729 28.94 41.3974874 28.2266667 41.3974874 24.4066667 41.3974874 24.1133333 41.4628141 20.3466667 44.8859296 20.3466667 46.1924623 20.3466667 47.8125628 20.8533333 47.9562814 22.5266667L50.8567839 22.5266667C50.8567839 22.5266667 50.2035176 18.8066667 44.9773869 18.66 42.2728643 18.58 38.7713568 19.76 38.7713568 24.7933333 38.7713568 25.8933333 39.1894472 30.3333333 44.8075377 30.6266667 47.0417085 30.7333333 50.2361809 29.4466667 50.8633166 26.6666667M68.4884422 26.78L71.1407035 26.78C71.1407035 26.78 71.5979899 28.78 73.459799 28.7266667 75.1844221 28.68 75.6351759 27.84 75.6090452 26.9666667 75.6090452 26.3733333 75.6090452 25.8266667 73.459799 25.3933333 71.3105528 24.96 68.7954774 25.0533333 68.6125628 21.8666667 68.6125628 21.8666667 68.3643216 18.6666667 73.1854271 18.6666667 73.9236181 18.6666667 77.9869347 18.4866667 78.039196 22.14L75.5567839 22.14C75.5567839 22.14 75.6613065 20.6733333 73.6688442 20.4733333 72.4798995 20.34 71.5979899 20.8533333 71.5718593 21.66 71.4738693 23.38 74.6356784 23.0933333 75.8638191 23.6133333 76.8502513 24.0266667 78.1894472 24.1533333 78.4115578 26.9133333 78.5160804 27.9666667 78.058794 30.5066667 73.7145729 30.6333333 72.3296482 30.6333333 68.6452261 30.44 68.4884422 26.78M34.440201 24.7866667L34.440201 30.3333333 32.0100503 30.3333333 32.0100503 18.8133333 34.4859296 18.8133333 34.4859296 20.8466667C34.4859296 20.8466667 36.0537688 18.48 38.5296482 18.76L38.5296482 21.0066667C38.5296482 21.0066667 34.6623116 21.0066667 34.4859296 24.7866667"/>
    <rect width="2.469" height="2.447" x="64.68" y="14.153" fill="#000" fill-rule="nonzero"/>
    <rect width="2.469" height="11.52" x="64.68" y="18.773" fill="#000" fill-rule="nonzero"/>
    <rect width="2.482" height="2.473" x="79.757" y="14.153" fill="#000" fill-rule="nonzero"/>
    <rect width="2.482" height="11.513" x="79.757" y="18.82" fill="#000" fill-rule="nonzero"/>
    <path fill="#FFF" fill-rule="nonzero" d="M108.78191 19.4C108.78191 18.785123 109.270347 18.2866667 109.872864 18.2866667 110.475382 18.2866667 110.963819 18.785123 110.963819 19.4 110.963819 20.014877 110.475382 20.5133333 109.872864 20.5133333 109.270347 20.5133333 108.78191 20.014877 108.78191 19.4zM108.51407 19.4C108.51407 18.8391457 108.84513 18.3335167 109.352876 18.118887 109.860623 17.9042574 110.445064 18.0228947 110.833677 18.4194786 111.222289 18.8160625 111.338542 19.4124925 111.128226 19.9306544 110.917911 20.4488162 110.422445 20.7866667 109.872864 20.7866667 109.122423 20.7866667 108.51407 20.1658349 108.51407 19.4zM109.657286 18.9133333L109.91206 18.9133333 110.127638 19.0933333C110.127638 19.2333333 110.042714 19.2933333 109.91206 19.2933333L109.657286 19.2933333 109.657286 18.9133333zM109.657286 19.54L109.977387 19.54 110.10804 19.7333333 110.160302 20.1266667 110.5 20.1266667 110.415075 19.78C110.415075 19.58 110.415075 19.4333333 110.153769 19.4066667 110.324344 19.3800986 110.449714 19.2294117 110.447739 19.0533333 110.447739 18.7533333 110.199497 18.68 109.957789 18.6733333L109.350251 18.6733333 109.350251 20.1333333 109.657286 20.1333333 109.657286 19.54zM25.1050251 27.92C27.1170854 27.5733333 27.5417085 26.4666667 27.5351759 25.5066667 27.5351759 25.0066667 27.5351759 23.22 24.1577889 23.06 23.0276382 23.02 20.9567839 23.62 21.1266332 25.86 21.1723618 26.5266667 21.1266332 25.86 21.1266332 25.86 21.1266332 25.86 21.2899497 28.5666667 25.1050251 27.9M21.8778894 21.66C23.7671001 21.288071 25.7207312 21.4659567 27.5155779 22.1733333 27.5155779 22.1733333 27.8683417 19.4466667 24.3864322 19.34 23.7331658 19.34 21.9432161 19.4333333 21.3879397 21.14L18.820603 21.14C18.820603 21.14 18.9773869 17.38 24.8698492 17.8466667 27.378392 18.0333333 29.5145729 18.8666667 29.7758794 21.42 29.8934673 22.64 29.7758794 29.5266667 29.7758794 29.5266667L27.5874372 29.5266667 27.5874372 28.5266667C27.5874372 28.5266667 25.8432161 30.14 22.5768844 29.7133333 21.2703518 29.5533333 18.6246231 28.82 18.1869347 25.8466667 18.1869347 25.8466667 17.5336683 22.3466667 21.8778894 21.66M104.640201 22.5133333C104.640201 22.5133333 104.163317 19.7266667 101.465327 19.68 99.9010013 19.7289166 98.60282 20.929438 98.4015075 22.5133333L104.640201 22.5133333zM102.040201 24.6666667L98.2512563 24.6666667C98.2512563 24.6666667 98.2512563 27.76 101.713568 27.84 102.621608 27.84 104.215578 27.2933333 104.326633 26.14L107.325126 26.14C107.325126 26.14 106.854774 29.7933333 101.850754 29.92 100.113065 29.92 95.3899497 29.5333333 95.3899497 23.8666667 95.3899497 23.8666667 95.0633166 17.8666667 101.49799 17.8666667 103.21608 17.8666667 107.60603 18.2533333 107.60603 24.6666667L102.040201 24.6666667zM88.6286432 19.8333333C88.6286432 19.8333333 85.2447236 19.8333333 85.3623116 21.7933333L85.3623116 29.5466667 82.7492462 29.5466667 82.7492462 18 85.179397 18 85.179397 19.0733333C85.179397 19.0733333 85.4276382 18.2733333 88.6090452 17.9466667 88.6090452 17.9466667 93.8874372 17.58 94.0180905 21.5733333L94.0180905 29.5733333 91.5944724 29.5733333 91.5944724 21.6133333C91.5944724 21.6133333 91.3723618 19.6133333 88.6417085 19.8333333M56.6773869 27.8133333C56.6773869 27.8133333 60.0613065 27.8666667 59.9437186 25.8733333L59.9437186 18.0733333 62.5567839 18.0733333 62.5567839 29.5066667 60.1005025 29.5066667 60.1005025 28.6666667C60.1005025 28.6666667 59.8326633 29.4466667 56.6447236 29.8 56.6447236 29.8 51.3663317 30.1333333 51.2683417 26.1466667L51.2683417 18.0733333 53.7180905 18.0733333 53.7180905 26.0333333C53.7180905 26.0333333 53.920603 28.0733333 56.6708543 27.8133333M50.0336683 25.8733333L47.1723618 25.8733333C47.1723618 25.8733333 46.9894472 28.0333333 43.8603015 28.1133333 43.0175879 28.1133333 40.5939698 27.3933333 40.5939698 23.5733333 40.5939698 23.2866667 40.6592965 19.52 44.0824121 19.52 45.3889447 19.52 47.0155779 20.02 47.1527638 21.7L50.0532663 21.7C50.0532663 21.7 49.4 17.9733333 44.1738693 17.8266667 41.4758794 17.7466667 37.9678392 18.9266667 37.9678392 23.96 37.9678392 25.0666667 38.3859296 29.5066667 44.0040201 29.7933333 46.238191 29.9 49.4261307 28.62 50.059799 25.84M67.6849246 25.96L70.3371859 25.96C70.3371859 25.96 70.7879397 27.96 72.6628141 27.9066667 74.3809045 27.8533333 74.8316583 27.02 74.8120603 26.1466667 74.8120603 25.5466667 74.8120603 25.0066667 72.6628141 24.5733333 70.5135678 24.14 67.9919598 24.2333333 67.8155779 21.04 67.8155779 21.04 67.560804 17.8466667 72.3884422 17.8466667 73.1201005 17.8466667 77.1834171 17.6666667 77.2291457 21.3266667L74.7532663 21.3266667C74.7532663 21.3266667 74.8577889 19.8533333 72.8653266 19.6533333 71.6763819 19.52 70.7879397 20.0333333 70.7683417 20.8333333 70.6703518 22.56 73.8321608 22.28 75.0603015 22.7933333 76.0467337 23.2 77.379397 23.3333333 77.6145729 26.0866667 77.7125628 27.1466667 77.261809 29.68 72.9110553 29.8133333 71.5261307 29.8133333 67.8351759 29.62 67.6849246 25.96M33.6366834 24L33.6366834 29.54 31.1869347 29.54 31.160804 18 33.6366834 18 33.6366834 20.04C33.6366834 20.04 35.1979899 17.6666667 37.680402 17.94L37.680402 20.1866667C37.680402 20.1866667 33.8130653 20.1533333 33.6366834 23.9733333"/>
    <rect width="2.469" height="2.447" x="63.883" y="13.333" fill="#FFF" fill-rule="nonzero"/>
    <rect width="2.469" height="11.52" x="63.883" y="17.96" fill="#FFF" fill-rule="nonzero"/>
    <rect width="2.476" height="2.467" x="78.96" y="13.333" fill="#FFF" fill-rule="nonzero"/>
    <rect width="2.476" height="11.52" x="78.96" y="18" fill="#FFF" fill-rule="nonzero"/>
  </g>
</svg>
