<svg xmlns="http://www.w3.org/2000/svg" width="117" height="59" viewBox="0 0 117 59">
  <path d="M38.98375,11.7828667 L43.03325,11.6391333 C39.1755,3.97553333 31.1675,0 24.06625,0 C10.53325,0 0,11.4986667 0,26.6821333 C0,41.7218667 10.67625,53.6027333 24.258,53.6027333 C31.5965,53.6027333 39.3185,49.6729333 43.17625,42.3948 L39.1755,42.3948 C35.64925,47.8076667 29.45475,50.3948667 24.2125,50.3948667 C13.06175,50.3948667 3.6725,39.8566 3.6725,26.6364 C3.6725,13.6546667 12.67825,3.35486667 23.9265,3.35486667 C30.121,3.3516 35.36,6.419 38.98375,11.7828667 Z M55.70825,29.2726 C55.8025,34.4927333 59.3775,38.3245333 63.765,38.3245333 C67.14825,38.3245333 69.6735,36.1685333 70.91175,32.3857333 L74.10325,32.3857333 C73.05675,37.7038667 68.38325,41.4866667 63.57,41.4866667 C57.32675,41.4866667 52.2275,35.5478667 52.2275,28.5539333 C52.2275,21.511 57.135,16.2418667 63.427,16.2418667 C69.95625,16.2418667 74.672,21.8442 74.7695,29.2693333 L55.70825,29.2693333 L55.70825,29.2726 Z M55.90325,26.1529333 L70.86625,26.1529333 C70.29425,22.0336667 66.9565,19.3027333 63.336,19.3027333 C59.95275,19.306 56.9985,21.7004667 55.90325,26.1529333 Z M92.8785,29.2726 C93.0215,34.4927333 96.499,38.3245333 100.932,38.3245333 C104.364,38.3245333 106.74625,36.1685333 108.03325,32.3857333 L111.2735,32.3857333 C110.2725,37.7038667 105.45925,41.4866667 100.74025,41.4866667 C94.497,41.4866667 89.349,35.5478667 89.349,28.5539333 C89.349,21.511 94.30525,16.2418667 100.59725,16.2418667 C107.1265,16.2418667 111.84225,21.8442 111.93975,29.2693333 L92.8785,29.2693333 L92.8785,29.2726 Z M93.0735,26.1529333 L107.991,26.1529333 C107.419,22.0336667 104.08125,19.3027333 100.46075,19.3027333 C97.07425,19.306 94.16875,21.7004667 93.0735,26.1529333 Z M41.22625,29.1223333 C41.22625,36.4494667 36.27,41.9603333 30.264,41.9603333 C23.9265,41.9603333 18.82725,36.1652667 18.82725,29.2203333 C18.82725,22.1316667 23.9265,16.6240667 30.16975,16.6240667 C36.361,16.6208 41.22625,22.1284 41.22625,29.1223333 Z M30.2185,19.6914667 C26.26325,19.6914667 21.97325,22.9973333 21.97325,29.3673333 C21.97325,34.5907333 25.7855,38.9484667 30.12425,38.9484667 C34.45975,38.9484667 38.03475,34.7802 38.03475,29.2236 C38.0315,24.1962 34.7425,19.6914667 30.2185,19.6914667 Z M54.665,19.7274 L54.665,16.6632667 C53.807,16.5685333 53.42675,16.5195333 53.14075,16.5195333 C51.13875,16.5195333 49.23425,17.3329333 46.94625,18.963 L46.66025,17.1434667 L43.51425,17.1434667 L43.4655,40.9999333 L46.84875,40.9999333 L46.84875,25.4277333 C46.84875,21.0667333 48.85075,19.7274 54.665,19.7274 Z M74.53225,54.5010667 C74.53225,56.7060667 73.0535,58.1434 70.9085,58.1434 C68.861,58.1434 67.145,56.6570667 67.145,54.6480667 C67.145,52.6358 68.81225,51.0057333 70.863,51.0057333 C73.1965,51.0024667 74.53225,52.4888 74.53225,54.5010667 Z M70.85975,52.2601333 C69.4785,52.2601333 68.57175,53.2662667 68.57175,54.6546 C68.57175,55.9972 69.57275,57.0033333 70.90525,57.0033333 C72.19225,57.0033333 73.1445,56.0462 73.1445,54.6546 C73.1646515,54.0305108 72.9335936,53.4246177 72.5035872,52.9739618 C72.0735808,52.5233059 71.4809549,52.265961 70.85975,52.2601333 Z M66.8135,54.9322667 L65.3835,54.9322667 C65.15275,56.4610667 64.52875,56.9902667 63.05,56.9902667 C61.62,56.9902667 60.81075,55.9384 60.81075,54.5958 C60.81075,53.018 61.763,52.1523333 63.24175,52.1523333 C64.35975,52.1523333 65.14625,52.6684667 65.38675,54.0208667 L66.768,54.0208667 C66.482,52.1066 65.57525,51.0024667 63.09875,51.0024667 C60.619,51.0024667 59.38075,52.6325333 59.38075,54.5958 C59.38075,56.6080667 60.7165,58.1401333 63.1475,58.1401333 C65.19175,58.1401333 66.5145,57.0752 66.8135,54.9322667 Z M103.506,54.3736667 L103.506,55.5235333 L104.69875,55.5235333 C104.69875,56.3859333 103.7465,56.8171333 102.69675,56.8171333 C101.218,56.8171333 100.55175,56.0984667 100.55175,54.7101333 C100.55175,52.9363333 101.504,52.2176667 102.8885,52.2176667 C104.0325,52.2176667 104.84175,52.7926 104.84175,54.1319333 L106.3205,54.1319333 C106.1775,51.9759333 105.0335,51.1625333 102.79425,51.1625333 C100.269,51.1625333 99.125,52.4561333 99.125,54.7068667 C99.125,56.5264 100.36325,58.0127333 102.557,58.0127333 C103.7465,58.0127333 103.987,57.869 104.6045,57.4378 L104.8905,57.7742667 L106.27175,57.7742667 L106.27175,54.3736667 L103.506,54.3736667 Z M68.8155,43.3094667 L67.717,43.3094667 L69.1015,47.334 L70.3885,47.334 L71.34075,44.5573333 L72.34175,47.334 L73.58,47.334 L74.96125,43.2637333 L73.62875,43.2637333 L72.865,46.1384 L72.1045,43.3094667 L70.6745,43.3094667 L69.719,46.1384 L68.8155,43.3094667 Z M84.25625,51.5872 L81.96825,51.5872 L81.96825,57.7644667 L83.447,57.7644667 L83.447,53.1192667 L86.593,57.7644667 L88.595,57.7644667 L88.595,51.5872 L87.11625,51.5872 L87.11625,55.8502 L84.25625,51.5872 Z M94.1655,51.5872 L91.88075,51.5872 L91.88075,57.7644667 L93.35625,57.7644667 L93.35625,53.1192667 L96.50225,57.7644667 L98.4555,57.7644667 L98.4555,51.5872 L96.97675,51.5872 L96.97675,55.8502 L94.1655,51.5872 Z M78.676,51.4434667 C80.4895,51.4434667 81.29875,51.8256667 81.29875,53.263 C81.29875,54.2201333 80.9185,54.5076 80.3465,54.7003333 C81.44175,55.0368 80.68125,56.2814 81.44175,57.7644667 L79.9175,57.7644667 C79.39425,56.7583333 79.9175,55.4647333 78.72475,55.4647333 L76.53425,55.4647333 L76.53425,57.7644667 L75.0555,57.7644667 L75.0555,51.4402 L78.676,51.4402 L78.676,51.4434667 Z M76.54075,54.4128667 L78.4485,54.4128667 C79.40075,54.4128667 79.7355,54.2201333 79.7355,53.4067333 C79.7355,52.6423333 79.4495,52.4953333 78.64025,52.4953333 L76.54075,52.4953333 L76.54075,54.4128667 Z M48.087,51.6819333 C49.27,51.6819333 50.4205,51.8975333 50.4205,53.214 C50.4553426,53.7001105 50.2393272,54.1701328 49.8485,54.4586 C50.22875,54.6970667 50.4205,55.0335333 50.4205,55.7032 C50.4205,56.8040667 50.0435,57.7612 48.373,57.7612 L44.083,57.7612 L44.083,51.6786667 L48.087,51.6786667 L48.087,51.6819333 Z M45.513,55.0400667 L45.513,56.8106 L47.99275,56.8106 C48.70775,56.8106 49.088,56.5721333 49.088,55.9939333 C49.088,55.2752667 48.75325,55.0368 48.0415,55.0368 L45.513,55.0368 L45.513,55.0400667 Z M45.513,54.1188667 L47.944,54.1188667 C48.516,54.1188667 48.8475,53.7824 48.8475,53.3512 C48.8475,52.8742667 48.5615,52.6325333 48.03825,52.6325333 L45.513,52.6325333 L45.513,54.1188667 Z M52.62075,51.6819333 L50.9535,51.6819333 L53.33575,55.5137333 L53.33575,57.7644667 L54.8145,57.7644667 L54.8145,55.5137333 L57.33975,51.6819333 L55.66925,51.6819333 L54.0995,54.2691333 L52.62075,51.6819333 Z M114.426,40.0885333 C112.996,40.0885333 111.8065,38.9386667 111.8065,37.5013333 C111.8065,36.064 112.996,34.9141333 114.426,34.9141333 C115.856,34.9141333 117,36.0672667 117,37.5013333 C117,38.9354 115.85275,40.0885333 114.426,40.0885333 Z M116.5125,37.5111333 C116.5125,36.3122667 115.609,35.3551333 114.41625,35.3551333 C113.2235,35.3551333 112.27125,36.3122667 112.27125,37.5111333 C112.27125,38.7067333 113.2235,39.6181333 114.41625,39.6181333 C115.609,39.6181333 116.5125,38.71 116.5125,37.5111333 Z M115.037,38.9027333 L114.37075,37.8966 L113.89625,37.8966 L113.89625,38.9027333 L113.373,38.9027333 L113.373,36.2698 L114.46825,36.2698 C115.1345,36.2698 115.5635,36.4625333 115.5635,37.0832 C115.5635,37.5144 115.2775,37.7528667 114.94275,37.8966 L115.65775,38.9027333 L115.037,38.9027333 Z M113.89625,37.4196667 L114.61125,37.4196667 C114.8485,37.4196667 114.9915,37.2759333 114.9915,37.0832 C114.9915,36.8447333 114.8485,36.701 114.61125,36.701 L113.89625,36.701 L113.89625,37.4196667 Z M76.05325,43.3094667 L77.76925,43.3094667 L79.4365,47.334 L78.34125,47.334 L77.961,46.5663333 L75.86475,46.5663333 L75.57875,47.334 L74.4835,47.334 L76.05325,43.3094667 Z M76.1995,45.6974 L77.58075,45.6974 L77.0575,44.3090667 L76.72275,44.3090667 L76.1995,45.6974 Z M51.56125,43.3094667 L50.27425,43.3094667 L51.84725,47.334 L53.2285,47.334 L54.85025,43.3094667 L53.56325,43.3094667 L52.56225,46.2331333 L51.56125,43.3094667 Z M65.13975,45.1159333 L65.13975,45.7888667 L66.235,45.7888667 C66.235,46.4095333 66.14075,46.746 65.13975,46.746 C64.42475,46.746 63.804,46.2658 63.804,45.2596667 C63.804,44.3025333 64.4215,43.8713333 65.234,43.8713333 C65.806,43.8713333 66.04325,44.1098 66.1375,44.541 L67.2815,44.541 C67.08975,43.5838667 66.61525,43.1036667 65.18525,43.1036667 C63.8495,43.1036667 62.8485,43.8713333 62.8485,45.3054 C62.8485,46.648 63.661,47.5104 65.1365,47.5104 C65.754,47.5104 66.326,47.2719333 66.61525,47.2719333 C66.75825,47.2719333 67.08975,47.3209333 67.2815,47.3666667 L67.2815,45.1159333 L65.13975,45.1159333 Z M59.1955,43.3094667 L57.61925,43.3094667 L57.61925,47.334 L58.71775,47.334 L58.71775,44.6520667 L60.385,47.334 L62.00675,47.334 L62.00675,43.3094667 L60.9115,43.3094667 L60.9115,45.9914 L59.1955,43.3094667 Z M79.96625,43.3094667 L81.96825,43.3094667 C82.9205,43.3094667 83.6355,43.5969333 83.6355,44.4103333 C83.6355,44.9362667 83.3495,45.1747333 82.966,45.3184667 C83.30075,45.5112 83.538,45.6549333 83.538,46.0861333 L83.538,46.6120667 C83.538,47.089 83.58675,47.187 83.77525,47.3307333 L82.48825,47.3307333 C82.394,47.187 82.394,47.089 82.394,46.8995333 L82.394,46.2298667 C82.394,45.9424 82.20225,45.7496667 81.87075,45.7496667 L81.15575,45.7496667 L81.15575,47.3307333 L79.963,47.3307333 L79.963,43.3094667 L79.96625,43.3094667 Z M81.16225,44.9232 L81.83175,44.9232 C82.1665,44.9232 82.44925,44.8742 82.44925,44.541 C82.44925,44.3025333 82.2575,44.1098 81.97475,44.1098 L81.16225,44.1098 L81.16225,44.9232 Z M84.02875,8.43126667 L87.555,8.43126667 L87.555,40.5262667 L84.02875,40.5262667 L84.02875,8.43126667 Z M76.4465,8.43126667 L79.8785,8.43126667 L79.8785,40.5262667 L76.4465,40.5262667 L76.4465,8.43126667 Z M45.41875,43.3094667 L44.226,43.3094667 L44.226,47.334 L47.2745,47.334 L47.2745,46.4716 L45.41875,46.4716 L45.41875,43.3094667 Z M87.5485,43.3094667 L84.49675,43.3094667 L84.49675,47.334 L87.5485,47.334 L87.5485,46.4716 L85.64075,46.4716 L85.64075,45.6582 L87.21375,45.6582 L87.21375,44.8448 L85.64075,44.8448 L85.64075,44.1718667 L87.5485,44.1718667 L87.5485,43.3094667 Z M89.505,51.5872 L90.98375,51.5872 L90.98375,57.7677333 L89.505,57.7677333 L89.505,51.5872 Z M55.6075,43.3094667 L56.80025,43.3094667 L56.80025,47.334 L55.6075,47.334 L55.6075,43.3094667 Z M48.18125,43.3094667 L49.32525,43.3094667 L49.32525,47.334 L48.18125,47.334 L48.18125,43.3094667 Z"/>
</svg>
