<svg xmlns="http://www.w3.org/2000/svg" width="87" height="30" viewBox="0 0 87 30">
  <g fill="none" fill-rule="evenodd">
    <path fill="#CC393C" fill-rule="nonzero" d="M21.7456452,0.957440758 C23.8893871,0.957440758 25.6274731,2.72473934 25.6274731,4.90549763 C25.6274731,7.08654028 23.8893871,8.85383886 21.7456452,8.85383886 L3.99337634,8.85383886 C1.84935484,8.85383886 0.111408602,7.08654028 0.111408602,4.90549763 C0.111408602,2.72473934 1.84935484,0.957440758 3.99323656,0.957440758 L21.7456452,0.957440758 Z"/>
    <path fill="#323232" fill-rule="nonzero" d="M19.9612903,11.3033175 C22.1054516,11.3033175 23.8433978,13.0709005 23.8433978,15.2516588 C23.8433978,17.4324171 22.1054516,19.2 19.9612903,19.2 L9.85735484,19.2 C8.99558065,19.203128 8.29022581,19.8965403 8.25723656,20.7642654 L8.25723656,25.9103318 C8.25723656,28.0908057 6.51929032,29.8583886 4.37582796,29.8583886 C2.23180645,29.8583886 0.493860215,28.0908057 0.493860215,25.9103318 L0.493860215,17.1526066 C0.493860215,13.9222749 3.06841935,11.3031754 6.24447312,11.3031754 L19.9612903,11.3031754 L19.9612903,11.3033175 Z M27.3903011,4.07345972 C27.3903011,1.89298578 29.1282473,0.125118483 31.272129,0.125118483 C33.4162903,0.125118483 35.153957,1.89298578 35.153957,4.07345972 L35.153957,25.9379147 C35.153957,28.118673 33.4164301,29.8862559 31.272129,29.8862559 C29.1283871,29.8862559 27.3903011,28.1185308 27.3903011,25.9379147 L27.3903011,4.07345972 Z M75.1669785,22.0549763 L76.7269785,22.0509953 C77.0457458,22.0506816 77.3040591,21.7878786 77.3042903,21.4636493 C77.3066643,21.38652 77.2927455,21.30977 77.2634731,21.2385782 L71.462957,11.3243602 L62.4012581,27.2839336 C61.7012151,28.5180569 60.4442688,29.2218483 59.1397957,29.2572512 C59.1008944,29.2628119 59.06166,29.2656149 59.0223763,29.2656398 L44.2750645,29.2656398 C41.098871,29.2656398 38.524172,26.6466825 38.524172,23.4163507 L38.524172,4.07374408 C38.524172,1.89312796 40.2622581,0.125260664 42.406,0.125260664 C44.5496022,0.125260664 46.287828,1.89312796 46.287828,4.0736019 L46.287828,19.7409953 C46.2906237,20.6179621 46.9722151,21.3358294 47.8258817,21.3685308 L56.0754301,21.3685308 C56.2876237,21.3021327 56.9365054,21.0777725 57.1341613,20.7654028 L67.496,2.52085308 C68.2822903,1.14767773 69.7448602,0.223222749 71.4189247,0.223222749 C73.093828,0.223222749 74.5566774,1.14909953 75.3394731,2.52511848 L85.4364194,19.7675829 C86.215358,20.7976695 86.6368208,22.0612234 86.6349355,23.3607583 C86.6349355,26.6219431 84.0357742,29.2653555 80.830086,29.2653555 L69.0606129,29.2653555 C67.1022258,29.2653555 65.516086,27.6510427 65.516086,25.6596682 C65.516086,23.6690047 67.1023656,22.0549763 69.0606129,22.0549763 L75.1669785,22.0549763 Z"/>
  </g>
</svg>
