<svg xmlns="http://www.w3.org/2000/svg" width="144" height="20" viewBox="0 0 144 20">
  <path fill="#CC2229" d="M6.84196915,5.75794 L6.84196915,18.9107 L0.640139362,18.9107 L0.640139362,0.6327 L19.7307223,0.6327 C22.1669362,0.6327 24.4703633,2.6825 24.4703633,4.60428 L24.4703633,18.9107 L18.1365144,18.9107 L18.1365144,5.75794 L6.84196915,5.75794 Z M69.0736468,5.84304 L61.3228947,5.84304 L61.3228947,18.86704 L55.1663505,18.86704 L55.1663505,0.76146 L85.0640824,0.76146 C86.7473266,0.76146 88.7398947,2.85344 88.7851803,4.77522 L88.7398947,18.86704 L82.5396,18.86704 L82.5396,5.75794 L75.1426899,5.75794 L75.1426899,18.9107 L69.0744144,18.9107 L69.0744144,5.84304 L69.0736468,5.84304 Z M95.7384447,19.03798 C93.9216463,19.08164 91.8408096,16.60412 91.8408096,15.28026 L91.8408096,4.51918 C91.8408096,2.81126 93.9669319,0.84656 95.8704638,0.84656 L114.916529,0.84656 L114.916529,5.54408 L98.1293729,5.50116 L98.1293729,14.46922 L114.916529,14.42556 L114.916529,19.0809 L95.7384447,19.03798 Z M26.9948457,12.3765 C27.2166686,6.73992 31.4243952,7.12398 31.4243952,7.12398 L45.4207277,7.1669 L45.4207277,4.86106 L29.0772176,4.86106 L29.0772176,0.84656 L48.0350138,0.84656 C49.8065266,0.97458 51.977167,2.93928 52.0209176,4.90324 L51.9763995,18.86704 L31.8227553,18.86704 C28.3541824,19.14306 26.9503277,15.72796 26.9503277,12.88932 C26.9510952,12.71764 26.9510952,12.5467 26.9948457,12.3765 Z M45.5097638,11.3516 L33.860609,11.3516 L33.860609,14.42556 L45.5535144,14.38338 L45.5097638,11.3516 Z M118.061962,4.86106 C118.061962,2.5123 119.788956,0.24938 122.403243,0.24938 L140.119905,0.24938 C142.156991,0.3774 144.105809,2.29918 144.239363,4.22096 L144.239363,15.62288 C144.239363,17.37298 141.669595,19.50788 140.429997,19.55154 L121.915846,19.50788 C119.921743,19.55154 118.061962,17.33154 118.061962,15.4512 L118.061962,4.86106 Z M138.038301,4.90324 L124.263024,4.94616 L124.263024,15.15224 L138.038301,15.15224 L138.038301,4.90324 Z"/>
</svg>
