<svg xmlns="http://www.w3.org/2000/svg" width="70" height="70" viewBox="0 0 70 70">
  <g fill="none">
    <path fill="#000" d="M25.7608696,47.496087 C25.7608696,44.8926087 24.3282609,42.4817391 21.7565217,42.4817391 L16.4917391,42.4817391 L16.4917391,42.9956522 L18.1317391,42.9956522 L18.1317391,64.5956522 L16.7108696,64.5956522 L13.4134783,42.51 L12.526087,42.51 L8.81478261,61.9021739 C8.2873913,64.4991304 8.06304348,64.5956522 7.52826087,64.5956522 L6.97565217,64.5956522 L6.97565217,65.1095652 L10.5317391,65.1095652 L10.5317391,64.5956522 L9.63434783,64.5956522 C9.08173913,64.5956522 8.87478261,64.2426087 8.87478261,63.7913043 C8.87478261,63.2452174 9.0126087,62.4743478 9.13347826,61.8313043 L10.0404348,56.9843478 L13.7343478,56.9843478 L14.7778261,64.5956522 L13.086087,64.5956522 L13.086087,65.1095652 L22.3952174,65.1095652 C24.0178261,65.1095652 26.0891304,63.373913 26.0891304,59.0352174 C26.0891304,54.9526087 24.1730435,53.4417391 22.2917391,53.1521739 C23.5343478,52.8626087 25.7608696,52.4134783 25.7608696,47.496087 Z M42.2295652,23.7191304 L43.0413043,23.7191304 C43.8004348,23.7191304 43.9378261,23.9434783 43.9378261,24.6513043 L43.9378261,32.4534783 L37.3786957,23.4430435 L33.7543478,23.4430435 L33.7543478,23.7195652 L35.4113043,23.7195652 L35.4113043,34.3347826 C35.4113043,35.1630435 35.1352174,35.3182609 34.3413043,35.3182609 L32.5208696,35.3182609 L28.3265217,23.1665217 L28.1365217,23.1665217 L24.4252174,34.3 C24.0973913,35.2665217 23.8726087,35.3182609 23.3378261,35.3182609 L22.7856522,35.3182609 L22.7856522,35.5943478 L26.3413043,35.5943478 L26.3413043,35.3182609 L25.443913,35.3182609 C24.8913043,35.3182609 24.6843478,35.1286957 24.6843478,34.8869565 C24.6843478,34.5934783 24.8226087,34.1795652 24.9434783,33.8343478 L25.6513043,31.6595652 L29.3452174,31.6595652 L30.5878261,35.3186957 L28.896087,35.3186957 L28.896087,35.5947826 L37.4486957,35.5947826 L37.4486957,35.3186957 L36.7582609,35.3186957 C35.9643478,35.3186957 35.6873913,35.1634783 35.6873913,34.3352174 L35.6873913,24.2717391 L43.99,35.6982609 L44.2152174,35.6982609 L44.2152174,24.6513043 C44.2152174,23.9434783 44.3526087,23.7191304 45.1126087,23.7191304 L45.8717391,23.7191304 L45.8717391,23.4426087 L42.2295652,23.4426087 L42.2295652,23.7191304 Z M1.60427227e-12,2.91521739 L70,2.91521739 L70,-2.77555756e-16 L1.60427227e-12,-2.77555756e-16 L1.60427227e-12,2.91521739 Z M1.60427227e-12,18.8017391 L1.60427227e-12,21.7169565 L69.8882609,21.7169565 L69.8882609,18.8017391 L1.60427227e-12,18.8017391 Z M1.60427227e-12,37.4134783 L1.60427227e-12,40.3286957 L70,40.3286957 L70,37.4134783 L1.60427227e-12,37.4134783 Z M-1.55431223e-15,67.0847826 L-1.55431223e-15,70 L70,70 L70,67.0847826 L-1.55431223e-15,67.0847826 Z M9.50565217,8.79086957 C9.50565217,6.80608696 7.83130435,4.85521739 5.70826087,4.85521739 C2.63608696,4.85521739 2.22130435,8.67 2.22130435,10.9313043 C2.22130435,13.1926087 2.63565217,17.0069565 5.70826087,17.0069565 C7.88304348,17.0069565 9.50565217,14.8669565 9.50565217,12.7091304 L9.78173913,12.7091304 L9.78173913,16.8 L9.50565217,16.8 C9.50565217,16.4547826 9.33304348,15.9369565 8.91869565,15.9369565 C8.40086957,15.9369565 7.48608696,17.2834783 5.70826087,17.2834783 C2.79130435,17.2834783 0.253913043,14.47 0.253913043,10.9313043 C0.253913043,7.3926087 2.79130435,4.57913043 5.70826087,4.57913043 C7.46869565,4.57913043 8.22826087,5.83913043 8.86695652,5.83913043 C9.35043478,5.83913043 9.50565217,5.51086957 9.50565217,5.09652174 L9.78173913,5.09652174 L9.78173913,8.79086957 L9.50565217,8.79086957 Z M16.0478261,4.85521739 L16.0478261,5.13173913 L14.2182609,5.13173913 L14.2182609,14.1595652 C14.2182609,16.1273913 15.7030435,17.0073913 17.17,17.0073913 C19.5865217,17.0073913 21.1056522,15.8513043 21.1056522,13.2791304 L21.1056522,6.30565217 C21.1056522,5.37347826 20.8121739,5.13173913 20.0530435,5.13173913 L19.0865217,5.13173913 L19.0865217,4.85521739 L23.0908696,4.85521739 L23.0908696,5.13173913 L22.3143478,5.13173913 C21.5721739,5.13173913 21.3821739,5.44217391 21.3821739,6.3226087 L21.3821739,13.486087 C21.3821739,16.1786957 19.4486957,17.2834783 17.1530435,17.2834783 C14.3047826,17.2834783 12.4578261,16.6104348 12.4578261,13.866087 L12.4578261,5.13173913 L10.8178261,5.13173913 L10.8178261,4.85521739 L16.0478261,4.85521739 Z M25.1621739,5.13173913 L23.5917391,5.13173913 L23.5917391,4.85521739 L28.4934783,4.85521739 L28.4934783,5.13173913 L26.9230435,5.13173913 L26.9230435,16.7313043 L28.4934783,16.7313043 L28.4934783,17.0073913 L23.5917391,17.0073913 L23.5917391,16.7313043 L25.1621739,16.7313043 L25.1621739,5.13173913 Z M30.7847826,12.743913 C30.7847826,15.643913 32.493913,17.0073913 34.5652174,17.0073913 C36.2226087,17.0073913 37.4130435,15.9547826 37.4130435,14.4013043 C37.4130435,12.606087 36.4813043,12.0708696 34.4965217,11.7604348 C31.7865217,11.3286957 30.5091304,10.88 30.5091304,7.98 C30.5091304,6.01217391 31.803913,4.57956522 33.7369565,4.57956522 C35.5152174,4.57956522 36.1878261,5.6326087 36.7747826,5.6326087 C37.1721739,5.6326087 37.223913,5.20086957 37.2756522,4.97652174 L37.5517391,4.97652174 L37.5517391,8.60130435 L37.2756522,8.60130435 C37.1204348,6.63347826 36.0504348,4.85565217 33.7369565,4.85565217 C32.27,4.85565217 31.2343478,5.8226087 31.2343478,7.41043478 C31.2343478,8.96391304 31.8213043,9.30913043 34.6865217,9.8273913 C37.2069565,10.2756522 38.2421739,11.0873913 38.2421739,13.3313043 C38.2421739,15.5926087 37,17.2843478 34.4965217,17.2843478 C32.7704348,17.2843478 31.8556522,16.3869565 31.2169565,16.3869565 C30.8026087,16.3869565 30.7852174,16.8182609 30.7852174,17.1117391 L30.5091304,17.1117391 L30.5091304,12.743913 L30.7847826,12.743913 Z M41.4278261,5.13173913 L39.8569565,5.13173913 L39.8569565,4.85521739 L44.7591304,4.85521739 L44.7591304,5.13173913 L43.1882609,5.13173913 L43.1882609,16.7313043 L44.7591304,16.7313043 L44.7591304,17.0073913 L39.8569565,17.0073913 L39.8569565,16.7313043 L41.4278261,16.7313043 L41.4278261,5.13173913 Z M47.6491304,15.7473913 C47.6491304,16.5756522 47.9252174,16.7313043 48.7191304,16.7313043 L49.4095652,16.7313043 L49.4095652,17.0073913 L45.7156522,17.0073913 L45.7156522,16.7313043 L46.3026087,16.7313043 C47.0965217,16.7313043 47.3726087,16.576087 47.3726087,15.7473913 L47.3726087,5.13173913 L45.7156522,5.13173913 L45.7156522,4.85521739 L49.3408696,4.85521739 L55.8652174,13.866087 L55.9,6.06391304 C55.9,5.35608696 55.7617391,5.13173913 55.0026087,5.13173913 L54.1917391,5.13173913 L54.1917391,4.85521739 L57.833913,4.85521739 L57.833913,5.13173913 L57.073913,5.13173913 C56.3147826,5.13173913 56.1765217,5.35608696 56.1765217,6.06391304 L56.1765217,17.1113043 L55.9521739,17.1113043 L47.6830435,5.68391304 L47.6491304,15.7473913 Z M58.5508696,5.13173913 L58.5508696,4.85521739 L67.7508696,4.85521739 L67.9582609,7.79 L67.6821739,7.79 C67.6821739,5.80521739 66.37,5.13173913 64.54,5.13173913 L61.8304348,5.13173913 L61.8304348,10.6895652 L63.1247826,10.6895652 C64.92,10.6895652 65.0930435,9.60217391 65.0930435,8.48 L65.3691304,8.48 L65.3691304,13.0717391 L65.0930435,13.0717391 C65.0930435,11.7595652 64.92,10.9656522 63.1078261,10.9656522 L61.8304348,10.9656522 L61.8304348,16.7308696 L64.1952174,16.7308696 C66.9917391,16.7308696 68.3373913,16.4030435 68.3373913,13.4686957 L68.6134783,13.4686957 L68.6134783,17.0069565 L58.5504348,17.0069565 L58.5504348,16.7308696 L60.0686957,16.7308696 L60.0686957,5.13173913 L58.5508696,5.13173913 Z M2.40130435,23.7191304 L0.830434783,23.7191304 L0.830434783,23.4426087 L10.0652174,23.4426087 L10.3069565,26.3769565 L10.0134783,26.3769565 C9.94478261,24.3573913 8.80521739,23.7191304 6.90652174,23.7191304 L4.16217391,23.7191304 L4.16217391,29.2769565 L5.45695652,29.2769565 C7.25217391,29.2769565 7.42434783,28.1895652 7.42434783,27.0673913 L7.70086957,27.0673913 L7.70086957,31.6591304 L7.42434783,31.6591304 C7.42434783,30.3473913 7.25217391,29.5534783 5.43956522,29.5534783 L4.16217391,29.5534783 L4.16217391,35.3182609 L5.78434783,35.3182609 L5.78434783,35.5943478 L0.830434783,35.5943478 L0.830434783,35.3182609 L2.40130435,35.3182609 L2.40130435,23.7191304 Z M13.3034783,23.7191304 L11.5773913,23.7191304 L11.5773913,23.4426087 L16.8765217,23.4426087 C18.8617391,23.4426087 21.0191304,23.8913043 21.0191304,26.4978261 C21.0191304,28.603913 18.5856522,29.156087 17.3252174,29.3113043 C19.31,29.5186957 20.3630435,29.95 20.6221739,32.2286957 L20.863913,34.3347826 C20.9847826,35.3530435 21.4682609,35.4217391 21.7617391,35.4217391 C22.0721739,35.4217391 22.2965217,35.3182609 22.4691304,35.2495652 L22.5730435,35.473913 C22.2278261,35.5943478 21.796087,35.6982609 21.1578261,35.6982609 C19.0517391,35.6982609 18.9308696,34.5765217 18.6891304,32.5917391 L18.5682609,31.556087 C18.4473913,30.4686957 18.1365217,29.4847826 16.186087,29.4847826 L15.063913,29.4847826 L15.063913,35.3186957 L16.8243478,35.3186957 L16.8243478,35.5947826 L11.5773913,35.5947826 L11.5773913,35.3186957 L13.3034783,35.3186957 L13.3034783,23.7191304 Z"/>
    <path fill="#FFF" d="M15.176087,29.2082609 L16.0391304,29.2082609 C18.076087,29.2082609 19.2669565,28.5008696 19.2669565,26.4982609 C19.2669565,25.1173913 18.8008696,23.7191304 16.35,23.7191304 L15.176087,23.7191304 L15.176087,29.2082609 Z M27.5921739,26.1526087 L27.5578261,26.1526087 L25.8665217,31.3830435 L29.3704348,31.3830435 L27.5921739,26.1526087 Z"/>
    <path fill="#000" d="M56.413913,27.3782609 L56.1378261,27.3782609 C56.1378261,25.3934783 54.4630435,23.4426087 52.3404348,23.4426087 C49.2673913,23.4426087 48.8534783,27.2573913 48.8534783,29.5186957 C48.8534783,31.78 49.2669565,35.5943478 52.3404348,35.5943478 C54.5152174,35.5943478 56.1378261,33.4543478 56.1378261,31.2965217 L56.413913,31.2965217 L56.413913,35.3869565 L56.1378261,35.3869565 C56.1378261,35.0421739 55.9647826,34.5243478 55.55,34.5243478 C55.0321739,34.5243478 54.1173913,35.8708696 52.34,35.8708696 C49.4221739,35.8708696 46.8847826,33.0569565 46.8847826,29.5186957 C46.8847826,25.9804348 49.4221739,23.1665217 52.34,23.1665217 C54.1004348,23.1665217 54.8595652,24.4265217 55.4982609,24.4265217 C55.9821739,24.4265217 56.1378261,24.0986957 56.1378261,23.683913 L56.413913,23.683913 L56.413913,27.3782609 Z M59.7369565,23.7191304 L58.2173913,23.7191304 L58.2173913,23.4426087 L67.4182609,23.4426087 L67.6256522,26.3769565 L67.3486957,26.3769565 C67.3486957,24.3921739 66.0373913,23.7191304 64.2073913,23.7191304 L61.4978261,23.7191304 L61.4978261,29.2769565 L62.7921739,29.2769565 C64.5873913,29.2769565 64.7595652,28.1895652 64.7595652,27.0673913 L65.0365217,27.0673913 L65.0365217,31.6591304 L64.7595652,31.6591304 C64.7595652,30.3473913 64.5873913,29.5534783 62.7752174,29.5534783 L61.4978261,29.5534783 L61.4978261,35.3182609 L63.8621739,35.3182609 C66.6586957,35.3182609 68.0052174,34.9904348 68.0052174,32.056087 L68.2813043,32.056087 L68.2813043,35.5943478 L58.2173913,35.5943478 L58.2173913,35.3182609 L59.7365217,35.3182609 L59.7365217,23.7191304 L59.7369565,23.7191304 Z M0.396521739,57.1695652 L0.672608696,57.1695652 C0.672608696,62.5695652 2.38130435,64.7478261 4.4526087,64.7478261 C6.10956522,64.7478261 7.73434783,63.0334783 6.92695652,60.2556522 C5.95521739,56.9130435 4.79869565,55.7669565 4.38347826,55.3378261 C2.4173913,53.3065217 0.470869565,52.3530435 0.396086957,48.2991304 C0.328695652,44.6356522 1.60043478,42.4195652 3.53347826,42.4195652 C5.31130435,42.4195652 6.07521739,43.9278261 6.66217391,43.9278261 C7.05913043,43.9278261 7.11086957,43.1243478 7.1626087,42.7065217 L7.43913043,42.7065217 L7.43913043,50.2786957 L7.1626087,50.2786957 C7.0073913,46.6143478 5.84695652,42.9330435 3.53347826,42.9330435 C2.06608696,42.9330435 1.08652174,44.6086957 1.49478261,47.5373913 C1.79391304,49.6826087 3.03086957,50.9121739 4.42391304,52.0373913 C6.93782609,54.0678261 8.05826087,56.8643478 8.27869565,58.4869565 C8.76826087,62.096087 6.88652174,65.2617391 4.38391304,65.2617391 C2.65782609,65.2617391 1.74304348,63.9521739 1.10434783,63.9521739 C0.69,63.9521739 0.673043478,64.7556522 0.673043478,65.3021739 L0.396956522,65.3021739 L0.396956522,57.1695652 L0.396521739,57.1695652 Z M31.8352174,56.9834783 L28.1413043,56.9834783 L27.2343478,61.8304348 C27.113913,62.4734783 26.9756522,63.2443478 26.9756522,63.7904348 C26.9756522,64.2413043 27.1830435,64.5947826 27.7352174,64.5947826 L28.6326087,64.5947826 L28.6326087,65.1086957 L25.0765217,65.1086957 L25.0765217,64.5947826 L25.6291304,64.5947826 C26.1643478,64.5947826 26.3886957,64.4978261 26.9156522,61.9013043 L30.6269565,42.5091304 L31.5147826,42.5091304 L34.8121739,64.5947826 L36.2443478,64.5947826 L36.2443478,65.1086957 L31.1869565,65.1086957 L31.1869565,64.5947826 L32.8786957,64.5947826 L31.8352174,56.9834783 Z"/>
    <path fill="#FFF" d="M30.4073913,44.9965217 L30.3726087,44.9965217 L28.2447826,56.4691304 L31.7486957,56.4691304 L30.4073913,44.9965217 Z M12.4182609,44.9965217 L12.3834783,44.9965217 L10.2556522,56.4691304 L13.7595652,56.4691304 L12.4182609,44.9965217 Z M20.003913,42.9952174 L20.9013043,42.9952174 C23.4213043,42.9952174 24.1121739,46.1134783 24.1121739,47.8169565 C24.1121739,52.1886957 22.713913,52.8313043 21.1430435,52.8313043 L20.003913,52.8313043 L20.003913,42.9952174 Z M21.453913,64.5947826 L20.003913,64.5947826 L20.003913,53.3447826 L20.936087,53.3447826 C22.903913,53.3447826 24.2330435,55.1452174 24.2330435,58.7447826 C24.2330435,62.506087 23.2665217,64.5947826 21.453913,64.5947826 Z"/>
    <path fill="#000" d="M38.6513043,42.9952174 L38.2886957,42.9952174 C35.216087,42.9952174 35.123913,45.7569565 35.123913,51.0286957 L34.8478261,51.0286957 L34.8478261,42.4817391 L44.2156522,42.4817391 L44.2156522,51.0286957 L43.9386957,51.0286957 C43.9386957,45.7569565 43.846087,42.9952174 40.7917391,42.9952174 L40.4121739,42.9952174 L40.4121739,64.5952174 L42.1895652,64.5952174 L42.1895652,65.1091304 L36.8726087,65.1091304 L36.8726087,64.5952174 L38.6508696,64.5952174 L38.6508696,42.9952174 L38.6513043,42.9952174 Z M46.0247826,42.9952174 L44.753913,42.9952174 L44.753913,42.4813043 L49.0573913,42.4813043 L49.0573913,42.9952174 L47.786087,42.9952174 L47.786087,64.5947826 L49.0573913,64.5947826 L49.0573913,65.1086957 L44.753913,65.1086957 L44.753913,64.5947826 L46.0247826,64.5947826 L46.0247826,42.9952174 Z M51.5521739,43.0213043 L50.303913,42.9947826 L50.303913,42.4808696 L57.8617391,42.4808696 L58.0317391,47.9443478 L57.8052174,47.9443478 C57.8052174,44.2486957 56.7273913,42.9943478 55.2243478,42.9943478 L52.9986957,42.9943478 L52.9986957,52.6469565 L54.0617391,52.6469565 C55.5369565,52.6469565 55.6786957,50.6217391 55.6786957,48.5326087 L55.9052174,48.5326087 L55.9052174,57.0821739 L55.6786957,57.0821739 C55.6786957,54.6391304 55.5369565,53.1604348 54.0473913,53.1604348 L52.9986957,53.1604348 L52.9986957,64.593913 L54.9408696,64.593913 C57.2378261,64.593913 58.3443478,63.9834783 58.3443478,58.5186957 L58.5708696,58.5186957 L58.5708696,65.1073913 L50.303913,65.1073913 L50.303913,64.5934783 L51.5521739,63.8956522 L51.5521739,43.0213043 Z M60.5130435,42.9952174 L58.7865217,42.9952174 L58.7865217,42.4813043 L64.0856522,42.4813043 C66.0708696,42.4813043 68.2286957,43.3169565 68.2286957,48.17 C68.2286957,52.0917391 65.7947826,53.12 64.5347826,53.4095652 L64.5347826,53.473913 C66.52,53.7947826 67.5721739,54.5982609 67.8313043,58.8417391 L68.0734783,62.7626087 C68.193913,64.6595652 68.6773913,64.7878261 68.9708696,64.7878261 C69.2817391,64.7878261 69.5056522,64.5952174 69.6782609,64.4669565 L69.7817391,64.8847826 C69.4369565,65.1091304 69.0056522,65.3026087 68.366087,65.3026087 C66.2608696,65.3026087 66.1395652,63.2126087 65.8982609,59.5169565 L65.7769565,57.5873913 C65.6565217,55.5630435 65.3456522,53.7304348 63.3947826,53.7304348 L62.2730435,53.7304348 L62.2730435,64.5947826 L64.0334783,64.5947826 L64.0334783,65.1086957 L58.7865217,65.1086957 L58.7865217,64.5947826 L60.5130435,64.5947826 L60.5130435,42.9952174 Z"/>
    <path fill="#FFF" d="M62.2734783,53.2165217 L63.136087,53.2165217 C65.1734783,53.2165217 66.3647826,51.8986957 66.3647826,48.17 C66.3647826,45.5986957 65.8986957,42.9952174 63.4469565,42.9952174 L62.2734783,42.9952174 L62.2734783,53.2165217 Z"/>
    <path fill="#000" d="M67.0921739,43.0595652 C67.0921739,42.5730435 67.486087,42.2147826 67.9530435,42.2147826 C68.4147826,42.2147826 68.8091304,42.5730435 68.8091304,43.0595652 C68.8091304,43.5504348 68.4152174,43.9095652 67.9530435,43.9095652 C67.4865217,43.9095652 67.0921739,43.5504348 67.0921739,43.0595652 Z"/>
    <path fill="#FFF" d="M67.9534783,43.7678261 C68.3365217,43.7678261 68.6395652,43.4682609 68.6395652,43.0595652 C68.6395652,42.6578261 68.3365217,42.3556522 67.9534783,42.3556522 C67.5652174,42.3556522 67.2621739,42.6578261 67.2621739,43.0595652 C67.2621739,43.4682609 67.5652174,43.7678261 67.9534783,43.7678261 Z"/>
    <path fill="#000" d="M67.7734783,43.5504348 L67.6256522,43.5504348 L67.6256522,42.5730435 L67.9982609,42.5730435 C68.2282609,42.5730435 68.3430435,42.6578261 68.3430435,42.8508696 C68.3430435,43.0256522 68.2334783,43.1021739 68.09,43.12 L68.3678261,43.5504348 L68.2021739,43.5504348 L67.943913,43.1265217 L67.7730435,43.1265217 L67.7730435,43.5504348 L67.7734783,43.5504348 Z M68.1916667,42.8417668 C68.1916667,42.7204625 68.0812319,42.6982886 67.9786232,42.6982886 L67.7764493,42.6982886 L67.7764493,43.001332 L67.9538406,43.001332 C68.0794928,43.001332 68.1916667,42.9922016 68.1916667,42.8417668 Z"/>
    <path fill="#FFF" d="M5.87826087 39.4873913L6.75304348 39.4873913 6.75304348 39.7373913 5.6 39.7373913 5.6 37.8 5.87826087 37.8 5.87826087 39.4873913zM15.3995652 39.7373913L15.1208696 39.7373913 15.1208696 37.8 15.3995652 37.8 15.3995652 39.7373913zM25.7526087 39.7373913L25.473913 39.7373913 25.473913 38.2291304 25.4682609 38.2291304 24.8721739 38.9786957 24.8265217 38.9786957 24.23 38.2291304 24.2243478 38.2291304 24.2243478 39.7373913 23.946087 39.7373913 23.946087 37.8 24.2073913 37.8 24.8491304 38.596087 25.493913 37.8 25.7526087 37.8 25.7526087 39.7373913zM34.5743478 39.7373913L34.296087 39.7373913 34.296087 37.8 34.5743478 37.8 34.5743478 39.7373913zM44.5808696 38.0508696L43.9108696 38.0508696 43.9108696 39.7373913 43.6326087 39.7373913 43.6326087 38.0508696 42.9626087 38.0508696 42.9626087 37.8 44.5808696 37.8 44.5808696 38.0508696zM54.0647826 38.0508696L53.2434783 38.0508696 53.2434783 38.6347826 54.0356522 38.6347826 54.0356522 38.8856522 53.2434783 38.8856522 53.2434783 39.4873913 54.09 39.4873913 54.09 39.7373913 52.9656522 39.7373913 52.9656522 37.8 54.0647826 37.8 54.0647826 38.0508696zM62.5121739 37.8L63.2643478 37.8C63.98 37.8 64.2952174 38.3113043 64.2952174 38.7691304 64.2952174 39.266087 63.906087 39.7373913 63.2669565 39.7373913L62.5121739 39.7373913 62.5121739 37.8zM62.79 39.4873913L63.2334783 39.4873913C63.8634783 39.4873913 64.0086957 39.0073913 64.0086957 38.7691304 64.0086957 38.38 63.7617391 38.0508696 63.2191304 38.0508696L62.7904348 38.0508696 62.7904348 39.4873913 62.79 39.4873913zM40.836087 19.85L40.0147826 19.85 40.0147826 20.4347826 40.8069565 20.4347826 40.8069565 20.6847826 40.0147826 20.6847826 40.0147826 21.2869565 40.8613043 21.2869565 40.8613043 21.5369565 39.736087 21.5369565 39.736087 19.6 40.836087 19.6 40.836087 19.85zM29.4 19.6L30.1526087 19.6C30.8682609 19.6 31.1834783 20.1113043 31.1834783 20.5682609 31.1834783 21.0656522 30.7943478 21.5369565 30.1556522 21.5369565L29.4 21.5369565 29.4 19.6zM29.6786957 21.2869565L30.1217391 21.2869565C30.7521739 21.2869565 30.8969565 20.8069565 30.8969565 20.5682609 30.8969565 20.1791304 30.65 19.85 30.1073913 19.85L29.6786957 19.85 29.6786957 21.2869565z"/>
  </g>
</svg>
