<svg xmlns="http://www.w3.org/2000/svg" width="40" height="40" viewBox="0 0 40 40">
    <path fill="#1BD741" fill-rule="nonzero" d="M0 0h40v40H0V0zm6.012 34.003l7.176-1.847a13.952 13.952 0 0 0 6.83 1.781c7.703 0 13.97-6.267 13.97-13.97s-6.267-13.97-13.97-13.97-13.97 6.267-13.97 13.97c0 2.502.663 4.937 1.923 7.078l-1.96 6.958zm7.543-4.389L9.41 30.682l1.128-4.008-.288-.448a11.559 11.559 0 0 1-1.831-6.26c0-6.396 5.204-11.6 11.6-11.6 6.397 0 11.6 5.204 11.6 11.6 0 6.397-5.203 11.601-11.6 11.601-2.135 0-4.222-.585-6.035-1.691l-.428-.262zm2.539-16.15l-.907-.049a1.096 1.096 0 0 0-.78.267c-.439.381-1.141 1.12-1.357 2.08-.322 1.434.175 3.19 1.463 4.945 1.287 1.756 3.686 4.564 7.928 5.764 1.367.386 2.443.126 3.273-.405a2.926 2.926 0 0 0 1.273-1.858l.145-.676a.47.47 0 0 0-.263-.525l-3.064-1.412a.47.47 0 0 0-.568.14l-1.203 1.559a.344.344 0 0 1-.387.115c-.823-.29-3.582-1.445-5.096-4.36a.348.348 0 0 1 .044-.389l1.149-1.33a.47.47 0 0 0 .077-.491l-1.321-3.09a.47.47 0 0 0-.406-.284z"/>
</svg>
