<svg xmlns="http://www.w3.org/2000/svg" width="35" height="35" viewBox="0 0 35 35">
    <path fill="#17286F" fill-rule="evenodd" d="M33.093 11.034c-1.166-1.263-2.823-1.952-4.663-1.952h-4.803V6.381a.883.883 0 0 0-.88-.881H.88a.883.883 0 0 0-.88.881V25.75c0 .484.396.88.88.88h3.505a3.466 3.466 0 0 0 3.41 2.87 3.467 3.467 0 0 0 3.41-2.87H24.675a3.466 3.466 0 0 0 3.41 2.87 3.466 3.466 0 0 0 3.41-2.87h2.625c.484 0 .88-.396.88-.88v-9.102c-.007-2.326-.66-4.271-1.907-5.614zM1.76 7.261h20.107v17.615H11.051a3.467 3.467 0 0 0-3.256-2.297 3.467 3.467 0 0 0-3.256 2.297H1.76V7.261zm6.035 20.477a1.702 1.702 0 0 1 0-3.405 1.703 1.703 0 0 1 0 3.405zm20.29 0a1.702 1.702 0 0 1 0-3.405 1.703 1.703 0 0 1 0 3.405zm5.148-2.869h-1.892a3.467 3.467 0 0 0-3.256-2.297 3.467 3.467 0 0 0-3.256 2.297h-1.195V10.843h4.803c2.963 0 4.803 2.224 4.803 5.805v8.221h-.007z"/>
</svg>
