<svg xmlns="http://www.w3.org/2000/svg" width="15" height="15" viewBox="0 0 15 15">
    <path fill="#17286F" fill-rule="evenodd" d="M11.745 11.207c-1.966-.75-2.595-1.38-2.595-2.733 0-.812.6-.547.863-2.033.11-.617.64-.01.742-1.418 0-.561-.29-.7-.29-.7s.148-.83.206-1.47C10.74 2.057 10.23 0 7.5 0 4.77 0 4.257 2.057 4.33 2.853c.057.64.205 1.47.205 1.47s-.29.139-.29.7c.102 1.408.632.801.742 1.418.263 1.486.863 1.221.863 2.033 0 1.352-.629 1.984-2.595 2.733C1.281 11.957 0 12.723 0 13.245V15h15v-1.755c0-.522-1.281-1.287-3.255-2.038"/>
</svg>
