<svg xmlns="http://www.w3.org/2000/svg" width="40" height="40" viewBox="0 0 40 40">
    <path fill="#61A8DE" fill-rule="nonzero" d="M0 0h40v40H0V0zm31.496 8.83L4.748 19.253c-.867.338-.814 1.581.078 1.845l6.797 2.007 2.536 8.049a1.167 1.167 0 0 0 1.948.466l3.514-3.588 6.895 5.06c.844.62 2.046.16 2.26-.864l4.567-21.834a1.376 1.376 0 0 0-1.847-1.564zm-3.353 4.845L15.718 24.662a.667.667 0 0 0-.221.426l-.478 4.252c-.016.139-.21.157-.252.024L12.8 23.022a.667.667 0 0 1 .286-.765l14.672-9.1c.338-.21.683.255.386.518z"/>
</svg>
