<svg xmlns="http://www.w3.org/2000/svg" width="295" height="35" viewBox="0 0 295 35">
    <g fill="none" fill-rule="evenodd">
        <path fill="#000" d="M70.86 33.592c-5.5 0-10.732-1.744-14.546-5.188l4.79-5.769c3.06 2.46 6.474 3.757 10.066 3.757 2.306 0 3.548-.805 3.548-2.236 0-1.297-1.02-2.013-5.233-2.997-6.608-1.52-11.707-3.398-11.707-9.928 0-5.814 4.567-10.018 12.017-10.018 5.278 0 9.402 1.431 12.772 4.16l-4.301 6.126c-2.839-2.012-5.943-3.085-8.692-3.085-2.085 0-3.105.894-3.105 2.102 0 1.43 1.065 2.057 5.366 3.04 7.14 1.566 11.575 3.892 11.575 9.84 0 6.395-5.011 10.196-12.55 10.196zm22.167-.313L82.65 1.75h9.091l5.41 18.113 5.987-18.202h7.406l5.987 18.202 5.41-18.113h8.914l-10.377 31.53h-7.495l-6.253-18.024-6.208 18.023h-7.495zm39.684-.223V1.75h8.648v31.306h-8.648zm24.784.536c-5.499 0-10.732-1.744-14.545-5.188l4.79-5.769c3.059 2.46 6.474 3.757 10.066 3.757 2.306 0 3.547-.805 3.547-2.236 0-1.297-1.02-2.013-5.232-2.997-6.608-1.52-11.708-3.398-11.708-9.928 0-5.814 4.568-10.018 12.018-10.018 5.277 0 9.401 1.431 12.772 4.16l-4.302 6.126c-2.838-2.012-5.942-3.085-8.692-3.085-2.084 0-3.104.894-3.104 2.102 0 1.43 1.064 2.057 5.366 3.04 7.14 1.566 11.574 3.892 11.574 9.84 0 6.395-5.01 10.196-12.55 10.196zm26.735 0c-5.499 0-10.731-1.744-14.545-5.188l4.79-5.769c3.06 2.46 6.474 3.757 10.066 3.757 2.306 0 3.548-.805 3.548-2.236 0-1.297-1.02-2.013-5.233-2.997-6.608-1.52-11.708-3.398-11.708-9.928 0-5.814 4.568-10.018 12.018-10.018 5.277 0 9.402 1.431 12.772 4.16l-4.302 6.126c-2.838-2.012-5.942-3.085-8.692-3.085-2.084 0-3.104.894-3.104 2.102 0 1.43 1.064 2.057 5.366 3.04 7.14 1.566 11.574 3.892 11.574 9.84 0 6.395-5.01 10.196-12.55 10.196zm31.037 0c-9.401 0-15.565-7.558-15.565-16.19 0-8.541 6.252-16.189 15.654-16.189 9.401 0 15.565 7.558 15.565 16.19 0 8.542-6.252 16.19-15.654 16.19zm.089-2.102c7.672 0 13.17-6.26 13.17-14.087 0-7.737-5.587-14.088-13.259-14.088-7.672 0-13.17 6.261-13.17 14.088 0 7.737 5.587 14.087 13.259 14.087zm17.245 1.566l14.457-31.53h2.217l14.457 31.53h-2.528l-3.947-8.766h-18.315l-3.947 8.766h-2.394zm7.317-10.868h16.364l-8.16-18.112-8.204 18.112zm28.642 10.868V1.75h2.306v20.572L290.644 1.75h3.149l-13.57 13.82 14.147 17.486h-3.016l-12.772-15.832-7.716 7.871v7.96h-2.306z"/>
        <path fill="#ED1B34" d="M27.491 33.607c3.142-.03 6.128.58 8.779 1.16V35H13.86v-.232h.462c1.269-.85 6.032-1.149 8.086-1.161.194-1.636.667-2.635.693-4.645-1.068-.667-2.456-.734-4.39-.696-1.161-.899-2.71-.43-4.389-.93-.673-.2-1.585-1.28-2.08-.928-1.833 1.149-3.837 1.052-5.312-.464-.63.312-.773.541-1.618.696C4.066 25.063.924 24.422.231 22.46c-.516-.971.603-1.071.231-2.322-.077-.258-.367-.31-.462-.929l2.31.232c.359-3.982-.908-1.92-.693-5.108.979-2.41 1.918-1.231 2.08-1.858 1.282-.594-.648-.718 2.078-1.393-.083-.686-.462-.48.231-.93.278-.033 1.136.509 1.156.465l.23-.232c-1.353-.866-.54-3.367 1.387-3.483.272.185.388.18.924.232.665-.854 1.77-1.12 2.54-1.858-.524-.232-.64-.173-.923-.697.71-.398 1.652-.93 2.541-1.16l.924.232c.307-.127.244-.697.462-.93.238-.251.809-.288 1.386-.464v-.232h-.693c.086-.482.056-.447.231-.697.765-1.002 1.463.155 1.617 0 2.07.95.398-.94 2.542 0-.067.571.31.345.462.93h.23l-.23-1.626c.483-.26.423-.333 1.155-.465v.697l.924.929h.462C24.04-.867 27 .063 29.108.632l2.31.232c.759.333.745 1.5 1.386 1.858l2.31.232c.692.213 1.464.925 2.08 1.161 2.148-.294 2.108 1.177 3.234 1.161 2.507 1.253.913 2.105 3.465 4.18.846.687 2.504 1.095 3.003 2.09.488.867-.47 2.13-.924 2.554-.29-.376-.485-.466-.924-.696v.464c.463.394.854.865 1.155 1.394h.462c.097-.832-.109-.585.462-.93v.233c.382.416.404.583.463 1.393a3.01 3.01 0 0 0-1.387 1.161c.736-.062.647-.226 1.156.465.496.722.419 1.662.693 2.09.433-.413.183-.43.693-.233.68.24.895.517 1.155 1.162.413.837-.59 1.117-.231 2.322.092.31.397.414.462 1.16-.829.83-.88 1.545-2.541 1.626-.654-.87-1.84-.736-3.004-.464.03 1.11.043 1.49-.693 1.858-.64.429-2.015.462-3.003.464a4.51 4.51 0 0 0-2.541-1.625c-2.41 2.33-11.324.312-11.551 4.18.491.744.63 2.444.693 3.483zm.462-31.814c.086.482.056.447.231.697v-.697h-.23zm-9.01 0c0 .155.924.774.924.929h.231v-.465c-.076 0-1.078-.464-1.155-.464zm1.387 1.161c-.273.186-.389.18-.925.232v.232h.231v.233c.296-.123.607-.201.925-.233v-.464h-.231zm4.389 0v.464h.23v-.464h-.23zm-3.696.232v.465h.23v-.465h-.23zm.462 0c.158.541.052 1.055.23 1.393v-.232c.185-.274.18-.39.232-.929l-.462-.232zm4.851 0v.465h.462v-.233l-.462-.232zm-2.08.232v.465h.463V3.65l-.462-.233zm3.004.465v.464h.231v-.464h-.231zm2.772.464l.462.465-.462-.465zM15.71 4.58l-.23.233c-.445.18.461.232.461.232-.146-.407-.044-.226-.23-.465zm4.852 0c.085.483.055.447.23.697V4.58h-.23zm2.31 0v.465h.23v-.465h-.23zm1.617 0l-.231.93h.462c.026-.32.104-.635.23-.93h-.461zm-2.08.233l.232.929h.23c-.135-.522-.172-.617-.461-.93zm-1.154.232c-.176.61-.278.554-.462 1.161h.462v-.232c.184-.237.082-.064.23-.465.059-.224.182-.088 0-.232l-.23-.232zm2.079 0c.236.186.063.082.462.232-.236-.186-.064-.082-.462-.232zm2.31 0c.086.482.056.447.23.697v-.697h-.23zm-8.317 1.161v.464h.231v-.464h-.23zm6.238 0v.464h.23v-.464h-.23zm5.544.232l-.23.232c-.445.18.461.233.461.233-.146-.408-.044-.226-.23-.465zm3.465 0l-.23.697h.461c-.086-.482-.055-.447-.23-.697zm-.693.697v.464h.231v-.464h-.23zm4.852 1.161l.462.464-.462-.464zm-23.333.232v.465h.231v-.465h-.231zm24.488 0v.465h.23v-.465h-.23zm-26.798.465c-.376.574-1.187.828-.462 1.16l.924-.928c-.236-.186-.063-.083-.462-.232zm1.386.928v.465h.462V9.92h-.462zm.924.233v.464h.231v-.464h-.231zm-3.465.232c.142.447.136 1.014.23 1.161v-.232c.174-.25.14-.22.232-.697l-.462-.232zm4.158 0v.464h.462v-.464h-.462zm-6.468.232v.465h.23v-.465h-.23zm3.465 0v.465h.23v-.465h-.23zm1.617.232v.465h.462l.231-.232v-.233h-.693zm-4.62.233l-.462.696.693-.232v-.464h-.231zm25.18 0c.398.204.296.206.694 0h-.694zm-21.715.232v.929h.23v-.233c.274-.283.05-.36-.23-.696zm25.18 0a3.159 3.159 0 0 0 1.849.929v-.233c-.683-.289-1.017-.547-1.848-.696zm-27.26.232l-.23.464c.403-.325.23-.464.23-.464zm.925.232v.465h.23v-.465h-.23zm-3.928.232c-.177.764-.718 1.188-.462 1.626v.232c.386-.407.698-.879.925-1.393h.23c.086.482.056.447.232.697v-.697c-.408-.223-.389-.292-.925-.465zm33.96 0c-.075.63.129.405.693 0h-.693zm-32.573.233c-.006.666-.215.601.924.696l.23-.696h-.23s-.102.922-.231.464v-.232l-.693-.232zm27.029 0c.235.185.063.082.462.232-.236-.186-.064-.083-.462-.232zm6.93 0v.464h.231c-.146-.407-.044-.225-.23-.464zm-7.854.232v.464h.23v-.464h-.23zm3.234 0l-.231.232c-.445.18.462.232.462.232-.146-.407-.045-.225-.231-.464zm.924 0c.312.377.148.26.693.464v-.232l-.693-.232zm-28.646.232l-.231.697h.23v-.232c.288-.364.149-.119 0-.465zm23.101 0c.312.377.148.26.693.465l.231-.233v-.232h-.924zm2.08.232c.311.377.147.26.693.465v-.465h-.693zm5.082 0l-.231.465.462.232c.074-.16-.185-.657-.231-.697zm.693 0v.465h.231v-.465h-.231zm1.155 0c.236.186.063.083.462.233-.236-.186-.063-.083-.462-.233zm-6.006.465v.464h.23v-.464h-.23zm1.155 0c.002.734.23.696.23.696v-.696h-.23zm1.617 0c.04.73.119.348 0 .929h.23c.237-.186.064-.083.463-.233l-.693-.696zm-11.551.232c.236.186.063.082.462.232-.236-.186-.063-.082-.462-.232zm1.617 0v.464h.462v-.232l-.462-.232zm12.244.232v.465h.231v-.465h-.231zm-9.01.232c.236.186.064.083.462.233-.235-.186-.063-.083-.462-.233zm8.086 0l.231.697h.462v-.232c-.357-.263-.195-.252-.693-.465zm-17.095.465c.236.186.063.082.462.232-.236-.186-.064-.082-.462-.232zm20.56 3.019v.464h.462v-.232l-.462-.232z"/>
    </g>
</svg>
